Courier Prime.ufo
<glyph name="uni0180" format="1">
  <advance width="1228"/>
  <unicode hex="0180"/>
  <outline>
    <contour>
      <point x="352" y="740" type="line"/>
      <point x="392" y="790"/>
      <point x="438.167" y="828.5"/>
      <point x="490.5" y="855.5" type="curve" smooth="yes"/>
      <point x="542.833" y="882.5"/>
      <point x="602.333" y="896"/>
      <point x="669" y="896" type="curve" smooth="yes"/>
      <point x="731" y="896"/>
      <point x="788.333" y="885.5"/>
      <point x="841" y="864.5" type="curve" smooth="yes"/>
      <point x="893.667" y="843.5"/>
      <point x="939.167" y="813.333"/>
      <point x="977.5" y="774" type="curve" smooth="yes"/>
      <point x="1015.83" y="734.667"/>
      <point x="1046" y="686.667"/>
      <point x="1068" y="630" type="curve" smooth="yes"/>
      <point x="1090" y="573.333"/>
      <point x="1101" y="509"/>
      <point x="1101" y="437" type="curve" smooth="yes"/>
      <point x="1101" y="365"/>
      <point x="1090" y="300.667"/>
      <point x="1068" y="244" type="curve" smooth="yes"/>
      <point x="1046" y="187.333"/>
      <point x="1015.83" y="139.333"/>
      <point x="977.5" y="100" type="curve" smooth="yes"/>
      <point x="939.167" y="60.6667"/>
      <point x="893.667" y="30.5"/>
      <point x="841" y="9.5" type="curve" smooth="yes"/>
      <point x="788.333" y="-11.5"/>
      <point x="731" y="-22"/>
      <point x="669" y="-22" type="curve" smooth="yes"/>
      <point x="602.333" y="-22"/>
      <point x="541.5" y="-7.16667"/>
      <point x="486.5" y="22.5" type="curve" smooth="yes"/>
      <point x="431.5" y="52.1667"/>
      <point x="383.333" y="94"/>
      <point x="342" y="148" type="curve"/>
      <point x="342" y="68" type="line" smooth="yes"/>
      <point x="342" y="42.6667"/>
      <point x="337.167" y="25"/>
      <point x="327.5" y="15" type="curve" smooth="yes"/>
      <point x="317.833" y="5"/>
      <point x="301.667" y="0"/>
      <point x="279" y="0" type="curve" smooth="yes"/>
      <point x="120" y="0" type="line" smooth="yes"/>
      <point x="97.3333" y="0"/>
      <point x="81.1667" y="5"/>
      <point x="71.5" y="15" type="curve" smooth="yes"/>
      <point x="61.8333" y="25"/>
      <point x="57" y="42.6667"/>
      <point x="57" y="68" type="curve" smooth="yes"/>
      <point x="57" y="93.3333"/>
      <point x="61.8333" y="111"/>
      <point x="71.5" y="121" type="curve" smooth="yes"/>
      <point x="81.1667" y="131"/>
      <point x="97.3333" y="136"/>
      <point x="120" y="136" type="curve" smooth="yes"/>
      <point x="202" y="136" type="line"/>
      <point x="202" y="1176" type="line"/>
      <point x="100" y="1176" type="line" smooth="yes"/>
      <point x="77.3333" y="1176"/>
      <point x="61.1667" y="1181"/>
      <point x="51.5" y="1191" type="curve" smooth="yes"/>
      <point x="41.8333" y="1201"/>
      <point x="37" y="1218.67"/>
      <point x="37" y="1244" type="curve" smooth="yes"/>
      <point x="37" y="1269.33"/>
      <point x="41.8333" y="1287"/>
      <point x="51.5" y="1297" type="curve" smooth="yes"/>
      <point x="61.1667" y="1307"/>
      <point x="77.3333" y="1312"/>
      <point x="100" y="1312" type="curve" smooth="yes"/>
      <point x="289" y="1312" type="line" smooth="yes"/>
      <point x="311.667" y="1312"/>
      <point x="327.833" y="1307"/>
      <point x="337.5" y="1297" type="curve" smooth="yes"/>
      <point x="347.167" y="1287"/>
      <point x="352" y="1269.33"/>
      <point x="352" y="1244" type="curve" smooth="yes"/>
    </contour>
    <contour>
      <point x="352" y="437" type="curve" smooth="yes"/>
      <point x="352" y="387.667"/>
      <point x="359.667" y="343.667"/>
      <point x="375" y="305" type="curve" smooth="yes"/>
      <point x="390.333" y="266.333"/>
      <point x="411.667" y="233.833"/>
      <point x="439" y="207.5" type="curve" smooth="yes"/>
      <point x="466.333" y="181.167"/>
      <point x="498.833" y="161"/>
      <point x="536.5" y="147" type="curve" smooth="yes"/>
      <point x="574.167" y="133"/>
      <point x="615" y="126"/>
      <point x="659" y="126" type="curve" smooth="yes"/>
      <point x="704.333" y="126"/>
      <point x="744.667" y="133.667"/>
      <point x="780" y="149" type="curve" smooth="yes"/>
      <point x="815.333" y="164.333"/>
      <point x="845" y="185.833"/>
      <point x="869" y="213.5" type="curve" smooth="yes"/>
      <point x="893" y="241.167"/>
      <point x="911.333" y="274"/>
      <point x="924" y="312" type="curve" smooth="yes"/>
      <point x="936.667" y="350"/>
      <point x="943" y="391.667"/>
      <point x="943" y="437" type="curve" smooth="yes"/>
      <point x="943" y="482.333"/>
      <point x="936.667" y="524"/>
      <point x="924" y="562" type="curve" smooth="yes"/>
      <point x="911.333" y="600"/>
      <point x="893" y="632.833"/>
      <point x="869" y="660.5" type="curve" smooth="yes"/>
      <point x="845" y="688.167"/>
      <point x="815.333" y="709.667"/>
      <point x="780" y="725" type="curve" smooth="yes"/>
      <point x="744.667" y="740.333"/>
      <point x="704.333" y="748"/>
      <point x="659" y="748" type="curve" smooth="yes"/>
      <point x="615" y="748"/>
      <point x="574.167" y="741"/>
      <point x="536.5" y="727" type="curve" smooth="yes"/>
      <point x="498.833" y="713"/>
      <point x="466.333" y="692.833"/>
      <point x="439" y="666.5" type="curve" smooth="yes"/>
      <point x="411.667" y="640.167"/>
      <point x="390.333" y="607.667"/>
      <point x="375" y="569" type="curve" smooth="yes"/>
      <point x="359.667" y="530.333"/>
      <point x="352" y="486.333"/>
    </contour>
    <contour>
      <point x="672" y="1097" type="line" smooth="yes"/>
      <point x="694.667" y="1097"/>
      <point x="710.833" y="1092"/>
      <point x="720.5" y="1082" type="curve" smooth="yes"/>
      <point x="730.167" y="1072"/>
      <point x="735" y="1054.33"/>
      <point x="735" y="1029" type="curve" smooth="yes"/>
      <point x="735" y="1003.67"/>
      <point x="730.167" y="986"/>
      <point x="720.5" y="976" type="curve" smooth="yes"/>
      <point x="710.833" y="966"/>
      <point x="694.667" y="961"/>
      <point x="672" y="961" type="curve" smooth="yes"/>
      <point x="110" y="961" type="line" smooth="yes"/>
      <point x="87.3333" y="961"/>
      <point x="71.1667" y="966"/>
      <point x="61.5" y="976" type="curve" smooth="yes"/>
      <point x="51.8333" y="986"/>
      <point x="47" y="1003.67"/>
      <point x="47" y="1029" type="curve" smooth="yes"/>
      <point x="47" y="1054.33"/>
      <point x="51.8333" y="1072"/>
      <point x="61.5" y="1082" type="curve" smooth="yes"/>
      <point x="71.1667" y="1092"/>
      <point x="87.3333" y="1097"/>
      <point x="110" y="1097" type="curve" smooth="yes"/>
    </contour>
  </outline>
</glyph>
<glyph name="uni0181" format="1">
  <advance width="1228"/>
  <unicode hex="0181"/>
  <outline>
    <contour>
      <point x="622" y="681" type="line" smooth="yes"/>
      <point x="700.667" y="681"/>
      <point x="759.167" y="697"/>
      <point x="797.5" y="729" type="curve" smooth="yes"/>
      <point x="835.833" y="761"/>
      <point x="855" y="806.333"/>
      <point x="855" y="865" type="curve" smooth="yes"/>
      <point x="855" y="925.667"/>
      <point x="835.833" y="971.833"/>
      <point x="797.5" y="1003.5" type="curve" smooth="yes"/>
      <point x="759.167" y="1035.17"/>
      <point x="700.667" y="1051"/>
      <point x="622" y="1051" type="curve" smooth="yes"/>
      <point x="415" y="1051" type="line"/>
      <point x="415" y="681" type="line"/>
    </contour>
    <contour>
      <point x="680" y="136" type="line" smooth="yes"/>
      <point x="763.333" y="136"/>
      <point x="826.833" y="153.667"/>
      <point x="870.5" y="189" type="curve" smooth="yes"/>
      <point x="914.167" y="224.333"/>
      <point x="936" y="274.333"/>
      <point x="936" y="339" type="curve" smooth="yes"/>
      <point x="936" y="476.333"/>
      <point x="852.333" y="545"/>
      <point x="685" y="545" type="curve" smooth="yes"/>
      <point x="415" y="545" type="line"/>
      <point x="415" y="136" type="line"/>
    </contour>
    <contour>
      <point x="265" y="1411" type="line" smooth="yes"/>
      <point x="265" y="1469.67"/>
      <point x="281.667" y="1516.17"/>
      <point x="315" y="1550.5" type="curve" smooth="yes"/>
      <point x="348.333" y="1584.83"/>
      <point x="396.333" y="1602"/>
      <point x="459" y="1602" type="curve" smooth="yes"/>
      <point x="490.333" y="1602"/>
      <point x="519.667" y="1599.67"/>
      <point x="547" y="1595" type="curve" smooth="yes"/>
      <point x="574.333" y="1590.33"/>
      <point x="599.667" y="1584"/>
      <point x="623" y="1576" type="curve" smooth="yes"/>
      <point x="637.667" y="1570.67"/>
      <point x="647.5" y="1562.5"/>
      <point x="652.5" y="1551.5" type="curve" smooth="yes"/>
      <point x="657.5" y="1540.5"/>
      <point x="658.333" y="1524.67"/>
      <point x="655" y="1504" type="curve" smooth="yes"/>
      <point x="652.333" y="1485.33"/>
      <point x="646.667" y="1472.17"/>
      <point x="638" y="1464.5" type="curve" smooth="yes"/>
      <point x="629.333" y="1456.83"/>
      <point x="618.333" y="1454"/>
      <point x="605" y="1456" type="curve" smooth="yes"/>
      <point x="587.667" y="1459.33"/>
      <point x="569.333" y="1461.83"/>
      <point x="550" y="1463.5" type="curve" smooth="yes"/>
      <point x="530.667" y="1465.17"/>
      <point x="511.333" y="1466"/>
      <point x="492" y="1466" type="curve" smooth="yes"/>
      <point x="469.333" y="1466"/>
      <point x="450.833" y="1459.67"/>
      <point x="436.5" y="1447" type="curve" smooth="yes"/>
      <point x="422.167" y="1434.33"/>
      <point x="415" y="1415.67"/>
      <point x="415" y="1391" type="curve" smooth="yes"/>
      <point x="415" y="1187" type="line"/>
      <point x="644" y="1187" type="line" smooth="yes"/>
      <point x="704" y="1187"/>
      <point x="756.667" y="1179.33"/>
      <point x="802" y="1164" type="curve" smooth="yes"/>
      <point x="847.333" y="1148.67"/>
      <point x="885.167" y="1126.83"/>
      <point x="915.5" y="1098.5" type="curve" smooth="yes"/>
      <point x="945.833" y="1070.17"/>
      <point x="968.833" y="1036.17"/>
      <point x="984.5" y="996.5" type="curve" smooth="yes"/>
      <point x="1000.17" y="956.833"/>
      <point x="1008" y="913"/>
      <point x="1008" y="865" type="curve" smooth="yes"/>
      <point x="1008" y="813"/>
      <point x="996.333" y="767.667"/>
      <point x="973" y="729" type="curve" smooth="yes"/>
      <point x="949.667" y="690.333"/>
      <point x="917" y="659"/>
      <point x="875" y="635" type="curve"/>
      <point x="945.667" y="612.333"/>
      <point x="999.833" y="576"/>
      <point x="1037.5" y="526" type="curve" smooth="yes"/>
      <point x="1075.17" y="476"/>
      <point x="1094" y="413.667"/>
      <point x="1094" y="339" type="curve" smooth="yes"/>
      <point x="1094" y="286.333"/>
      <point x="1085.5" y="239.167"/>
      <point x="1068.5" y="197.5" type="curve" smooth="yes"/>
      <point x="1051.5" y="155.833"/>
      <point x="1026.67" y="120.333"/>
      <point x="994" y="91" type="curve" smooth="yes"/>
      <point x="961.333" y="61.6667"/>
      <point x="921.167" y="39.1667"/>
      <point x="873.5" y="23.5" type="curve" smooth="yes"/>
      <point x="825.833" y="7.83333"/>
      <point x="771.333" y="0"/>
      <point x="710" y="0" type="curve" smooth="yes"/>
      <point x="143" y="0" type="line" smooth="yes"/>
      <point x="120.333" y="0"/>
      <point x="104.167" y="5"/>
      <point x="94.5" y="15" type="curve" smooth="yes"/>
      <point x="84.8333" y="25"/>
      <point x="80" y="42.6667"/>
      <point x="80" y="68" type="curve" smooth="yes"/>
      <point x="80" y="93.3333"/>
      <point x="84.8333" y="111"/>
      <point x="94.5" y="121" type="curve" smooth="yes"/>
      <point x="104.167" y="131"/>
      <point x="120.333" y="136"/>
      <point x="143" y="136" type="curve" smooth="yes"/>
      <point x="265" y="136" type="line"/>
    </contour>
  </outline>
</glyph>
<glyph name="uni0182" format="1">
  <advance width="1228"/>
  <unicode hex="0182"/>
  <outline>
    <contour>
      <point x="143" y="1187" type="curve" smooth="yes"/>
      <point x="1025" y="1187" type="line" smooth="yes"/>
      <point x="1047.67" y="1187"/>
      <point x="1063.83" y="1182"/>
      <point x="1073.5" y="1172" type="curve" smooth="yes"/>
      <point x="1083.17" y="1162"/>
      <point x="1088" y="1144.33"/>
      <point x="1088" y="1119" type="curve" smooth="yes"/>
      <point x="1088" y="962" type="line" smooth="yes"/>
      <point x="1088" y="938.667"/>
      <point x="1082.5" y="922"/>
      <point x="1071.5" y="912" type="curve" smooth="yes"/>
      <point x="1060.5" y="902"/>
      <point x="1041" y="897"/>
      <point x="1013" y="897" type="curve" smooth="yes"/>
      <point x="985" y="897"/>
      <point x="965.5" y="902"/>
      <point x="954.5" y="912" type="curve" smooth="yes"/>
      <point x="943.5" y="922"/>
      <point x="938" y="938.667"/>
      <point x="938" y="962" type="curve" smooth="yes"/>
      <point x="938" y="1051" type="line"/>
      <point x="415" y="1051" type="line"/>
      <point x="415" y="714" type="line"/>
      <point x="672" y="714" type="line" smooth="yes"/>
      <point x="739.333" y="714"/>
      <point x="799.167" y="705.667"/>
      <point x="851.5" y="689" type="curve" smooth="yes"/>
      <point x="903.833" y="672.333"/>
      <point x="948" y="648.5"/>
      <point x="984" y="617.5" type="curve" smooth="yes"/>
      <point x="1020" y="586.5"/>
      <point x="1047.33" y="549.167"/>
      <point x="1066" y="505.5" type="curve" smooth="yes"/>
      <point x="1084.67" y="461.833"/>
      <point x="1094" y="413"/>
      <point x="1094" y="359" type="curve" smooth="yes"/>
      <point x="1094" y="305"/>
      <point x="1084.67" y="256"/>
      <point x="1066" y="212" type="curve" smooth="yes"/>
      <point x="1047.33" y="168"/>
      <point x="1020" y="130.167"/>
      <point x="984" y="98.5" type="curve" smooth="yes"/>
      <point x="948" y="66.8333"/>
      <point x="903.833" y="42.5"/>
      <point x="851.5" y="25.5" type="curve" smooth="yes"/>
      <point x="799.167" y="8.5"/>
      <point x="739.333" y="0"/>
      <point x="672" y="0" type="curve" smooth="yes"/>
      <point x="143" y="0" type="line" smooth="yes"/>
      <point x="120.333" y="0"/>
      <point x="104.167" y="5"/>
      <point x="94.5" y="15" type="curve" smooth="yes"/>
      <point x="84.8333" y="25"/>
      <point x="80" y="42.6667"/>
      <point x="80" y="68" type="curve" smooth="yes"/>
      <point x="80" y="93.3333"/>
      <point x="84.8333" y="111"/>
      <point x="94.5" y="121" type="curve" smooth="yes"/>
      <point x="104.167" y="131"/>
      <point x="120.333" y="136"/>
      <point x="143" y="136" type="curve" smooth="yes"/>
      <point x="265" y="136" type="line"/>
      <point x="265" y="1051" type="line"/>
      <point x="143" y="1051" type="line" smooth="yes"/>
      <point x="120.333" y="1051"/>
      <point x="104.167" y="1056"/>
      <point x="94.5" y="1066" type="curve" smooth="yes"/>
      <point x="84.8333" y="1076"/>
      <point x="80" y="1093.67"/>
      <point x="80" y="1119" type="curve" smooth="yes"/>
      <point x="80" y="1144.33"/>
      <point x="84.8333" y="1162"/>
      <point x="94.5" y="1172" type="curve" smooth="yes"/>
      <point x="104.167" y="1182"/>
      <point x="120.333" y="1187"/>
    </contour>
    <contour>
      <point x="415" y="578" type="line"/>
      <point x="415" y="136" type="line"/>
      <point x="651" y="136" type="line" smooth="yes"/>
      <point x="745.667" y="136"/>
      <point x="816.833" y="155.333"/>
      <point x="864.5" y="194" type="curve" smooth="yes"/>
      <point x="912.167" y="232.667"/>
      <point x="936" y="287.667"/>
      <point x="936" y="359" type="curve" smooth="yes"/>
      <point x="936" y="429"/>
      <point x="912.167" y="483"/>
      <point x="864.5" y="521" type="curve" smooth="yes"/>
      <point x="816.833" y="559"/>
      <point x="745.667" y="578"/>
      <point x="651" y="578" type="curve" smooth="yes"/>
    </contour>
  </outline>
</glyph>
<glyph name="uni0183" format="1">
  <advance width="1228"/>
  <unicode hex="0183"/>
  <outline>
    <contour>
      <point x="352" y="402" type="curve" smooth="yes"/>
      <point x="352" y="358"/>
      <point x="359.667" y="318.833"/>
      <point x="375" y="284.5" type="curve" smooth="yes"/>
      <point x="390.333" y="250.167"/>
      <point x="411.667" y="221.333"/>
      <point x="439" y="198" type="curve" smooth="yes"/>
      <point x="466.333" y="174.667"/>
      <point x="498.833" y="156.833"/>
      <point x="536.5" y="144.5" type="curve" smooth="yes"/>
      <point x="574.167" y="132.167"/>
      <point x="615" y="126"/>
      <point x="659" y="126" type="curve" smooth="yes"/>
      <point x="704.333" y="126"/>
      <point x="744.667" y="132.833"/>
      <point x="780" y="146.5" type="curve" smooth="yes"/>
      <point x="815.333" y="160.167"/>
      <point x="845" y="179.167"/>
      <point x="869" y="203.5" type="curve" smooth="yes"/>
      <point x="893" y="227.833"/>
      <point x="911.333" y="257"/>
      <point x="924" y="291" type="curve" smooth="yes"/>
      <point x="936.667" y="325"/>
      <point x="943" y="362"/>
      <point x="943" y="402" type="curve" smooth="yes"/>
      <point x="943" y="442"/>
      <point x="936.667" y="479"/>
      <point x="924" y="513" type="curve" smooth="yes"/>
      <point x="911.333" y="547"/>
      <point x="893" y="576.167"/>
      <point x="869" y="600.5" type="curve" smooth="yes"/>
      <point x="845" y="624.833"/>
      <point x="815.333" y="643.833"/>
      <point x="780" y="657.5" type="curve" smooth="yes"/>
      <point x="744.667" y="671.167"/>
      <point x="704.333" y="678"/>
      <point x="659" y="678" type="curve" smooth="yes"/>
      <point x="615" y="678"/>
      <point x="574.167" y="671.833"/>
      <point x="536.5" y="659.5" type="curve" smooth="yes"/>
      <point x="498.833" y="647.167"/>
      <point x="466.333" y="629.333"/>
      <point x="439" y="606" type="curve" smooth="yes"/>
      <point x="411.667" y="582.667"/>
      <point x="390.333" y="553.833"/>
      <point x="375" y="519.5" type="curve" smooth="yes"/>
      <point x="359.667" y="485.167"/>
      <point x="352" y="446"/>
    </contour>
    <contour>
      <point x="962" y="1187" type="line" smooth="yes"/>
      <point x="984.667" y="1187"/>
      <point x="1000.83" y="1182"/>
      <point x="1010.5" y="1172" type="curve" smooth="yes"/>
      <point x="1020.17" y="1162"/>
      <point x="1025" y="1144.33"/>
      <point x="1025" y="1119" type="curve" smooth="yes"/>
      <point x="1025" y="1005" type="line" smooth="yes"/>
      <point x="1025" y="981.667"/>
      <point x="1019.5" y="965"/>
      <point x="1008.5" y="955" type="curve" smooth="yes"/>
      <point x="997.5" y="945"/>
      <point x="978" y="940"/>
      <point x="950" y="940" type="curve" smooth="yes"/>
      <point x="922" y="940"/>
      <point x="902.5" y="945"/>
      <point x="891.5" y="955" type="curve" smooth="yes"/>
      <point x="880.5" y="965"/>
      <point x="875" y="981.667"/>
      <point x="875" y="1005" type="curve" smooth="yes"/>
      <point x="875" y="1051" type="line"/>
      <point x="352" y="1051" type="line"/>
      <point x="352" y="682" type="line"/>
      <point x="392" y="728"/>
      <point x="438.167" y="763.5"/>
      <point x="490.5" y="788.5" type="curve" smooth="yes"/>
      <point x="542.833" y="813.5"/>
      <point x="602.333" y="826"/>
      <point x="669" y="826" type="curve" smooth="yes"/>
      <point x="731" y="826"/>
      <point x="788.333" y="816.333"/>
      <point x="841" y="797" type="curve" smooth="yes"/>
      <point x="893.667" y="777.667"/>
      <point x="939.167" y="749.833"/>
      <point x="977.5" y="713.5" type="curve" smooth="yes"/>
      <point x="1015.83" y="677.167"/>
      <point x="1046" y="632.833"/>
      <point x="1068" y="580.5" type="curve" smooth="yes"/>
      <point x="1090" y="528.167"/>
      <point x="1101" y="468.667"/>
      <point x="1101" y="402" type="curve" smooth="yes"/>
      <point x="1101" y="335.333"/>
      <point x="1090" y="275.833"/>
      <point x="1068" y="223.5" type="curve" smooth="yes"/>
      <point x="1046" y="171.167"/>
      <point x="1015.83" y="126.833"/>
      <point x="977.5" y="90.5" type="curve" smooth="yes"/>
      <point x="939.167" y="54.1667"/>
      <point x="893.667" y="26.3333"/>
      <point x="841" y="7" type="curve" smooth="yes"/>
      <point x="788.333" y="-12.3333"/>
      <point x="731" y="-22"/>
      <point x="669" y="-22" type="curve" smooth="yes"/>
      <point x="602.333" y="-22"/>
      <point x="541.5" y="-8.33333"/>
      <point x="486.5" y="19" type="curve" smooth="yes"/>
      <point x="431.5" y="46.3333"/>
      <point x="383.333" y="85"/>
      <point x="342" y="135" type="curve"/>
      <point x="342" y="68" type="line" smooth="yes"/>
      <point x="342" y="42.6667"/>
      <point x="337.167" y="25"/>
      <point x="327.5" y="15" type="curve" smooth="yes"/>
      <point x="317.833" y="5"/>
      <point x="301.667" y="0"/>
      <point x="279" y="0" type="curve" smooth="yes"/>
      <point x="120" y="0" type="line" smooth="yes"/>
      <point x="97.3333" y="0"/>
      <point x="81.1667" y="5"/>
      <point x="71.5" y="15" type="curve" smooth="yes"/>
      <point x="61.8333" y="25"/>
      <point x="57" y="42.6667"/>
      <point x="57" y="68" type="curve" smooth="yes"/>
      <point x="57" y="93.3333"/>
      <point x="61.8333" y="111"/>
      <point x="71.5" y="121" type="curve" smooth="yes"/>
      <point x="81.1667" y="131"/>
      <point x="97.3333" y="136"/>
      <point x="120" y="136" type="curve" smooth="yes"/>
      <point x="202" y="136" type="line"/>
      <point x="202" y="1051" type="line"/>
      <point x="100" y="1051" type="line" smooth="yes"/>
      <point x="77.3333" y="1051"/>
      <point x="61.1667" y="1056"/>
      <point x="51.5" y="1066" type="curve" smooth="yes"/>
      <point x="41.8333" y="1076"/>
      <point x="37" y="1093.67"/>
      <point x="37" y="1119" type="curve" smooth="yes"/>
      <point x="37" y="1144.33"/>
      <point x="41.8333" y="1162"/>
      <point x="51.5" y="1172" type="curve" smooth="yes"/>
      <point x="61.1667" y="1182"/>
      <point x="77.3333" y="1187"/>
      <point x="100" y="1187" type="curve" smooth="yes"/>
    </contour>
  </outline>
</glyph>
<glyph name="uni018A" format="1">
  <advance width="1228"/>
  <unicode hex="018A"/>
  <outline>
    <contour>
      <point x="591" y="136" type="line" smooth="yes"/>
      <point x="650.333" y="136"/>
      <point x="704" y="145.833"/>
      <point x="752" y="165.5" type="curve" smooth="yes"/>
      <point x="800" y="185.167"/>
      <point x="841" y="214.167"/>
      <point x="875" y="252.5" type="curve" smooth="yes"/>
      <point x="909" y="290.833"/>
      <point x="935.333" y="338.5"/>
      <point x="954" y="395.5" type="curve" smooth="yes"/>
      <point x="972.667" y="452.5"/>
      <point x="982" y="518.333"/>
      <point x="982" y="593" type="curve" smooth="yes"/>
      <point x="982" y="667.667"/>
      <point x="972.667" y="733.5"/>
      <point x="954" y="790.5" type="curve" smooth="yes"/>
      <point x="935.333" y="847.5"/>
      <point x="909" y="895.333"/>
      <point x="875" y="934" type="curve" smooth="yes"/>
      <point x="841" y="972.667"/>
      <point x="800" y="1001.83"/>
      <point x="752" y="1021.5" type="curve" smooth="yes"/>
      <point x="704" y="1041.17"/>
      <point x="650.333" y="1051"/>
      <point x="591" y="1051" type="curve" smooth="yes"/>
      <point x="405" y="1051" type="line"/>
      <point x="405" y="136" type="line"/>
    </contour>
    <contour>
      <point x="255" y="1411" type="line" smooth="yes"/>
      <point x="255" y="1469.67"/>
      <point x="271.667" y="1516.17"/>
      <point x="305" y="1550.5" type="curve" smooth="yes"/>
      <point x="338.333" y="1584.83"/>
      <point x="386.333" y="1602"/>
      <point x="449" y="1602" type="curve" smooth="yes"/>
      <point x="480.333" y="1602"/>
      <point x="509.667" y="1599.67"/>
      <point x="537" y="1595" type="curve" smooth="yes"/>
      <point x="564.333" y="1590.33"/>
      <point x="589.667" y="1584"/>
      <point x="613" y="1576" type="curve" smooth="yes"/>
      <point x="627.667" y="1570.67"/>
      <point x="637.5" y="1562.5"/>
      <point x="642.5" y="1551.5" type="curve" smooth="yes"/>
      <point x="647.5" y="1540.5"/>
      <point x="648.333" y="1524.67"/>
      <point x="645" y="1504" type="curve" smooth="yes"/>
      <point x="642.333" y="1485.33"/>
      <point x="636.667" y="1472.17"/>
      <point x="628" y="1464.5" type="curve" smooth="yes"/>
      <point x="619.333" y="1456.83"/>
      <point x="608.333" y="1454"/>
      <point x="595" y="1456" type="curve" smooth="yes"/>
      <point x="577.667" y="1459.33"/>
      <point x="559.333" y="1461.83"/>
      <point x="540" y="1463.5" type="curve" smooth="yes"/>
      <point x="520.667" y="1465.17"/>
      <point x="501.333" y="1466"/>
      <point x="482" y="1466" type="curve" smooth="yes"/>
      <point x="459.333" y="1466"/>
      <point x="440.833" y="1459.67"/>
      <point x="426.5" y="1447" type="curve" smooth="yes"/>
      <point x="412.167" y="1434.33"/>
      <point x="405" y="1415.67"/>
      <point x="405" y="1391" type="curve" smooth="yes"/>
      <point x="405" y="1187" type="line"/>
      <point x="614" y="1187" type="line" smooth="yes"/>
      <point x="692.667" y="1187"/>
      <point x="764.333" y="1173.33"/>
      <point x="829" y="1146" type="curve" smooth="yes"/>
      <point x="893.667" y="1118.67"/>
      <point x="949" y="1079.5"/>
      <point x="995" y="1028.5" type="curve" smooth="yes"/>
      <point x="1041" y="977.5"/>
      <point x="1076.67" y="915.333"/>
      <point x="1102" y="842" type="curve" smooth="yes"/>
      <point x="1127.33" y="768.667"/>
      <point x="1140" y="685.667"/>
      <point x="1140" y="593" type="curve" smooth="yes"/>
      <point x="1140" y="500.333"/>
      <point x="1127.33" y="417.333"/>
      <point x="1102" y="344" type="curve" smooth="yes"/>
      <point x="1076.67" y="270.667"/>
      <point x="1041" y="208.5"/>
      <point x="995" y="157.5" type="curve" smooth="yes"/>
      <point x="949" y="106.5"/>
      <point x="893.667" y="67.5"/>
      <point x="829" y="40.5" type="curve" smooth="yes"/>
      <point x="764.333" y="13.5"/>
      <point x="692.667" y="0"/>
      <point x="614" y="0" type="curve" smooth="yes"/>
      <point x="143" y="0" type="line" smooth="yes"/>
      <point x="120.333" y="0"/>
      <point x="104.167" y="5"/>
      <point x="94.5" y="15" type="curve" smooth="yes"/>
      <point x="84.8333" y="25"/>
      <point x="80" y="42.6667"/>
      <point x="80" y="68" type="curve" smooth="yes"/>
      <point x="80" y="93.3333"/>
      <point x="84.8333" y="111"/>
      <point x="94.5" y="121" type="curve" smooth="yes"/>
      <point x="104.167" y="131"/>
      <point x="120.333" y="136"/>
      <point x="143" y="136" type="curve" smooth="yes"/>
      <point x="255" y="136" type="line"/>
    </contour>
  </outline>
</glyph>
<glyph name="uni018B" format="1">
  <advance width="1228"/>
  <unicode hex="018B"/>
  <outline>
    <contour>
      <point x="1085" y="1187" type="line" smooth="yes"/>
      <point x="1107.67" y="1187"/>
      <point x="1123.83" y="1182"/>
      <point x="1133.5" y="1172" type="curve" smooth="yes"/>
      <point x="1143.17" y="1162"/>
      <point x="1148" y="1144.33"/>
      <point x="1148" y="1119" type="curve" smooth="yes"/>
      <point x="1148" y="1093.67"/>
      <point x="1143.17" y="1076"/>
      <point x="1133.5" y="1066" type="curve" smooth="yes"/>
      <point x="1123.83" y="1056"/>
      <point x="1107.67" y="1051"/>
      <point x="1085" y="1051" type="curve" smooth="yes"/>
      <point x="943" y="1051" type="line"/>
      <point x="943" y="136" type="line"/>
      <point x="1085" y="136" type="line" smooth="yes"/>
      <point x="1107.67" y="136"/>
      <point x="1123.83" y="131"/>
      <point x="1133.5" y="121" type="curve" smooth="yes"/>
      <point x="1143.17" y="111"/>
      <point x="1148" y="93.3333"/>
      <point x="1148" y="68" type="curve" smooth="yes"/>
      <point x="1148" y="42.6667"/>
      <point x="1143.17" y="25"/>
      <point x="1133.5" y="15" type="curve" smooth="yes"/>
      <point x="1123.83" y="5"/>
      <point x="1107.67" y="0"/>
      <point x="1085" y="0" type="curve" smooth="yes"/>
      <point x="528" y="0" type="line" smooth="yes"/>
      <point x="460.667" y="0"/>
      <point x="400.833" y="8.5"/>
      <point x="348.5" y="25.5" type="curve" smooth="yes"/>
      <point x="296.167" y="42.5"/>
      <point x="252" y="66.8333"/>
      <point x="216" y="98.5" type="curve" smooth="yes"/>
      <point x="180" y="130.167"/>
      <point x="152.667" y="168"/>
      <point x="134" y="212" type="curve" smooth="yes"/>
      <point x="115.333" y="256"/>
      <point x="106" y="305"/>
      <point x="106" y="359" type="curve" smooth="yes"/>
      <point x="106" y="413"/>
      <point x="115.333" y="461.833"/>
      <point x="134" y="505.5" type="curve" smooth="yes"/>
      <point x="152.667" y="549.167"/>
      <point x="180" y="586.5"/>
      <point x="216" y="617.5" type="curve" smooth="yes"/>
      <point x="252" y="648.5"/>
      <point x="296.167" y="672.333"/>
      <point x="348.5" y="689" type="curve" smooth="yes"/>
      <point x="400.833" y="705.667"/>
      <point x="460.667" y="714"/>
      <point x="528" y="714" type="curve" smooth="yes"/>
      <point x="793" y="714" type="line"/>
      <point x="793" y="1051" type="line"/>
      <point x="260" y="1051" type="line"/>
      <point x="260" y="955" type="line" smooth="yes"/>
      <point x="260" y="931.667"/>
      <point x="254.5" y="915"/>
      <point x="243.5" y="905" type="curve" smooth="yes"/>
      <point x="232.5" y="895"/>
      <point x="213" y="890"/>
      <point x="185" y="890" type="curve" smooth="yes"/>
      <point x="157" y="890"/>
      <point x="137.5" y="895"/>
      <point x="126.5" y="905" type="curve" smooth="yes"/>
      <point x="115.5" y="915"/>
      <point x="110" y="931.667"/>
      <point x="110" y="955" type="curve" smooth="yes"/>
      <point x="110" y="1119" type="line" smooth="yes"/>
      <point x="110" y="1144.33"/>
      <point x="114.833" y="1162"/>
      <point x="124.5" y="1172" type="curve" smooth="yes"/>
      <point x="134.167" y="1182"/>
      <point x="150.333" y="1187"/>
      <point x="173" y="1187" type="curve" smooth="yes"/>
    </contour>
    <contour>
      <point x="793" y="578" type="line"/>
      <point x="549" y="578" type="line" smooth="yes"/>
      <point x="454.333" y="578"/>
      <point x="383.167" y="559"/>
      <point x="335.5" y="521" type="curve" smooth="yes"/>
      <point x="287.833" y="483"/>
      <point x="264" y="429"/>
      <point x="264" y="359" type="curve" smooth="yes"/>
      <point x="264" y="287.667"/>
      <point x="287.833" y="232.667"/>
      <point x="335.5" y="194" type="curve" smooth="yes"/>
      <point x="383.167" y="155.333"/>
      <point x="454.333" y="136"/>
      <point x="549" y="136" type="curve" smooth="yes"/>
      <point x="793" y="136" type="line"/>
    </contour>
  </outline>
</glyph>
<glyph name="uni018C" format="1">
  <advance width="1228"/>
  <unicode hex="018C"/>
  <outline>
    <contour>
      <point x="323" y="982" type="curve" smooth="yes"/>
      <point x="323" y="958.667"/>
      <point x="317.5" y="942"/>
      <point x="306.5" y="932" type="curve" smooth="yes"/>
      <point x="295.5" y="922"/>
      <point x="276" y="917"/>
      <point x="248" y="917" type="curve" smooth="yes"/>
      <point x="220" y="917"/>
      <point x="200.5" y="922"/>
      <point x="189.5" y="932" type="curve" smooth="yes"/>
      <point x="178.5" y="942"/>
      <point x="173" y="958.667"/>
      <point x="173" y="982" type="curve" smooth="yes"/>
      <point x="173" y="1119" type="line" smooth="yes"/>
      <point x="173" y="1144.33"/>
      <point x="177.833" y="1162"/>
      <point x="187.5" y="1172" type="curve" smooth="yes"/>
      <point x="197.167" y="1182"/>
      <point x="213.333" y="1187"/>
      <point x="236" y="1187" type="curve" smooth="yes"/>
      <point x="963" y="1187" type="line" smooth="yes"/>
      <point x="985.667" y="1187"/>
      <point x="1001.83" y="1182"/>
      <point x="1011.5" y="1172" type="curve" smooth="yes"/>
      <point x="1021.17" y="1162"/>
      <point x="1026" y="1144.33"/>
      <point x="1026" y="1119" type="curve" smooth="yes"/>
      <point x="1026" y="136" type="line"/>
      <point x="1108" y="136" type="line" smooth="yes"/>
      <point x="1130.67" y="136"/>
      <point x="1146.83" y="131"/>
      <point x="1156.5" y="121" type="curve" smooth="yes"/>
      <point x="1166.17" y="111"/>
      <point x="1171" y="93.3333"/>
      <point x="1171" y="68" type="curve" smooth="yes"/>
      <point x="1171" y="42.6667"/>
      <point x="1166.17" y="25"/>
      <point x="1156.5" y="15" type="curve" smooth="yes"/>
      <point x="1146.83" y="5"/>
      <point x="1130.67" y="0"/>
      <point x="1108" y="0" type="curve" smooth="yes"/>
      <point x="949" y="0" type="line" smooth="yes"/>
      <point x="926.333" y="0"/>
      <point x="910.167" y="5"/>
      <point x="900.5" y="15" type="curve" smooth="yes"/>
      <point x="890.833" y="25"/>
      <point x="886" y="42.6667"/>
      <point x="886" y="68" type="curve" smooth="yes"/>
      <point x="886" y="135" type="line"/>
      <point x="844.667" y="85"/>
      <point x="796.5" y="46.3333"/>
      <point x="741.5" y="19" type="curve" smooth="yes"/>
      <point x="686.5" y="-8.33333"/>
      <point x="625.667" y="-22"/>
      <point x="559" y="-22" type="curve" smooth="yes"/>
      <point x="497" y="-22"/>
      <point x="439.667" y="-12.3333"/>
      <point x="387" y="7" type="curve" smooth="yes"/>
      <point x="334.333" y="26.3333"/>
      <point x="288.833" y="54.1667"/>
      <point x="250.5" y="90.5" type="curve" smooth="yes"/>
      <point x="212.167" y="126.833"/>
      <point x="182" y="171.167"/>
      <point x="160" y="223.5" type="curve" smooth="yes"/>
      <point x="138" y="275.833"/>
      <point x="127" y="335.333"/>
      <point x="127" y="402" type="curve" smooth="yes"/>
      <point x="127" y="468.667"/>
      <point x="138" y="528.167"/>
      <point x="160" y="580.5" type="curve" smooth="yes"/>
      <point x="182" y="632.833"/>
      <point x="212.167" y="677.167"/>
      <point x="250.5" y="713.5" type="curve" smooth="yes"/>
      <point x="288.833" y="749.833"/>
      <point x="334.333" y="777.667"/>
      <point x="387" y="797" type="curve" smooth="yes"/>
      <point x="439.667" y="816.333"/>
      <point x="497" y="826"/>
      <point x="559" y="826" type="curve" smooth="yes"/>
      <point x="625.667" y="826"/>
      <point x="685.167" y="813.5"/>
      <point x="737.5" y="788.5" type="curve" smooth="yes"/>
      <point x="789.833" y="763.5"/>
      <point x="836" y="728"/>
      <point x="876" y="682" type="curve"/>
      <point x="876" y="1051" type="line"/>
      <point x="323" y="1051" type="line"/>
      <point x="323" y="1016.5"/>
      <point x="323" y="1016.5"/>
    </contour>
    <contour>
      <point x="876" y="402" type="curve" smooth="yes"/>
      <point x="876" y="446"/>
      <point x="868.333" y="485.167"/>
      <point x="853" y="519.5" type="curve" smooth="yes"/>
      <point x="837.667" y="553.833"/>
      <point x="816.333" y="582.667"/>
      <point x="789" y="606" type="curve" smooth="yes"/>
      <point x="761.667" y="629.333"/>
      <point x="729.167" y="647.167"/>
      <point x="691.5" y="659.5" type="curve" smooth="yes"/>
      <point x="653.833" y="671.833"/>
      <point x="613" y="678"/>
      <point x="569" y="678" type="curve" smooth="yes"/>
      <point x="523.667" y="678"/>
      <point x="483.333" y="671.167"/>
      <point x="448" y="657.5" type="curve" smooth="yes"/>
      <point x="412.667" y="643.833"/>
      <point x="383" y="624.833"/>
      <point x="359" y="600.5" type="curve" smooth="yes"/>
      <point x="335" y="576.167"/>
      <point x="316.667" y="547"/>
      <point x="304" y="513" type="curve" smooth="yes"/>
      <point x="291.333" y="479"/>
      <point x="285" y="442"/>
      <point x="285" y="402" type="curve" smooth="yes"/>
      <point x="285" y="362"/>
      <point x="291.333" y="325"/>
      <point x="304" y="291" type="curve" smooth="yes"/>
      <point x="316.667" y="257"/>
      <point x="335" y="227.833"/>
      <point x="359" y="203.5" type="curve" smooth="yes"/>
      <point x="383" y="179.167"/>
      <point x="412.667" y="160.167"/>
      <point x="448" y="146.5" type="curve" smooth="yes"/>
      <point x="483.333" y="132.833"/>
      <point x="523.667" y="126"/>
      <point x="569" y="126" type="curve" smooth="yes"/>
      <point x="613" y="126"/>
      <point x="653.833" y="132.167"/>
      <point x="691.5" y="144.5" type="curve" smooth="yes"/>
      <point x="729.167" y="156.833"/>
      <point x="761.667" y="174.667"/>
      <point x="789" y="198" type="curve" smooth="yes"/>
      <point x="816.333" y="221.333"/>
      <point x="837.667" y="250.167"/>
      <point x="853" y="284.5" type="curve" smooth="yes"/>
      <point x="868.333" y="318.833"/>
      <point x="876" y="358"/>
    </contour>
  </outline>
</glyph>
<glyph name="uni018F" format="1">
  <advance width="1228"/>
  <unicode hex="018F"/>
  <outline>
    <contour>
      <point x="294" y="879" type="curve" smooth="yes"/>
      <point x="294" y="855.667"/>
      <point x="288.5" y="839"/>
      <point x="277.5" y="829" type="curve" smooth="yes"/>
      <point x="266.5" y="819"/>
      <point x="247" y="814"/>
      <point x="219" y="814" type="curve" smooth="yes"/>
      <point x="191" y="814"/>
      <point x="171.5" y="819"/>
      <point x="160.5" y="829" type="curve" smooth="yes"/>
      <point x="149.5" y="839"/>
      <point x="144" y="855.667"/>
      <point x="144" y="879" type="curve" smooth="yes"/>
      <point x="144" y="1144" type="line" smooth="yes"/>
      <point x="144" y="1167.33"/>
      <point x="149.5" y="1184"/>
      <point x="160.5" y="1194" type="curve" smooth="yes"/>
      <point x="171.5" y="1204"/>
      <point x="191" y="1209"/>
      <point x="219" y="1209" type="curve" smooth="yes"/>
      <point x="247" y="1209"/>
      <point x="266.5" y="1204"/>
      <point x="277.5" y="1194" type="curve" smooth="yes"/>
      <point x="288.5" y="1184"/>
      <point x="294" y="1167.33"/>
      <point x="294" y="1144" type="curve" smooth="yes"/>
      <point x="294" y="1116" type="line"/>
      <point x="322" y="1136.67"/>
      <point x="354" y="1154.83"/>
      <point x="390" y="1170.5" type="curve" smooth="yes"/>
      <point x="426" y="1186.17"/>
      <point x="464.167" y="1196.5"/>
      <point x="504.5" y="1201.5" type="curve" smooth="yes"/>
      <point x="544.833" y="1206.5"/>
      <point x="585.667" y="1209"/>
      <point x="627" y="1209" type="curve" smooth="yes"/>
      <point x="705" y="1209"/>
      <point x="774.167" y="1194.83"/>
      <point x="834.5" y="1166.5" type="curve" smooth="yes"/>
      <point x="894.833" y="1138.17"/>
      <point x="945.667" y="1097.5"/>
      <point x="987" y="1044.5" type="curve" smooth="yes"/>
      <point x="1028.33" y="991.5"/>
      <point x="1059.67" y="927"/>
      <point x="1081" y="851" type="curve" smooth="yes"/>
      <point x="1102.33" y="775.667"/>
      <point x="1113" y="690"/>
      <point x="1113" y="594" type="curve" smooth="yes"/>
      <point x="1113" y="501.333"/>
      <point x="1100.5" y="417"/>
      <point x="1075.5" y="341" type="curve" smooth="yes"/>
      <point x="1050.5" y="265"/>
      <point x="1015.67" y="200.167"/>
      <point x="971" y="146.5" type="curve" smooth="yes"/>
      <point x="926.333" y="92.8333"/>
      <point x="872.833" y="51.3333"/>
      <point x="810.5" y="22" type="curve" smooth="yes"/>
      <point x="748.167" y="-7.33333"/>
      <point x="680" y="-22"/>
      <point x="606" y="-22" type="curve" smooth="yes"/>
      <point x="527.333" y="-22"/>
      <point x="457.833" y="-7.5"/>
      <point x="397.5" y="21.5" type="curve" smooth="yes"/>
      <point x="337.167" y="50.5"/>
      <point x="286.167" y="90.6667"/>
      <point x="244.5" y="142" type="curve" smooth="yes"/>
      <point x="202.833" y="193.333"/>
      <point x="170.667" y="254.333"/>
      <point x="148" y="325" type="curve" smooth="yes"/>
      <point x="125.333" y="395.667"/>
      <point x="111.667" y="473.333"/>
      <point x="107" y="558" type="curve"/>
      <point x="107" y="580.667"/>
      <point x="112.167" y="596.667"/>
      <point x="122.5" y="606" type="curve" smooth="yes"/>
      <point x="132.833" y="615.333"/>
      <point x="150.333" y="620"/>
      <point x="175" y="620" type="curve" smooth="yes"/>
      <point x="945" y="620" type="line"/>
      <point x="939" y="768"/>
      <point x="909.333" y="878.833"/>
      <point x="856" y="952.5" type="curve" smooth="yes"/>
      <point x="802.667" y="1026.17"/>
      <point x="726.333" y="1063"/>
      <point x="627" y="1063" type="curve" smooth="yes"/>
      <point x="540.333" y="1063"/>
      <point x="463.167" y="1049"/>
      <point x="395.5" y="1021" type="curve" smooth="yes"/>
      <point x="327.833" y="993"/>
      <point x="294" y="945.667"/>
    </contour>
    <contour>
      <point x="606" y="124" type="curve" smooth="yes"/>
      <point x="694.667" y="124"/>
      <point x="767.167" y="155.333"/>
      <point x="823.5" y="218" type="curve" smooth="yes"/>
      <point x="879.833" y="280.667"/>
      <point x="917" y="367.667"/>
      <point x="935" y="479" type="curve"/>
      <point x="284" y="479" type="line"/>
      <point x="298.667" y="365.667"/>
      <point x="332.333" y="278.167"/>
      <point x="385" y="216.5" type="curve" smooth="yes"/>
      <point x="437.667" y="154.833"/>
      <point x="511.333" y="124"/>
    </contour>
  </outline>
</glyph>
<glyph name="uni0190" format="1">
  <advance width="1228"/>
  <unicode hex="0190"/>
  <outline>
    <contour>
      <point x="984" y="940" type="line" smooth="yes"/>
      <point x="984" y="916.667"/>
      <point x="978.5" y="900"/>
      <point x="967.5" y="890" type="curve" smooth="yes"/>
      <point x="956.5" y="880"/>
      <point x="937" y="875"/>
      <point x="909" y="875" type="curve" smooth="yes"/>
      <point x="881" y="875"/>
      <point x="861.5" y="880"/>
      <point x="850.5" y="890" type="curve" smooth="yes"/>
      <point x="839.5" y="900"/>
      <point x="834" y="916.667"/>
      <point x="834" y="940" type="curve" smooth="yes"/>
      <point x="834" y="1022" type="line"/>
      <point x="780" y="1048"/>
      <point x="714.333" y="1061"/>
      <point x="637" y="1061" type="curve" smooth="yes"/>
      <point x="564.333" y="1061"/>
      <point x="508.5" y="1044.83"/>
      <point x="469.5" y="1012.5" type="curve" smooth="yes"/>
      <point x="430.5" y="980.167"/>
      <point x="411" y="935.667"/>
      <point x="411" y="879" type="curve" smooth="yes"/>
      <point x="411" y="817.667"/>
      <point x="430.5" y="771"/>
      <point x="469.5" y="739" type="curve" smooth="yes"/>
      <point x="508.5" y="707"/>
      <point x="566.333" y="691"/>
      <point x="643" y="691" type="curve" smooth="yes"/>
      <point x="698" y="691" type="line" smooth="yes"/>
      <point x="720.667" y="691"/>
      <point x="736.833" y="686"/>
      <point x="746.5" y="676" type="curve" smooth="yes"/>
      <point x="756.167" y="666"/>
      <point x="761" y="648.333"/>
      <point x="761" y="623" type="curve" smooth="yes"/>
      <point x="761" y="597.667"/>
      <point x="756.167" y="580"/>
      <point x="746.5" y="570" type="curve" smooth="yes"/>
      <point x="736.833" y="560"/>
      <point x="720.667" y="555"/>
      <point x="698" y="555" type="curve" smooth="yes"/>
      <point x="625" y="555" type="line" smooth="yes"/>
      <point x="547" y="555"/>
      <point x="486" y="537.5"/>
      <point x="442" y="502.5" type="curve" smooth="yes"/>
      <point x="398" y="467.5"/>
      <point x="376" y="415"/>
      <point x="376" y="345" type="curve" smooth="yes"/>
      <point x="376" y="279"/>
      <point x="397.167" y="226"/>
      <point x="439.5" y="186" type="curve" smooth="yes"/>
      <point x="481.833" y="146"/>
      <point x="545.333" y="126"/>
      <point x="630" y="126" type="curve" smooth="yes"/>
      <point x="683.333" y="126"/>
      <point x="735.667" y="135.667"/>
      <point x="787" y="155" type="curve" smooth="yes"/>
      <point x="838.333" y="174.333"/>
      <point x="885.333" y="200"/>
      <point x="928" y="232" type="curve" smooth="yes"/>
      <point x="942.667" y="243.333"/>
      <point x="958" y="247.167"/>
      <point x="974" y="243.5" type="curve" smooth="yes"/>
      <point x="990" y="239.833"/>
      <point x="1005.33" y="226.333"/>
      <point x="1020" y="203" type="curve" smooth="yes"/>
      <point x="1034" y="179.667"/>
      <point x="1039.33" y="160.167"/>
      <point x="1036" y="144.5" type="curve" smooth="yes"/>
      <point x="1032.67" y="128.833"/>
      <point x="1023" y="115.333"/>
      <point x="1007" y="104" type="curve" smooth="yes"/>
      <point x="981" y="84.6667"/>
      <point x="953" y="67.3333"/>
      <point x="923" y="52" type="curve" smooth="yes"/>
      <point x="893" y="36.6667"/>
      <point x="861.833" y="23.5"/>
      <point x="829.5" y="12.5" type="curve" smooth="yes"/>
      <point x="797.167" y="1.5"/>
      <point x="764.167" y="-7"/>
      <point x="730.5" y="-13" type="curve" smooth="yes"/>
      <point x="696.833" y="-19"/>
      <point x="663.333" y="-22"/>
      <point x="630" y="-22" type="curve" smooth="yes"/>
      <point x="564.667" y="-22"/>
      <point x="506.333" y="-13"/>
      <point x="455" y="5" type="curve" smooth="yes"/>
      <point x="403.667" y="23"/>
      <point x="360.5" y="48.1667"/>
      <point x="325.5" y="80.5" type="curve" smooth="yes"/>
      <point x="290.5" y="112.833"/>
      <point x="263.833" y="151.5"/>
      <point x="245.5" y="196.5" type="curve" smooth="yes"/>
      <point x="227.167" y="241.5"/>
      <point x="218" y="291"/>
      <point x="218" y="345" type="curve" smooth="yes"/>
      <point x="218" y="415"/>
      <point x="235.167" y="474"/>
      <point x="269.5" y="522" type="curve" smooth="yes"/>
      <point x="303.833" y="570"/>
      <point x="350.667" y="606.333"/>
      <point x="410" y="631" type="curve"/>
      <point x="363.333" y="655"/>
      <point x="326.167" y="687.333"/>
      <point x="298.5" y="728" type="curve" smooth="yes"/>
      <point x="270.833" y="768.667"/>
      <point x="257" y="819"/>
      <point x="257" y="879" type="curve" smooth="yes"/>
      <point x="257" y="929"/>
      <point x="266" y="974.333"/>
      <point x="284" y="1015" type="curve" smooth="yes"/>
      <point x="302" y="1055.67"/>
      <point x="327.667" y="1090.33"/>
      <point x="361" y="1119" type="curve" smooth="yes"/>
      <point x="394.333" y="1147.67"/>
      <point x="434.333" y="1169.83"/>
      <point x="481" y="1185.5" type="curve" smooth="yes"/>
      <point x="527.667" y="1201.17"/>
      <point x="580" y="1209"/>
      <point x="638" y="1209" type="curve" smooth="yes"/>
      <point x="700" y="1209"/>
      <point x="757.333" y="1201.33"/>
      <point x="810" y="1186" type="curve" smooth="yes"/>
      <point x="820" y="1183.33"/>
      <point x="829.667" y="1180.33"/>
      <point x="839" y="1177" type="curve"/>
      <point x="841.667" y="1183.67"/>
      <point x="845.333" y="1189.33"/>
      <point x="850" y="1194" type="curve" smooth="yes"/>
      <point x="861.333" y="1204"/>
      <point x="881" y="1209"/>
      <point x="909" y="1209" type="curve" smooth="yes"/>
      <point x="937" y="1209"/>
      <point x="956.667" y="1204"/>
      <point x="968" y="1194" type="curve"/>
      <point x="978.667" y="1183.33"/>
      <point x="984" y="1166.67"/>
      <point x="984" y="1144" type="curve" smooth="yes"/>
    </contour>
  </outline>
</glyph>
<glyph name="uni0195" format="1">
  <advance width="1228"/>
  <unicode hex="0195"/>
  <outline>
    <contour>
      <point x="580" y="660" type="line" smooth="yes"/>
      <point x="580" y="704.667"/>
      <point x="572.167" y="738.833"/>
      <point x="556.5" y="762.5" type="curve" smooth="yes"/>
      <point x="540.833" y="786.167"/>
      <point x="514.667" y="798"/>
      <point x="478" y="798" type="curve" smooth="yes"/>
      <point x="452" y="798"/>
      <point x="427.833" y="789.667"/>
      <point x="405.5" y="773" type="curve" smooth="yes"/>
      <point x="383.167" y="756.333"/>
      <point x="363.5" y="733"/>
      <point x="346.5" y="703" type="curve" smooth="yes"/>
      <point x="329.5" y="673"/>
      <point x="316" y="637.167"/>
      <point x="306" y="595.5" type="curve" smooth="yes"/>
      <point x="296" y="553.833"/>
      <point x="291" y="507.667"/>
      <point x="291" y="457" type="curve" smooth="yes"/>
      <point x="291" y="136" type="line"/>
      <point x="343" y="136" type="line" smooth="yes"/>
      <point x="365.667" y="136"/>
      <point x="381.833" y="131"/>
      <point x="391.5" y="121" type="curve" smooth="yes"/>
      <point x="401.167" y="111"/>
      <point x="406" y="93.3333"/>
      <point x="406" y="68" type="curve" smooth="yes"/>
      <point x="406" y="42.6667"/>
      <point x="401.167" y="25"/>
      <point x="391.5" y="15" type="curve" smooth="yes"/>
      <point x="381.833" y="5"/>
      <point x="365.667" y="0"/>
      <point x="343" y="0" type="curve" smooth="yes"/>
      <point x="79" y="0" type="line" smooth="yes"/>
      <point x="56.3333" y="0"/>
      <point x="40.1667" y="5"/>
      <point x="30.5" y="15" type="curve" smooth="yes"/>
      <point x="20.8333" y="25"/>
      <point x="16" y="42.6667"/>
      <point x="16" y="68" type="curve" smooth="yes"/>
      <point x="16" y="93.3333"/>
      <point x="20.8333" y="111"/>
      <point x="30.5" y="121" type="curve" smooth="yes"/>
      <point x="40.1667" y="131"/>
      <point x="56.3333" y="136"/>
      <point x="79" y="136" type="curve" smooth="yes"/>
      <point x="141" y="136" type="line"/>
      <point x="141" y="1176" type="line"/>
      <point x="79" y="1176" type="line" smooth="yes"/>
      <point x="56.3333" y="1176"/>
      <point x="40.1667" y="1181"/>
      <point x="30.5" y="1191" type="curve" smooth="yes"/>
      <point x="20.8333" y="1201"/>
      <point x="16" y="1218.67"/>
      <point x="16" y="1244" type="curve" smooth="yes"/>
      <point x="16" y="1269.33"/>
      <point x="20.8333" y="1287"/>
      <point x="30.5" y="1297" type="curve" smooth="yes"/>
      <point x="40.1667" y="1307"/>
      <point x="56.3333" y="1312"/>
      <point x="79" y="1312" type="curve" smooth="yes"/>
      <point x="208" y="1312" type="line" smooth="yes"/>
      <point x="230.667" y="1312"/>
      <point x="246.833" y="1307"/>
      <point x="256.5" y="1297" type="curve" smooth="yes"/>
      <point x="266.167" y="1287"/>
      <point x="271" y="1269.33"/>
      <point x="271" y="1244" type="curve" smooth="yes"/>
      <point x="271" y="757" type="line"/>
      <point x="301.667" y="821.667"/>
      <point x="337.833" y="869.333"/>
      <point x="379.5" y="900" type="curve" smooth="yes"/>
      <point x="421.167" y="930.667"/>
      <point x="466" y="946"/>
      <point x="514" y="946" type="curve" smooth="yes"/>
      <point x="544" y="946"/>
      <point x="572" y="940.667"/>
      <point x="598" y="930" type="curve" smooth="yes"/>
      <point x="624" y="919.333"/>
      <point x="646.667" y="903"/>
      <point x="666" y="881" type="curve" smooth="yes"/>
      <point x="685.333" y="859"/>
      <point x="700.833" y="831.167"/>
      <point x="712.5" y="797.5" type="curve" smooth="yes"/>
      <point x="724.167" y="763.833"/>
      <point x="730" y="724"/>
      <point x="730" y="678" type="curve" smooth="yes"/>
      <point x="730" y="281" type="line" smooth="yes"/>
      <point x="730" y="238.333"/>
      <point x="745.167" y="201.833"/>
      <point x="775.5" y="171.5" type="curve" smooth="yes"/>
      <point x="805.833" y="141.167"/>
      <point x="842.333" y="126"/>
      <point x="885" y="126" type="curve" smooth="yes"/>
      <point x="927.667" y="126"/>
      <point x="964.167" y="141.167"/>
      <point x="994.5" y="171.5" type="curve" smooth="yes"/>
      <point x="1024.83" y="201.833"/>
      <point x="1040" y="238.333"/>
      <point x="1040" y="281" type="curve" smooth="yes"/>
      <point x="1040" y="788" type="line"/>
      <point x="968" y="788" type="line" smooth="yes"/>
      <point x="945.333" y="788"/>
      <point x="929.167" y="793"/>
      <point x="919.5" y="803" type="curve" smooth="yes"/>
      <point x="909.833" y="813"/>
      <point x="905" y="830.667"/>
      <point x="905" y="856" type="curve" smooth="yes"/>
      <point x="905" y="881.333"/>
      <point x="909.833" y="899"/>
      <point x="919.5" y="909" type="curve" smooth="yes"/>
      <point x="929.167" y="919"/>
      <point x="945.333" y="924"/>
      <point x="968" y="924" type="curve" smooth="yes"/>
      <point x="1127" y="924" type="line" smooth="yes"/>
      <point x="1149.67" y="924"/>
      <point x="1165.83" y="919"/>
      <point x="1175.5" y="909" type="curve" smooth="yes"/>
      <point x="1185.17" y="899"/>
      <point x="1190" y="881.333"/>
      <point x="1190" y="856" type="curve" smooth="yes"/>
      <point x="1190" y="281" type="line" smooth="yes"/>
      <point x="1190" y="197"/>
      <point x="1160.33" y="125.5"/>
      <point x="1101" y="66.5" type="curve" smooth="yes"/>
      <point x="1041.67" y="7.5"/>
      <point x="969.667" y="-22"/>
      <point x="885" y="-22" type="curve" smooth="yes"/>
      <point x="800.333" y="-22"/>
      <point x="728.333" y="7.5"/>
      <point x="669" y="66.5" type="curve" smooth="yes"/>
      <point x="609.667" y="125.5"/>
      <point x="580" y="197"/>
      <point x="580" y="281" type="curve" smooth="yes"/>
    </contour>
  </outline>
</glyph>
<glyph name="uni0196" format="1">
  <advance width="1228"/>
  <unicode hex="0196"/>
  <outline>
    <contour>
      <point x="689" y="215" type="line" smooth="yes"/>
      <point x="689" y="162.333"/>
      <point x="711" y="136"/>
      <point x="755" y="136" type="curve" smooth="yes"/>
      <point x="965" y="136" type="line" smooth="yes"/>
      <point x="987.667" y="136"/>
      <point x="1003.83" y="131"/>
      <point x="1013.5" y="121" type="curve" smooth="yes"/>
      <point x="1023.17" y="111"/>
      <point x="1028" y="93.3333"/>
      <point x="1028" y="68" type="curve" smooth="yes"/>
      <point x="1028" y="42.6667"/>
      <point x="1023.17" y="25"/>
      <point x="1013.5" y="15" type="curve" smooth="yes"/>
      <point x="1003.83" y="5"/>
      <point x="987.667" y="0"/>
      <point x="965" y="0" type="curve" smooth="yes"/>
      <point x="718" y="0" type="line" smooth="yes"/>
      <point x="698" y="0"/>
      <point x="678.667" y="2.5"/>
      <point x="660" y="7.5" type="curve" smooth="yes"/>
      <point x="641.333" y="12.5"/>
      <point x="624.333" y="20.3333"/>
      <point x="609" y="31" type="curve" smooth="yes"/>
      <point x="593.667" y="41.6667"/>
      <point x="581" y="54.3333"/>
      <point x="571" y="69" type="curve" smooth="yes"/>
      <point x="561" y="83.6667"/>
      <point x="553.167" y="101.833"/>
      <point x="547.5" y="123.5" type="curve" smooth="yes"/>
      <point x="541.833" y="145.167"/>
      <point x="539" y="166.333"/>
      <point x="539" y="187" type="curve" smooth="yes"/>
      <point x="539" y="1051" type="line"/>
      <point x="283" y="1051" type="line" smooth="yes"/>
      <point x="260.333" y="1051"/>
      <point x="244.167" y="1056"/>
      <point x="234.5" y="1066" type="curve" smooth="yes"/>
      <point x="224.833" y="1076"/>
      <point x="220" y="1093.67"/>
      <point x="220" y="1119" type="curve" smooth="yes"/>
      <point x="220" y="1144.33"/>
      <point x="224.833" y="1162"/>
      <point x="234.5" y="1172" type="curve" smooth="yes"/>
      <point x="244.167" y="1182"/>
      <point x="260.333" y="1187"/>
      <point x="283" y="1187" type="curve" smooth="yes"/>
      <point x="626" y="1187" type="line" smooth="yes"/>
      <point x="648.667" y="1187"/>
      <point x="664.833" y="1182"/>
      <point x="674.5" y="1172" type="curve" smooth="yes"/>
      <point x="684.167" y="1162"/>
      <point x="689" y="1144.33"/>
      <point x="689" y="1119" type="curve" smooth="yes"/>
    </contour>
  </outline>
</glyph>
<glyph name="uni019D" format="1">
  <advance width="1228"/>
  <unicode hex="019D"/>
  <outline>
    <contour>
      <point x="210" y="1051" type="line"/>
      <point x="133" y="1051" type="line" smooth="yes"/>
      <point x="110.333" y="1051"/>
      <point x="94.1667" y="1056"/>
      <point x="84.5" y="1066" type="curve" smooth="yes"/>
      <point x="74.8333" y="1076"/>
      <point x="70" y="1093.67"/>
      <point x="70" y="1119" type="curve" smooth="yes"/>
      <point x="70" y="1144.33"/>
      <point x="74.8333" y="1162"/>
      <point x="84.5" y="1172" type="curve" smooth="yes"/>
      <point x="94.1667" y="1182"/>
      <point x="110.333" y="1187"/>
      <point x="133" y="1187" type="curve" smooth="yes"/>
      <point x="357" y="1187" type="line" smooth="yes"/>
      <point x="384.333" y="1187"/>
      <point x="403.333" y="1177.67"/>
      <point x="414" y="1159" type="curve" smooth="yes"/>
      <point x="888" y="311" type="line"/>
      <point x="888" y="1051" type="line"/>
      <point x="771" y="1051" type="line" smooth="yes"/>
      <point x="748.333" y="1051"/>
      <point x="732.167" y="1056"/>
      <point x="722.5" y="1066" type="curve" smooth="yes"/>
      <point x="712.833" y="1076"/>
      <point x="708" y="1093.67"/>
      <point x="708" y="1119" type="curve" smooth="yes"/>
      <point x="708" y="1144.33"/>
      <point x="712.833" y="1162"/>
      <point x="722.5" y="1172" type="curve" smooth="yes"/>
      <point x="732.167" y="1182"/>
      <point x="748.333" y="1187"/>
      <point x="771" y="1187" type="curve" smooth="yes"/>
      <point x="1095" y="1187" type="line" smooth="yes"/>
      <point x="1117.67" y="1187"/>
      <point x="1133.83" y="1182"/>
      <point x="1143.5" y="1172" type="curve" smooth="yes"/>
      <point x="1153.17" y="1162"/>
      <point x="1158" y="1144.33"/>
      <point x="1158" y="1119" type="curve" smooth="yes"/>
      <point x="1158" y="1093.67"/>
      <point x="1153.17" y="1076"/>
      <point x="1143.5" y="1066" type="curve" smooth="yes"/>
      <point x="1133.83" y="1056"/>
      <point x="1117.67" y="1051"/>
      <point x="1095" y="1051" type="curve" smooth="yes"/>
      <point x="1038" y="1051" type="line"/>
      <point x="1038" y="37" type="line" smooth="yes"/>
      <point x="1038" y="19.6667"/>
      <point x="1032" y="5.5"/>
      <point x="1020" y="-5.5" type="curve" smooth="yes"/>
      <point x="1008" y="-16.5"/>
      <point x="989" y="-22"/>
      <point x="963" y="-22" type="curve" smooth="yes"/>
      <point x="943.667" y="-22"/>
      <point x="927.333" y="-17.1667"/>
      <point x="914" y="-7.5" type="curve" smooth="yes"/>
      <point x="900.667" y="2.16667"/>
      <point x="889" y="15.6667"/>
      <point x="879" y="33" type="curve" smooth="yes"/>
      <point x="360" y="960" type="line"/>
      <point x="360" y="-224" type="line" smooth="yes"/>
      <point x="360" y="-282.667"/>
      <point x="343.333" y="-329.167"/>
      <point x="310" y="-363.5" type="curve" smooth="yes"/>
      <point x="276.667" y="-397.833"/>
      <point x="228.667" y="-415"/>
      <point x="166" y="-415" type="curve" smooth="yes"/>
      <point x="134.667" y="-415"/>
      <point x="105.333" y="-412.667"/>
      <point x="78" y="-408" type="curve" smooth="yes"/>
      <point x="50.6667" y="-403.333"/>
      <point x="25.3333" y="-397"/>
      <point x="2" y="-389" type="curve" smooth="yes"/>
      <point x="-12.6667" y="-383.667"/>
      <point x="-22.5" y="-375.5"/>
      <point x="-27.5" y="-364.5" type="curve" smooth="yes"/>
      <point x="-32.5" y="-353.5"/>
      <point x="-33.3333" y="-337.667"/>
      <point x="-30" y="-317" type="curve" smooth="yes"/>
      <point x="-27.3333" y="-298.333"/>
      <point x="-21.6667" y="-285.167"/>
      <point x="-13" y="-277.5" type="curve" smooth="yes"/>
      <point x="-4.33333" y="-269.833"/>
      <point x="6.66667" y="-267"/>
      <point x="20" y="-269" type="curve" smooth="yes"/>
      <point x="37.3333" y="-272.333"/>
      <point x="55.6667" y="-274.833"/>
      <point x="75" y="-276.5" type="curve" smooth="yes"/>
      <point x="94.3333" y="-278.167"/>
      <point x="113.667" y="-279"/>
      <point x="133" y="-279" type="curve" smooth="yes"/>
      <point x="155.667" y="-279"/>
      <point x="174.167" y="-272.667"/>
      <point x="188.5" y="-260" type="curve" smooth="yes"/>
      <point x="202.833" y="-247.333"/>
      <point x="210" y="-228.667"/>
      <point x="210" y="-204" type="curve" smooth="yes"/>
    </contour>
  </outline>
</glyph>
<glyph name="uni01A4" format="1">
  <advance width="1228"/>
  <unicode hex="01A4"/>
  <outline>
    <contour>
      <point x="305" y="1411" type="line" smooth="yes"/>
      <point x="305" y="1469.67"/>
      <point x="321.667" y="1516.17"/>
      <point x="355" y="1550.5" type="curve" smooth="yes"/>
      <point x="388.333" y="1584.83"/>
      <point x="436.333" y="1602"/>
      <point x="499" y="1602" type="curve" smooth="yes"/>
      <point x="530.333" y="1602"/>
      <point x="559.667" y="1599.67"/>
      <point x="587" y="1595" type="curve" smooth="yes"/>
      <point x="614.333" y="1590.33"/>
      <point x="639.667" y="1584"/>
      <point x="663" y="1576" type="curve" smooth="yes"/>
      <point x="677.667" y="1570.67"/>
      <point x="687.5" y="1562.5"/>
      <point x="692.5" y="1551.5" type="curve" smooth="yes"/>
      <point x="697.5" y="1540.5"/>
      <point x="698.333" y="1524.67"/>
      <point x="695" y="1504" type="curve" smooth="yes"/>
      <point x="692.333" y="1485.33"/>
      <point x="686.667" y="1472.17"/>
      <point x="678" y="1464.5" type="curve" smooth="yes"/>
      <point x="669.333" y="1456.83"/>
      <point x="658.333" y="1454"/>
      <point x="645" y="1456" type="curve" smooth="yes"/>
      <point x="627.667" y="1459.33"/>
      <point x="609.333" y="1461.83"/>
      <point x="590" y="1463.5" type="curve" smooth="yes"/>
      <point x="570.667" y="1465.17"/>
      <point x="551.333" y="1466"/>
      <point x="532" y="1466" type="curve" smooth="yes"/>
      <point x="509.333" y="1466"/>
      <point x="490.833" y="1459.67"/>
      <point x="476.5" y="1447" type="curve" smooth="yes"/>
      <point x="462.167" y="1434.33"/>
      <point x="455" y="1415.67"/>
      <point x="455" y="1391" type="curve" smooth="yes"/>
      <point x="455" y="1308"/>
      <point x="455" y="1308"/>
      <point x="455" y="1187" type="curve"/>
      <point x="690" y="1187" type="line" smooth="yes"/>
      <point x="757.333" y="1187"/>
      <point x="817.167" y="1177.83"/>
      <point x="869.5" y="1159.5" type="curve" smooth="yes"/>
      <point x="921.833" y="1141.17"/>
      <point x="966" y="1115.33"/>
      <point x="1002" y="1082" type="curve" smooth="yes"/>
      <point x="1038" y="1048.67"/>
      <point x="1065.33" y="1008.83"/>
      <point x="1084" y="962.5" type="curve" smooth="yes"/>
      <point x="1102.67" y="916.167"/>
      <point x="1112" y="864.667"/>
      <point x="1112" y="808" type="curve" smooth="yes"/>
      <point x="1112" y="752"/>
      <point x="1102.67" y="700.833"/>
      <point x="1084" y="654.5" type="curve" smooth="yes"/>
      <point x="1065.33" y="608.167"/>
      <point x="1038" y="568.667"/>
      <point x="1002" y="536" type="curve" smooth="yes"/>
      <point x="966" y="503.333"/>
      <point x="921.833" y="478"/>
      <point x="869.5" y="460" type="curve" smooth="yes"/>
      <point x="817.167" y="442"/>
      <point x="757.333" y="433"/>
      <point x="690" y="433" type="curve" smooth="yes"/>
      <point x="455" y="433" type="line"/>
      <point x="455" y="136" type="line"/>
      <point x="695" y="136" type="line" smooth="yes"/>
      <point x="717.667" y="136"/>
      <point x="733.833" y="131"/>
      <point x="743.5" y="121" type="curve" smooth="yes"/>
      <point x="753.167" y="111"/>
      <point x="758" y="93.3333"/>
      <point x="758" y="68" type="curve" smooth="yes"/>
      <point x="758" y="42.6667"/>
      <point x="753.167" y="25"/>
      <point x="743.5" y="15" type="curve" smooth="yes"/>
      <point x="733.833" y="5"/>
      <point x="717.667" y="0"/>
      <point x="695" y="0" type="curve" smooth="yes"/>
      <point x="143" y="0" type="line" smooth="yes"/>
      <point x="120.333" y="0"/>
      <point x="104.167" y="5"/>
      <point x="94.5" y="15" type="curve" smooth="yes"/>
      <point x="84.8333" y="25"/>
      <point x="80" y="42.6667"/>
      <point x="80" y="68" type="curve" smooth="yes"/>
      <point x="80" y="93.3333"/>
      <point x="84.8333" y="111"/>
      <point x="94.5" y="121" type="curve" smooth="yes"/>
      <point x="104.167" y="131"/>
      <point x="120.333" y="136"/>
      <point x="143" y="136" type="curve" smooth="yes"/>
      <point x="305" y="136" type="line"/>
    </contour>
    <contour>
      <point x="669" y="569" type="line" smooth="yes"/>
      <point x="763" y="569"/>
      <point x="834" y="590.167"/>
      <point x="882" y="632.5" type="curve" smooth="yes"/>
      <point x="930" y="674.833"/>
      <point x="954" y="733.333"/>
      <point x="954" y="808" type="curve" smooth="yes"/>
      <point x="954" y="884"/>
      <point x="930" y="943.5"/>
      <point x="882" y="986.5" type="curve" smooth="yes"/>
      <point x="834" y="1029.5"/>
      <point x="763" y="1051"/>
      <point x="669" y="1051" type="curve" smooth="yes"/>
      <point x="455" y="1051" type="line"/>
      <point x="455" y="569" type="line"/>
    </contour>
  </outline>
</glyph>
<glyph name="uni01A5" format="1">
  <advance width="1228"/>
  <unicode hex="01A5"/>
  <outline>
    <contour>
      <point x="202" y="1148" type="line" smooth="yes"/>
      <point x="202" y="1206.67"/>
      <point x="217.833" y="1253.17"/>
      <point x="249.5" y="1287.5" type="curve" smooth="yes"/>
      <point x="281.167" y="1321.83"/>
      <point x="326.667" y="1339"/>
      <point x="386" y="1339" type="curve" smooth="yes"/>
      <point x="417.333" y="1339"/>
      <point x="446.667" y="1336.67"/>
      <point x="474" y="1332" type="curve" smooth="yes"/>
      <point x="501.333" y="1327.33"/>
      <point x="526.667" y="1321"/>
      <point x="550" y="1313" type="curve" smooth="yes"/>
      <point x="564.667" y="1307.67"/>
      <point x="574.5" y="1299.5"/>
      <point x="579.5" y="1288.5" type="curve" smooth="yes"/>
      <point x="584.5" y="1277.5"/>
      <point x="585.333" y="1261.67"/>
      <point x="582" y="1241" type="curve" smooth="yes"/>
      <point x="579.333" y="1222.33"/>
      <point x="573.667" y="1209.17"/>
      <point x="565" y="1201.5" type="curve" smooth="yes"/>
      <point x="556.333" y="1193.83"/>
      <point x="545.333" y="1191"/>
      <point x="532" y="1193" type="curve" smooth="yes"/>
      <point x="514.667" y="1196.33"/>
      <point x="496.333" y="1198.83"/>
      <point x="477" y="1200.5" type="curve" smooth="yes"/>
      <point x="457.667" y="1202.17"/>
      <point x="438.333" y="1203"/>
      <point x="419" y="1203" type="curve" smooth="yes"/>
      <point x="396.333" y="1203"/>
      <point x="377.833" y="1196.67"/>
      <point x="363.5" y="1184" type="curve" smooth="yes"/>
      <point x="349.167" y="1171.33"/>
      <point x="342" y="1152.67"/>
      <point x="342" y="1128" type="curve" smooth="yes"/>
      <point x="342" y="1128"/>
      <point x="342" y="1128"/>
      <point x="342" y="776" type="curve"/>
      <point x="383.333" y="830"/>
      <point x="431.5" y="871.833"/>
      <point x="486.5" y="901.5" type="curve" smooth="yes"/>
      <point x="541.5" y="931.167"/>
      <point x="602.333" y="946"/>
      <point x="669" y="946" type="curve" smooth="yes"/>
      <point x="731" y="946"/>
      <point x="788.333" y="935.5"/>
      <point x="841" y="914.5" type="curve" smooth="yes"/>
      <point x="893.667" y="893.5"/>
      <point x="939.167" y="863.333"/>
      <point x="977.5" y="824" type="curve" smooth="yes"/>
      <point x="1015.83" y="784.667"/>
      <point x="1046" y="736.667"/>
      <point x="1068" y="680" type="curve" smooth="yes"/>
      <point x="1090" y="623.333"/>
      <point x="1101" y="559"/>
      <point x="1101" y="487" type="curve" smooth="yes"/>
      <point x="1101" y="415"/>
      <point x="1090" y="350.667"/>
      <point x="1068" y="294" type="curve" smooth="yes"/>
      <point x="1046" y="237.333"/>
      <point x="1015.83" y="189.333"/>
      <point x="977.5" y="150" type="curve" smooth="yes"/>
      <point x="939.167" y="110.667"/>
      <point x="893.667" y="80.5"/>
      <point x="841" y="59.5" type="curve" smooth="yes"/>
      <point x="788.333" y="38.5"/>
      <point x="731" y="28"/>
      <point x="669" y="28" type="curve" smooth="yes"/>
      <point x="602.333" y="28"/>
      <point x="542.833" y="41.5"/>
      <point x="490.5" y="68.5" type="curve" smooth="yes"/>
      <point x="438.167" y="95.5"/>
      <point x="392" y="134"/>
      <point x="352" y="184" type="curve"/>
      <point x="352" y="-257" type="line"/>
      <point x="574" y="-257" type="line" smooth="yes"/>
      <point x="596.667" y="-257"/>
      <point x="612.833" y="-262"/>
      <point x="622.5" y="-272" type="curve" smooth="yes"/>
      <point x="632.167" y="-282"/>
      <point x="637" y="-299.667"/>
      <point x="637" y="-325" type="curve" smooth="yes"/>
      <point x="637" y="-350.333"/>
      <point x="632.167" y="-368"/>
      <point x="622.5" y="-378" type="curve" smooth="yes"/>
      <point x="612.833" y="-388"/>
      <point x="596.667" y="-393"/>
      <point x="574" y="-393" type="curve" smooth="yes"/>
      <point x="90" y="-393" type="line" smooth="yes"/>
      <point x="67.3333" y="-393"/>
      <point x="51.1667" y="-388"/>
      <point x="41.5" y="-378" type="curve" smooth="yes"/>
      <point x="31.8333" y="-368"/>
      <point x="27" y="-350.333"/>
      <point x="27" y="-325" type="curve" smooth="yes"/>
      <point x="27" y="-299.667"/>
      <point x="31.8333" y="-282"/>
      <point x="41.5" y="-272" type="curve" smooth="yes"/>
      <point x="51.1667" y="-262"/>
      <point x="67.3333" y="-257"/>
      <point x="90" y="-257" type="curve" smooth="yes"/>
      <point x="202" y="-257" type="line"/>
    </contour>
    <contour>
      <point x="352" y="487" type="curve" smooth="yes"/>
      <point x="352" y="437.667"/>
      <point x="359.667" y="393.667"/>
      <point x="375" y="355" type="curve" smooth="yes"/>
      <point x="390.333" y="316.333"/>
      <point x="411.667" y="283.833"/>
      <point x="439" y="257.5" type="curve" smooth="yes"/>
      <point x="466.333" y="231.167"/>
      <point x="498.833" y="211"/>
      <point x="536.5" y="197" type="curve" smooth="yes"/>
      <point x="574.167" y="183"/>
      <point x="615" y="176"/>
      <point x="659" y="176" type="curve" smooth="yes"/>
      <point x="704.333" y="176"/>
      <point x="744.667" y="183.667"/>
      <point x="780" y="199" type="curve" smooth="yes"/>
      <point x="815.333" y="214.333"/>
      <point x="845" y="235.833"/>
      <point x="869" y="263.5" type="curve" smooth="yes"/>
      <point x="893" y="291.167"/>
      <point x="911.333" y="324"/>
      <point x="924" y="362" type="curve" smooth="yes"/>
      <point x="936.667" y="400"/>
      <point x="943" y="441.667"/>
      <point x="943" y="487" type="curve" smooth="yes"/>
      <point x="943" y="532.333"/>
      <point x="936.667" y="574"/>
      <point x="924" y="612" type="curve" smooth="yes"/>
      <point x="911.333" y="650"/>
      <point x="893" y="682.833"/>
      <point x="869" y="710.5" type="curve" smooth="yes"/>
      <point x="845" y="738.167"/>
      <point x="815.333" y="759.667"/>
      <point x="780" y="775" type="curve" smooth="yes"/>
      <point x="744.667" y="790.333"/>
      <point x="704.333" y="798"/>
      <point x="659" y="798" type="curve" smooth="yes"/>
      <point x="615" y="798"/>
      <point x="574.167" y="791"/>
      <point x="536.5" y="777" type="curve" smooth="yes"/>
      <point x="498.833" y="763"/>
      <point x="466.333" y="742.833"/>
      <point x="439" y="716.5" type="curve" smooth="yes"/>
      <point x="411.667" y="690.167"/>
      <point x="390.333" y="657.667"/>
      <point x="375" y="619" type="curve" smooth="yes"/>
      <point x="359.667" y="580.333"/>
      <point x="352" y="536.333"/>
    </contour>
  </outline>
</glyph>
<glyph name="uni01A6" format="1">
  <advance width="1228"/>
  <unicode hex="01A6"/>
  <outline>
    <contour>
      <point x="409" y="924" type="line"/>
      <point x="707" y="924" type="line" smooth="yes"/>
      <point x="765" y="924"/>
      <point x="816.5" y="917.667"/>
      <point x="861.5" y="905" type="curve" smooth="yes"/>
      <point x="906.5" y="892.333"/>
      <point x="944.333" y="874.5"/>
      <point x="975" y="851.5" type="curve" smooth="yes"/>
      <point x="1005.67" y="828.5"/>
      <point x="1028.83" y="800.667"/>
      <point x="1044.5" y="768" type="curve" smooth="yes"/>
      <point x="1060.17" y="735.333"/>
      <point x="1068" y="699.333"/>
      <point x="1068" y="660" type="curve" smooth="yes"/>
      <point x="1068" y="630"/>
      <point x="1061.83" y="602.167"/>
      <point x="1049.5" y="576.5" type="curve" smooth="yes"/>
      <point x="1037.17" y="550.833"/>
      <point x="1019.67" y="528"/>
      <point x="997" y="508" type="curve" smooth="yes"/>
      <point x="974.333" y="488"/>
      <point x="946.833" y="470.833"/>
      <point x="914.5" y="456.5" type="curve" smooth="yes"/>
      <point x="882.167" y="442.167"/>
      <point x="846" y="431.333"/>
      <point x="806" y="424" type="curve"/>
      <point x="824.667" y="418"/>
      <point x="841.667" y="410.333"/>
      <point x="857" y="401" type="curve" smooth="yes"/>
      <point x="872.333" y="391.667"/>
      <point x="887.333" y="381"/>
      <point x="902" y="369" type="curve" smooth="yes"/>
      <point x="920" y="354.333"/>
      <point x="935.5" y="339.167"/>
      <point x="948.5" y="323.5" type="curve" smooth="yes"/>
      <point x="961.5" y="307.833"/>
      <point x="973" y="292.667"/>
      <point x="983" y="278" type="curve" smooth="yes"/>
      <point x="993" y="263.333"/>
      <point x="1002.67" y="248.667"/>
      <point x="1012" y="234" type="curve" smooth="yes"/>
      <point x="1027.33" y="210.667"/>
      <point x="1036.33" y="197.333"/>
      <point x="1039" y="194" type="curve" smooth="yes"/>
      <point x="1052.33" y="176.667"/>
      <point x="1066.17" y="162.667"/>
      <point x="1080.5" y="152" type="curve" smooth="yes"/>
      <point x="1094.83" y="141.333"/>
      <point x="1111" y="136"/>
      <point x="1129" y="136" type="curve" smooth="yes"/>
      <point x="1145" y="136" type="line" smooth="yes"/>
      <point x="1164.33" y="136"/>
      <point x="1178" y="131"/>
      <point x="1186" y="121" type="curve" smooth="yes"/>
      <point x="1194" y="111"/>
      <point x="1198" y="93.3333"/>
      <point x="1198" y="68" type="curve" smooth="yes"/>
      <point x="1198" y="42.6667"/>
      <point x="1193.33" y="25"/>
      <point x="1184" y="15" type="curve" smooth="yes"/>
      <point x="1174.67" y="5"/>
      <point x="1159" y="0"/>
      <point x="1137" y="0" type="curve" smooth="yes"/>
      <point x="1069" y="0" type="line" smooth="yes"/>
      <point x="1041" y="0"/>
      <point x="1013.33" y="10"/>
      <point x="986" y="30" type="curve" smooth="yes"/>
      <point x="972" y="40.6667"/>
      <point x="942.667" y="76.6667"/>
      <point x="898" y="138" type="curve" smooth="yes"/>
      <point x="887.333" y="152.667"/>
      <point x="877" y="167.667"/>
      <point x="867" y="183" type="curve" smooth="yes"/>
      <point x="857" y="198.333"/>
      <point x="847" y="213.5"/>
      <point x="837" y="228.5" type="curve" smooth="yes"/>
      <point x="827" y="243.5"/>
      <point x="816.667" y="258"/>
      <point x="806" y="272" type="curve" smooth="yes"/>
      <point x="795.333" y="286"/>
      <point x="784" y="299"/>
      <point x="772" y="311" type="curve" smooth="yes"/>
      <point x="757.333" y="325.667"/>
      <point x="742.333" y="337.833"/>
      <point x="727" y="347.5" type="curve" smooth="yes"/>
      <point x="711.667" y="357.167"/>
      <point x="695" y="364.833"/>
      <point x="677" y="370.5" type="curve" smooth="yes"/>
      <point x="659" y="376.167"/>
      <point x="639.5" y="380.167"/>
      <point x="618.5" y="382.5" type="curve" smooth="yes"/>
      <point x="597.5" y="384.833"/>
      <point x="574" y="386"/>
      <point x="548" y="386" type="curve" smooth="yes"/>
      <point x="407" y="386" type="line"/>
      <point x="407" y="136" type="line"/>
      <point x="529" y="136" type="line" smooth="yes"/>
      <point x="549" y="136"/>
      <point x="563.167" y="131"/>
      <point x="571.5" y="121" type="curve" smooth="yes"/>
      <point x="579.833" y="111"/>
      <point x="584" y="93.3333"/>
      <point x="584" y="68" type="curve" smooth="yes"/>
      <point x="584" y="42.6667"/>
      <point x="579.667" y="25"/>
      <point x="571" y="15" type="curve" smooth="yes"/>
      <point x="562.333" y="5"/>
      <point x="547.667" y="0"/>
      <point x="527" y="0" type="curve" smooth="yes"/>
      <point x="149" y="0" type="line" smooth="yes"/>
      <point x="128.333" y="0"/>
      <point x="113.667" y="5"/>
      <point x="105" y="15" type="curve" smooth="yes"/>
      <point x="96.3333" y="25"/>
      <point x="92" y="42.6667"/>
      <point x="92" y="68" type="curve" smooth="yes"/>
      <point x="92" y="93.3333"/>
      <point x="96.1667" y="111"/>
      <point x="104.5" y="121" type="curve" smooth="yes"/>
      <point x="112.833" y="131"/>
      <point x="126.667" y="136"/>
      <point x="146" y="136" type="curve" smooth="yes"/>
      <point x="257" y="136" type="line"/>
      <point x="257" y="1051" type="line"/>
      <point x="135" y="1051" type="line" smooth="yes"/>
      <point x="115" y="1051"/>
      <point x="100.833" y="1056"/>
      <point x="92.5" y="1066" type="curve" smooth="yes"/>
      <point x="84.1667" y="1076"/>
      <point x="80" y="1093.67"/>
      <point x="80" y="1119" type="curve" smooth="yes"/>
      <point x="80" y="1144.33"/>
      <point x="84.3333" y="1162"/>
      <point x="93" y="1172" type="curve" smooth="yes"/>
      <point x="101.667" y="1182"/>
      <point x="116.333" y="1187"/>
      <point x="137" y="1187" type="curve" smooth="yes"/>
      <point x="515" y="1187" type="line" smooth="yes"/>
      <point x="535.667" y="1187"/>
      <point x="550.333" y="1182"/>
      <point x="559" y="1172" type="curve" smooth="yes"/>
      <point x="567.667" y="1162"/>
      <point x="572" y="1144.33"/>
      <point x="572" y="1119" type="curve" smooth="yes"/>
      <point x="572" y="1093.67"/>
      <point x="567.833" y="1076"/>
      <point x="559.5" y="1066" type="curve" smooth="yes"/>
      <point x="551.167" y="1056"/>
      <point x="537.333" y="1051"/>
      <point x="518" y="1051" type="curve" smooth="yes"/>
      <point x="407" y="1051" type="line"/>
    </contour>
    <contour>
      <point x="407" y="788" type="line"/>
      <point x="407" y="523" type="line"/>
      <point x="674" y="523" type="line" smooth="yes"/>
      <point x="710" y="523"/>
      <point x="742.667" y="525.5"/>
      <point x="772" y="530.5" type="curve" smooth="yes"/>
      <point x="801.333" y="535.5"/>
      <point x="826.167" y="543.167"/>
      <point x="846.5" y="553.5" type="curve" smooth="yes"/>
      <point x="866.833" y="563.833"/>
      <point x="882.5" y="577.5"/>
      <point x="893.5" y="594.5" type="curve" smooth="yes"/>
      <point x="904.5" y="611.5"/>
      <point x="910" y="631.667"/>
      <point x="910" y="655" type="curve" smooth="yes"/>
      <point x="910" y="697.667"/>
      <point x="890.333" y="730.5"/>
      <point x="851" y="753.5" type="curve" smooth="yes"/>
      <point x="811.667" y="776.5"/>
      <point x="755.333" y="788"/>
      <point x="682" y="788" type="curve" smooth="yes"/>
    </contour>
  </outline>
</glyph>
<glyph name="uni01A7" format="1">
  <advance width="1228"/>
  <unicode hex="01A7"/>
  <outline>
    <contour>
      <point x="920" y="43" type="curve" smooth="yes"/>
      <point x="920" y="43"/>
      <point x="920" y="43"/>
      <point x="920" y="121" type="curve"/>
      <point x="878" y="73.6667"/>
      <point x="828.5" y="38"/>
      <point x="771.5" y="14" type="curve" smooth="yes"/>
      <point x="714.5" y="-10"/>
      <point x="652.667" y="-22"/>
      <point x="586" y="-22" type="curve" smooth="yes"/>
      <point x="517.333" y="-22"/>
      <point x="456.667" y="-13.5"/>
      <point x="404" y="3.5" type="curve" smooth="yes"/>
      <point x="351.333" y="20.5"/>
      <point x="307.167" y="44.3333"/>
      <point x="271.5" y="75" type="curve" smooth="yes"/>
      <point x="235.833" y="105.667"/>
      <point x="208.833" y="142.5"/>
      <point x="190.5" y="185.5" type="curve" smooth="yes"/>
      <point x="172.167" y="228.5"/>
      <point x="163" y="275.667"/>
      <point x="163" y="327" type="curve" smooth="yes"/>
      <point x="163" y="371.667"/>
      <point x="168.5" y="410.833"/>
      <point x="179.5" y="444.5" type="curve" smooth="yes"/>
      <point x="190.5" y="478.167"/>
      <point x="205.5" y="507.5"/>
      <point x="224.5" y="532.5" type="curve" smooth="yes"/>
      <point x="243.5" y="557.5"/>
      <point x="266" y="578.667"/>
      <point x="292" y="596" type="curve" smooth="yes"/>
      <point x="318" y="613.333"/>
      <point x="346" y="628"/>
      <point x="376" y="640" type="curve" smooth="yes"/>
      <point x="413.333" y="654.667"/>
      <point x="452.5" y="666.5"/>
      <point x="493.5" y="675.5" type="curve" smooth="yes"/>
      <point x="534.5" y="684.5"/>
      <point x="574.667" y="692.833"/>
      <point x="614" y="700.5" type="curve" smooth="yes"/>
      <point x="653.333" y="708.167"/>
      <point x="690.833" y="716"/>
      <point x="726.5" y="724" type="curve" smooth="yes"/>
      <point x="762.167" y="732"/>
      <point x="793.333" y="742.667"/>
      <point x="820" y="756" type="curve" smooth="yes"/>
      <point x="844.667" y="768.667"/>
      <point x="864.333" y="784.167"/>
      <point x="879" y="802.5" type="curve" smooth="yes"/>
      <point x="893.667" y="820.833"/>
      <point x="901" y="844.333"/>
      <point x="901" y="873" type="curve" smooth="yes"/>
      <point x="901" y="929"/>
      <point x="881.167" y="974.333"/>
      <point x="841.5" y="1009" type="curve" smooth="yes"/>
      <point x="801.833" y="1043.67"/>
      <point x="744.667" y="1061"/>
      <point x="670" y="1061" type="curve" smooth="yes"/>
      <point x="596.667" y="1061"/>
      <point x="531" y="1045.5"/>
      <point x="473" y="1014.5" type="curve" smooth="yes"/>
      <point x="415" y="983.5"/>
      <point x="369.667" y="937"/>
      <point x="337" y="875" type="curve" smooth="yes"/>
      <point x="327.667" y="857.667"/>
      <point x="310.333" y="849"/>
      <point x="285" y="849" type="curve" smooth="yes"/>
      <point x="257" y="849"/>
      <point x="237.5" y="854"/>
      <point x="226.5" y="864" type="curve" smooth="yes"/>
      <point x="215.5" y="874"/>
      <point x="210" y="890.667"/>
      <point x="210" y="914" type="curve" smooth="yes"/>
      <point x="210" y="1144" type="line" smooth="yes"/>
      <point x="210" y="1167.33"/>
      <point x="215.5" y="1184"/>
      <point x="226.5" y="1194" type="curve" smooth="yes"/>
      <point x="237.5" y="1204"/>
      <point x="257" y="1209"/>
      <point x="285" y="1209" type="curve" smooth="yes"/>
      <point x="313" y="1209"/>
      <point x="332.5" y="1204"/>
      <point x="343.5" y="1194" type="curve" smooth="yes"/>
      <point x="354.5" y="1184"/>
      <point x="360" y="1167.33"/>
      <point x="360" y="1144" type="curve" smooth="yes"/>
      <point x="360" y="1083" type="line"/>
      <point x="398" y="1121"/>
      <point x="444" y="1151.5"/>
      <point x="498" y="1174.5" type="curve" smooth="yes"/>
      <point x="552" y="1197.5"/>
      <point x="609.333" y="1209"/>
      <point x="670" y="1209" type="curve" smooth="yes"/>
      <point x="726.667" y="1209"/>
      <point x="778.833" y="1201.33"/>
      <point x="826.5" y="1186" type="curve" smooth="yes"/>
      <point x="874.167" y="1170.67"/>
      <point x="915.167" y="1148.5"/>
      <point x="949.5" y="1119.5" type="curve" smooth="yes"/>
      <point x="983.833" y="1090.5"/>
      <point x="1010.67" y="1055.17"/>
      <point x="1030" y="1013.5" type="curve" smooth="yes"/>
      <point x="1049.33" y="971.833"/>
      <point x="1059" y="925"/>
      <point x="1059" y="873" type="curve" smooth="yes"/>
      <point x="1059" y="837.667"/>
      <point x="1054.83" y="806.333"/>
      <point x="1046.5" y="779" type="curve" smooth="yes"/>
      <point x="1038.17" y="751.667"/>
      <point x="1026.5" y="727.667"/>
      <point x="1011.5" y="707" type="curve" smooth="yes"/>
      <point x="996.5" y="686.333"/>
      <point x="978.667" y="668.333"/>
      <point x="958" y="653" type="curve" smooth="yes"/>
      <point x="937.333" y="637.667"/>
      <point x="914.667" y="624.667"/>
      <point x="890" y="614" type="curve" smooth="yes"/>
      <point x="856" y="598.667"/>
      <point x="819.333" y="586.333"/>
      <point x="780" y="577" type="curve" smooth="yes"/>
      <point x="740.667" y="567.667"/>
      <point x="701.167" y="559"/>
      <point x="661.5" y="551" type="curve" smooth="yes"/>
      <point x="621.833" y="543"/>
      <point x="583.333" y="534.833"/>
      <point x="546" y="526.5" type="curve" smooth="yes"/>
      <point x="508.667" y="518.167"/>
      <point x="474.667" y="507.667"/>
      <point x="444" y="495" type="curve" smooth="yes"/>
      <point x="406.667" y="479"/>
      <point x="376.833" y="458"/>
      <point x="354.5" y="432" type="curve" smooth="yes"/>
      <point x="332.167" y="406"/>
      <point x="321" y="371"/>
      <point x="321" y="327" type="curve" smooth="yes"/>
      <point x="321" y="297.667"/>
      <point x="326.667" y="270.667"/>
      <point x="338" y="246" type="curve" smooth="yes"/>
      <point x="349.333" y="221.333"/>
      <point x="366" y="200.167"/>
      <point x="388" y="182.5" type="curve" smooth="yes"/>
      <point x="410" y="164.833"/>
      <point x="437.5" y="151"/>
      <point x="470.5" y="141" type="curve" smooth="yes"/>
      <point x="503.5" y="131"/>
      <point x="542" y="126"/>
      <point x="586" y="126" type="curve" smooth="yes"/>
      <point x="674" y="126"/>
      <point x="747.667" y="146.667"/>
      <point x="807" y="188" type="curve" smooth="yes"/>
      <point x="866.333" y="229.333"/>
      <point x="909.667" y="288.667"/>
      <point x="937" y="366" type="curve" smooth="yes"/>
      <point x="947" y="394"/>
      <point x="966.333" y="408"/>
      <point x="995" y="408" type="curve" smooth="yes"/>
      <point x="1023" y="408"/>
      <point x="1042.5" y="403"/>
      <point x="1053.5" y="393" type="curve" smooth="yes"/>
      <point x="1064.5" y="383"/>
      <point x="1070" y="366.333"/>
      <point x="1070" y="343" type="curve" smooth="yes"/>
      <point x="1070" y="43" type="line" smooth="yes"/>
      <point x="1070" y="19.6667"/>
      <point x="1064.5" y="3"/>
      <point x="1053.5" y="-7" type="curve" smooth="yes"/>
      <point x="1042.5" y="-17"/>
      <point x="1023" y="-22"/>
      <point x="995" y="-22" type="curve" smooth="yes"/>
      <point x="967" y="-22"/>
      <point x="947.5" y="-17"/>
      <point x="936.5" y="-7" type="curve" smooth="yes"/>
      <point x="925.5" y="3"/>
      <point x="920" y="19.6667"/>
    </contour>
  </outline>
</glyph>
<glyph name="uni01A8" format="1">
  <advance width="1228"/>
  <unicode hex="01A8"/>
  <outline>
    <contour>
      <point x="900" y="43" type="curve" smooth="yes"/>
      <point x="900" y="43"/>
      <point x="900" y="43"/>
      <point x="900" y="99" type="curve"/>
      <point x="859.333" y="58.3333"/>
      <point x="811.833" y="28"/>
      <point x="757.5" y="8" type="curve" smooth="yes"/>
      <point x="703.167" y="-12"/>
      <point x="639.667" y="-22"/>
      <point x="567" y="-22" type="curve" smooth="yes"/>
      <point x="505" y="-22"/>
      <point x="449.833" y="-14.8333"/>
      <point x="401.5" y="-0.5" type="curve" smooth="yes"/>
      <point x="353.167" y="13.8333"/>
      <point x="312.5" y="34.1667"/>
      <point x="279.5" y="60.5" type="curve" smooth="yes"/>
      <point x="246.5" y="86.8333"/>
      <point x="221.5" y="118.333"/>
      <point x="204.5" y="155" type="curve" smooth="yes"/>
      <point x="187.5" y="191.667"/>
      <point x="179" y="232.333"/>
      <point x="179" y="277" type="curve" smooth="yes"/>
      <point x="179" y="309"/>
      <point x="183.167" y="337.167"/>
      <point x="191.5" y="361.5" type="curve" smooth="yes"/>
      <point x="199.833" y="385.833"/>
      <point x="211.5" y="407.167"/>
      <point x="226.5" y="425.5" type="curve" smooth="yes"/>
      <point x="241.5" y="443.833"/>
      <point x="259.333" y="459.5"/>
      <point x="280" y="472.5" type="curve" smooth="yes"/>
      <point x="300.667" y="485.5"/>
      <point x="323.333" y="496.667"/>
      <point x="348" y="506" type="curve" smooth="yes"/>
      <point x="384" y="519.333"/>
      <point x="423" y="529.167"/>
      <point x="465" y="535.5" type="curve" smooth="yes"/>
      <point x="507" y="541.833"/>
      <point x="548.667" y="547.167"/>
      <point x="590" y="551.5" type="curve" smooth="yes"/>
      <point x="631.333" y="555.833"/>
      <point x="670.667" y="560.167"/>
      <point x="708" y="564.5" type="curve" smooth="yes"/>
      <point x="745.333" y="568.833"/>
      <point x="778" y="575.667"/>
      <point x="806" y="585" type="curve" smooth="yes"/>
      <point x="831.333" y="593"/>
      <point x="851.167" y="603.667"/>
      <point x="865.5" y="617" type="curve" smooth="yes"/>
      <point x="879.833" y="630.333"/>
      <point x="887" y="648"/>
      <point x="887" y="670" type="curve" smooth="yes"/>
      <point x="887" y="712"/>
      <point x="868.833" y="744.333"/>
      <point x="832.5" y="767" type="curve" smooth="yes"/>
      <point x="796.167" y="789.667"/>
      <point x="745.667" y="801"/>
      <point x="681" y="801" type="curve" smooth="yes"/>
      <point x="642.333" y="801"/>
      <point x="606" y="798.667"/>
      <point x="572" y="794" type="curve" smooth="yes"/>
      <point x="538" y="789.333"/>
      <point x="506.833" y="781.333"/>
      <point x="478.5" y="770" type="curve" smooth="yes"/>
      <point x="450.167" y="758.667"/>
      <point x="425.167" y="743.333"/>
      <point x="403.5" y="724" type="curve" smooth="yes"/>
      <point x="381.833" y="704.667"/>
      <point x="363.333" y="680.667"/>
      <point x="348" y="652" type="curve" smooth="yes"/>
      <point x="338.667" y="634.667"/>
      <point x="322.667" y="626"/>
      <point x="300" y="626" type="curve" smooth="yes"/>
      <point x="272" y="626"/>
      <point x="252.5" y="631"/>
      <point x="241.5" y="641" type="curve" smooth="yes"/>
      <point x="230.5" y="651"/>
      <point x="225" y="667.667"/>
      <point x="225" y="691" type="curve" smooth="yes"/>
      <point x="225" y="881" type="line" smooth="yes"/>
      <point x="225" y="904.333"/>
      <point x="230.5" y="921"/>
      <point x="241.5" y="931" type="curve" smooth="yes"/>
      <point x="252.5" y="941"/>
      <point x="272" y="946"/>
      <point x="300" y="946" type="curve" smooth="yes"/>
      <point x="328" y="946"/>
      <point x="347.5" y="941"/>
      <point x="358.5" y="931" type="curve" smooth="yes"/>
      <point x="369.5" y="921"/>
      <point x="375" y="904.333"/>
      <point x="375" y="881" type="curve" smooth="yes"/>
      <point x="375" y="836" type="line"/>
      <point x="413" y="870"/>
      <point x="458.5" y="896.833"/>
      <point x="511.5" y="916.5" type="curve" smooth="yes"/>
      <point x="564.5" y="936.167"/>
      <point x="624.333" y="946"/>
      <point x="691" y="946" type="curve" smooth="yes"/>
      <point x="741.667" y="946"/>
      <point x="788.5" y="940"/>
      <point x="831.5" y="928" type="curve" smooth="yes"/>
      <point x="874.5" y="916"/>
      <point x="911.833" y="898.333"/>
      <point x="943.5" y="875" type="curve" smooth="yes"/>
      <point x="975.167" y="851.667"/>
      <point x="1000" y="822.833"/>
      <point x="1018" y="788.5" type="curve" smooth="yes"/>
      <point x="1036" y="754.167"/>
      <point x="1045" y="714.667"/>
      <point x="1045" y="670" type="curve" smooth="yes"/>
      <point x="1045" y="640.667"/>
      <point x="1041.17" y="614.667"/>
      <point x="1033.5" y="592" type="curve" smooth="yes"/>
      <point x="1025.83" y="569.333"/>
      <point x="1015.17" y="549.333"/>
      <point x="1001.5" y="532" type="curve" smooth="yes"/>
      <point x="987.833" y="514.667"/>
      <point x="971.667" y="499.667"/>
      <point x="953" y="487" type="curve" smooth="yes"/>
      <point x="934.333" y="474.333"/>
      <point x="913.667" y="463.667"/>
      <point x="891" y="455" type="curve" smooth="yes"/>
      <point x="855" y="441"/>
      <point x="815.833" y="430.333"/>
      <point x="773.5" y="423" type="curve" smooth="yes"/>
      <point x="731.167" y="415.667"/>
      <point x="688.667" y="409.667"/>
      <point x="646" y="405" type="curve" smooth="yes"/>
      <point x="603.333" y="400.333"/>
      <point x="562.667" y="395.667"/>
      <point x="524" y="391" type="curve" smooth="yes"/>
      <point x="485.333" y="386.333"/>
      <point x="451.333" y="379"/>
      <point x="422" y="369" type="curve" smooth="yes"/>
      <point x="396" y="360.333"/>
      <point x="375.333" y="348.833"/>
      <point x="360" y="334.5" type="curve" smooth="yes"/>
      <point x="344.667" y="320.167"/>
      <point x="337" y="301"/>
      <point x="337" y="277" type="curve" smooth="yes"/>
      <point x="337" y="231"/>
      <point x="357" y="193.833"/>
      <point x="397" y="165.5" type="curve" smooth="yes"/>
      <point x="437" y="137.167"/>
      <point x="497" y="123"/>
      <point x="577" y="123" type="curve" smooth="yes"/>
      <point x="669.667" y="123"/>
      <point x="744" y="137.5"/>
      <point x="800" y="166.5" type="curve" smooth="yes"/>
      <point x="856" y="195.5"/>
      <point x="896.333" y="242.333"/>
      <point x="921" y="307" type="curve" smooth="yes"/>
      <point x="926.333" y="321"/>
      <point x="933" y="331.333"/>
      <point x="941" y="338" type="curve" smooth="yes"/>
      <point x="949" y="344.667"/>
      <point x="960.333" y="348"/>
      <point x="975" y="348" type="curve" smooth="yes"/>
      <point x="1003" y="348"/>
      <point x="1022.5" y="343"/>
      <point x="1033.5" y="333" type="curve" smooth="yes"/>
      <point x="1044.5" y="323"/>
      <point x="1050" y="306.333"/>
      <point x="1050" y="283" type="curve" smooth="yes"/>
      <point x="1050" y="43" type="line" smooth="yes"/>
      <point x="1050" y="19.6667"/>
      <point x="1044.5" y="3"/>
      <point x="1033.5" y="-7" type="curve" smooth="yes"/>
      <point x="1022.5" y="-17"/>
      <point x="1003" y="-22"/>
      <point x="975" y="-22" type="curve" smooth="yes"/>
      <point x="947" y="-22"/>
      <point x="927.5" y="-17"/>
      <point x="916.5" y="-7" type="curve" smooth="yes"/>
      <point x="905.5" y="3"/>
      <point x="900" y="19.6667"/>
    </contour>
  </outline>
</glyph>
<glyph name="uni01AE" format="1">
  <advance width="1228"/>
  <unicode hex="01AE"/>
  <outline>
    <contour>
      <point x="539" y="1051" type="line"/>
      <point x="272" y="1051" type="line"/>
      <point x="272" y="742" type="line" smooth="yes"/>
      <point x="272" y="718.667"/>
      <point x="266.5" y="702"/>
      <point x="255.5" y="692" type="curve" smooth="yes"/>
      <point x="244.5" y="682"/>
      <point x="225" y="677"/>
      <point x="197" y="677" type="curve" smooth="yes"/>
      <point x="169" y="677"/>
      <point x="149.5" y="682"/>
      <point x="138.5" y="692" type="curve" smooth="yes"/>
      <point x="127.5" y="702"/>
      <point x="122" y="718.667"/>
      <point x="122" y="742" type="curve" smooth="yes"/>
      <point x="122" y="1119" type="line" smooth="yes"/>
      <point x="122" y="1144.33"/>
      <point x="126.833" y="1162"/>
      <point x="136.5" y="1172" type="curve" smooth="yes"/>
      <point x="146.167" y="1182"/>
      <point x="162.333" y="1187"/>
      <point x="185" y="1187" type="curve" smooth="yes"/>
      <point x="1043" y="1187" type="line" smooth="yes"/>
      <point x="1065.67" y="1187"/>
      <point x="1081.83" y="1182"/>
      <point x="1091.5" y="1172" type="curve" smooth="yes"/>
      <point x="1101.17" y="1162"/>
      <point x="1106" y="1144.33"/>
      <point x="1106" y="1119" type="curve" smooth="yes"/>
      <point x="1106" y="742" type="line" smooth="yes"/>
      <point x="1106" y="718.667"/>
      <point x="1100.5" y="702"/>
      <point x="1089.5" y="692" type="curve" smooth="yes"/>
      <point x="1078.5" y="682"/>
      <point x="1059" y="677"/>
      <point x="1031" y="677" type="curve" smooth="yes"/>
      <point x="1003" y="677"/>
      <point x="983.5" y="682"/>
      <point x="972.5" y="692" type="curve" smooth="yes"/>
      <point x="961.5" y="702"/>
      <point x="956" y="718.667"/>
      <point x="956" y="742" type="curve" smooth="yes"/>
      <point x="956" y="1051" type="line"/>
      <point x="689" y="1051" type="line"/>
      <point x="689" y="-204" type="line" smooth="yes"/>
      <point x="689" y="-228.667"/>
      <point x="696.167" y="-247.333"/>
      <point x="710.5" y="-260" type="curve" smooth="yes"/>
      <point x="724.833" y="-272.667"/>
      <point x="743.333" y="-279"/>
      <point x="766" y="-279" type="curve" smooth="yes"/>
      <point x="785.333" y="-279"/>
      <point x="804.667" y="-278"/>
      <point x="824" y="-276" type="curve" smooth="yes"/>
      <point x="832" y="-275.333"/>
      <point x="850.333" y="-273"/>
      <point x="879" y="-269" type="curve" smooth="yes"/>
      <point x="892.333" y="-267"/>
      <point x="903.333" y="-269.833"/>
      <point x="912" y="-277.5" type="curve" smooth="yes"/>
      <point x="920.667" y="-285.167"/>
      <point x="926.333" y="-298.333"/>
      <point x="929" y="-317" type="curve" smooth="yes"/>
      <point x="932.333" y="-337.667"/>
      <point x="931.5" y="-353.5"/>
      <point x="926.5" y="-364.5" type="curve" smooth="yes"/>
      <point x="921.5" y="-375.5"/>
      <point x="911.667" y="-383.667"/>
      <point x="897" y="-389" type="curve" smooth="yes"/>
      <point x="873.667" y="-397"/>
      <point x="848.333" y="-403.333"/>
      <point x="821" y="-408" type="curve" smooth="yes"/>
      <point x="793.667" y="-412.667"/>
      <point x="764.333" y="-415"/>
      <point x="733" y="-415" type="curve" smooth="yes"/>
      <point x="670.333" y="-415"/>
      <point x="622.333" y="-397.833"/>
      <point x="589" y="-363.5" type="curve" smooth="yes"/>
      <point x="555.667" y="-329.167"/>
      <point x="539" y="-282.667"/>
      <point x="539" y="-224" type="curve" smooth="yes"/>
    </contour>
  </outline>
</glyph>
<glyph name="uni01B5" format="1">
  <advance width="1228"/>
  <unicode hex="01B5"/>
  <outline>
    <contour>
      <point x="909" y="136" type="line"/>
      <point x="909" y="350" type="line" smooth="yes"/>
      <point x="909" y="373.333"/>
      <point x="914.5" y="390"/>
      <point x="925.5" y="400" type="curve" smooth="yes"/>
      <point x="936.5" y="410"/>
      <point x="956" y="415"/>
      <point x="984" y="415" type="curve" smooth="yes"/>
      <point x="1012" y="415"/>
      <point x="1031.5" y="410"/>
      <point x="1042.5" y="400" type="curve" smooth="yes"/>
      <point x="1053.5" y="390"/>
      <point x="1059" y="373.333"/>
      <point x="1059" y="350" type="curve" smooth="yes"/>
      <point x="1059" y="68" type="line" smooth="yes"/>
      <point x="1059" y="42.6667"/>
      <point x="1054.17" y="25"/>
      <point x="1044.5" y="15" type="curve" smooth="yes"/>
      <point x="1034.83" y="5"/>
      <point x="1018.67" y="0"/>
      <point x="996" y="0" type="curve" smooth="yes"/>
      <point x="230" y="0" type="line" smooth="yes"/>
      <point x="207.333" y="0"/>
      <point x="191.167" y="5"/>
      <point x="181.5" y="15" type="curve" smooth="yes"/>
      <point x="171.833" y="25"/>
      <point x="167" y="42.6667"/>
      <point x="167" y="68" type="curve" smooth="yes"/>
      <point x="167" y="77.3333"/>
      <point x="168.333" y="85.3333"/>
      <point x="171" y="92" type="curve" smooth="yes"/>
      <point x="173.385" y="98.5599"/>
      <point x="176.719" y="104.893"/>
      <point x="181" y="111" type="curve" smooth="yes"/>
      <point x="840" y="1051" type="line"/>
      <point x="338" y="1051" type="line"/>
      <point x="338" y="857" type="line" smooth="yes"/>
      <point x="338" y="833.667"/>
      <point x="332.5" y="817"/>
      <point x="321.5" y="807" type="curve" smooth="yes"/>
      <point x="310.5" y="797"/>
      <point x="291" y="792"/>
      <point x="263" y="792" type="curve" smooth="yes"/>
      <point x="235" y="792"/>
      <point x="215.5" y="797"/>
      <point x="204.5" y="807" type="curve" smooth="yes"/>
      <point x="193.5" y="817"/>
      <point x="188" y="833.667"/>
      <point x="188" y="857" type="curve" smooth="yes"/>
      <point x="188" y="1119" type="line" smooth="yes"/>
      <point x="188" y="1144.33"/>
      <point x="192.833" y="1162"/>
      <point x="202.5" y="1172" type="curve" smooth="yes"/>
      <point x="212.167" y="1182"/>
      <point x="228.333" y="1187"/>
      <point x="251" y="1187" type="curve" smooth="yes"/>
      <point x="987" y="1187" type="line" smooth="yes"/>
      <point x="1009.67" y="1187"/>
      <point x="1025.83" y="1182"/>
      <point x="1035.5" y="1172" type="curve" smooth="yes"/>
      <point x="1045.17" y="1162"/>
      <point x="1050" y="1144.33"/>
      <point x="1050" y="1119" type="curve" smooth="yes"/>
      <point x="1050" y="1102.49"/>
      <point x="1046.67" y="1089.49"/>
      <point x="1040" y="1080" type="curve" smooth="yes"/>
      <point x="377" y="136" type="line"/>
    </contour>
    <component base="uni0335" xOffset="1228" yOffset="76"/>
  </outline>
</glyph>
<glyph name="uni01BC" format="1">
  <advance width="1228"/>
  <unicode hex="01BC"/>
  <outline>
    <contour>
      <point x="588" y="126" type="curve" smooth="yes"/>
      <point x="629.333" y="126"/>
      <point x="666.333" y="132.167"/>
      <point x="699" y="144.5" type="curve" smooth="yes"/>
      <point x="731.667" y="156.833"/>
      <point x="759.333" y="174.5"/>
      <point x="782" y="197.5" type="curve" smooth="yes"/>
      <point x="804.667" y="220.5"/>
      <point x="822" y="247.833"/>
      <point x="834" y="279.5" type="curve" smooth="yes"/>
      <point x="846" y="311.167"/>
      <point x="852" y="346.667"/>
      <point x="852" y="386" type="curve" smooth="yes"/>
      <point x="852" y="422.667"/>
      <point x="846.333" y="456.5"/>
      <point x="835" y="487.5" type="curve" smooth="yes"/>
      <point x="823.667" y="518.5"/>
      <point x="807.5" y="545.167"/>
      <point x="786.5" y="567.5" type="curve" smooth="yes"/>
      <point x="765.5" y="589.833"/>
      <point x="740" y="607.167"/>
      <point x="710" y="619.5" type="curve" smooth="yes"/>
      <point x="680" y="631.833"/>
      <point x="646" y="638"/>
      <point x="608" y="638" type="curve" smooth="yes"/>
      <point x="560" y="638"/>
      <point x="518.333" y="632"/>
      <point x="483" y="620" type="curve"/>
      <point x="455.667" y="610"/>
      <point x="421.667" y="592.333"/>
      <point x="381" y="567" type="curve" smooth="yes"/>
      <point x="370.333" y="560.333"/>
      <point x="353.667" y="557"/>
      <point x="331" y="557" type="curve" smooth="yes"/>
      <point x="303" y="557"/>
      <point x="283.333" y="562"/>
      <point x="272" y="572" type="curve" smooth="yes"/>
      <point x="260.667" y="582"/>
      <point x="255.333" y="598.667"/>
      <point x="256" y="622" type="curve" smooth="yes"/>
      <point x="276" y="1122" type="line" smooth="yes"/>
      <point x="276.667" y="1144.67"/>
      <point x="282.667" y="1161.33"/>
      <point x="294" y="1172" type="curve" smooth="yes"/>
      <point x="304" y="1182"/>
      <point x="323" y="1187"/>
      <point x="351" y="1187" type="curve" smooth="yes"/>
      <point x="925" y="1187" type="line" smooth="yes"/>
      <point x="947.667" y="1187"/>
      <point x="963.833" y="1182"/>
      <point x="973.5" y="1172" type="curve" smooth="yes"/>
      <point x="983.167" y="1162"/>
      <point x="988" y="1144.33"/>
      <point x="988" y="1119" type="curve" smooth="yes"/>
      <point x="988" y="996" type="line" smooth="yes"/>
      <point x="988" y="972.667"/>
      <point x="982.5" y="956"/>
      <point x="971.5" y="946" type="curve" smooth="yes"/>
      <point x="960.5" y="936"/>
      <point x="941" y="931"/>
      <point x="913" y="931" type="curve" smooth="yes"/>
      <point x="885" y="931"/>
      <point x="865.5" y="936"/>
      <point x="854.5" y="946" type="curve" smooth="yes"/>
      <point x="843.5" y="956"/>
      <point x="838" y="972.667"/>
      <point x="838" y="996" type="curve" smooth="yes"/>
      <point x="838" y="1051" type="line"/>
      <point x="419" y="1051" type="line"/>
      <point x="406" y="730" type="line"/>
      <point x="438" y="748"/>
      <point x="471.833" y="761.833"/>
      <point x="507.5" y="771.5" type="curve" smooth="yes"/>
      <point x="543.167" y="781.167"/>
      <point x="581" y="786"/>
      <point x="621" y="786" type="curve" smooth="yes"/>
      <point x="681.667" y="786"/>
      <point x="736.167" y="776.167"/>
      <point x="784.5" y="756.5" type="curve" smooth="yes"/>
      <point x="832.833" y="736.833"/>
      <point x="873.667" y="709.167"/>
      <point x="907" y="673.5" type="curve" smooth="yes"/>
      <point x="940.333" y="637.833"/>
      <point x="965.833" y="595.5"/>
      <point x="983.5" y="546.5" type="curve" smooth="yes"/>
      <point x="1001.17" y="497.5"/>
      <point x="1010" y="444"/>
      <point x="1010" y="386" type="curve" smooth="yes"/>
      <point x="1010" y="327.333"/>
      <point x="1000.17" y="273.167"/>
      <point x="980.5" y="223.5" type="curve" smooth="yes"/>
      <point x="960.833" y="173.833"/>
      <point x="932.667" y="130.833"/>
      <point x="896" y="94.5" type="curve" smooth="yes"/>
      <point x="859.333" y="58.1667"/>
      <point x="815" y="29.6667"/>
      <point x="763" y="9" type="curve" smooth="yes"/>
      <point x="711" y="-11.6667"/>
      <point x="652.667" y="-22"/>
      <point x="588" y="-22" type="curve" smooth="yes"/>
      <point x="541.333" y="-22"/>
      <point x="498.167" y="-13.6667"/>
      <point x="458.5" y="3" type="curve" smooth="yes"/>
      <point x="418.833" y="19.6667"/>
      <point x="384.333" y="44.6667"/>
      <point x="355" y="78" type="curve"/>
      <point x="355" y="43" type="line" smooth="yes"/>
      <point x="355" y="19.6667"/>
      <point x="349.5" y="3"/>
      <point x="338.5" y="-7" type="curve" smooth="yes"/>
      <point x="327.5" y="-17"/>
      <point x="308" y="-22"/>
      <point x="280" y="-22" type="curve" smooth="yes"/>
      <point x="252" y="-22"/>
      <point x="232.5" y="-17"/>
      <point x="221.5" y="-7" type="curve" smooth="yes"/>
      <point x="210.5" y="3"/>
      <point x="205" y="19.6667"/>
      <point x="205" y="43" type="curve" smooth="yes"/>
      <point x="205" y="272" type="line" smooth="yes"/>
      <point x="205" y="296"/>
      <point x="210.5" y="313"/>
      <point x="221.5" y="323" type="curve" smooth="yes"/>
      <point x="232.5" y="333"/>
      <point x="252" y="338"/>
      <point x="280" y="338" type="curve" smooth="yes"/>
      <point x="315.333" y="338"/>
      <point x="336.333" y="327.333"/>
      <point x="343" y="306" type="curve" smooth="yes"/>
      <point x="362.333" y="248"/>
      <point x="392.667" y="203.5"/>
      <point x="434" y="172.5" type="curve" smooth="yes"/>
      <point x="475.333" y="141.5"/>
      <point x="526.667" y="126"/>
    </contour>
  </outline>
</glyph>
<glyph name="uni01BE" format="1">
  <advance width="1228"/>
  <unicode hex="01BE"/>
  <outline>
    <contour>
      <point x="383" y="708" type="curve"/>
      <point x="180" y="708" type="line" smooth="yes"/>
      <point x="157.333" y="708"/>
      <point x="141.167" y="713"/>
      <point x="131.5" y="723" type="curve" smooth="yes"/>
      <point x="121.833" y="733"/>
      <point x="117" y="750.667"/>
      <point x="117" y="776" type="curve" smooth="yes"/>
      <point x="117" y="801.333"/>
      <point x="121.833" y="819"/>
      <point x="131.5" y="829" type="curve" smooth="yes"/>
      <point x="141.167" y="839"/>
      <point x="157.333" y="844"/>
      <point x="180" y="844" type="curve" smooth="yes"/>
      <point x="383" y="844" type="line"/>
      <point x="383" y="1144" type="line" smooth="yes"/>
      <point x="383" y="1167.33"/>
      <point x="388.5" y="1184"/>
      <point x="399.5" y="1194" type="curve" smooth="yes"/>
      <point x="410.5" y="1204"/>
      <point x="430" y="1209"/>
      <point x="458" y="1209" type="curve" smooth="yes"/>
      <point x="486" y="1209"/>
      <point x="505.5" y="1204"/>
      <point x="516.5" y="1194" type="curve" smooth="yes"/>
      <point x="527.5" y="1184"/>
      <point x="533" y="1167.33"/>
      <point x="533" y="1144" type="curve" smooth="yes"/>
      <point x="533" y="844" type="line"/>
      <point x="944" y="844" type="line" smooth="yes"/>
      <point x="966.667" y="844"/>
      <point x="982.833" y="839"/>
      <point x="992.5" y="829" type="curve" smooth="yes"/>
      <point x="1002.17" y="819"/>
      <point x="1007" y="801.333"/>
      <point x="1007" y="776" type="curve" smooth="yes"/>
      <point x="1007" y="750.667"/>
      <point x="1002.17" y="733"/>
      <point x="992.5" y="723" type="curve" smooth="yes"/>
      <point x="982.833" y="713"/>
      <point x="966.667" y="708"/>
      <point x="944" y="708" type="curve" smooth="yes"/>
      <point x="533" y="708" type="line"/>
      <point x="533" y="644"/>
      <point x="556.833" y="602.167"/>
      <point x="604.5" y="582.5" type="curve" smooth="yes"/>
      <point x="652.167" y="562.833"/>
      <point x="701.167" y="548.5"/>
      <point x="751.5" y="539.5" type="curve" smooth="yes"/>
      <point x="801.833" y="530.5"/>
      <point x="845" y="519.333"/>
      <point x="881" y="506" type="curve" smooth="yes"/>
      <point x="905.667" y="496.667"/>
      <point x="928.333" y="485.5"/>
      <point x="949" y="472.5" type="curve" smooth="yes"/>
      <point x="969.667" y="459.5"/>
      <point x="987.5" y="443.833"/>
      <point x="1002.5" y="425.5" type="curve" smooth="yes"/>
      <point x="1017.5" y="407.167"/>
      <point x="1029.17" y="385.833"/>
      <point x="1037.5" y="361.5" type="curve" smooth="yes"/>
      <point x="1045.83" y="337.167"/>
      <point x="1050" y="309"/>
      <point x="1050" y="277" type="curve" smooth="yes"/>
      <point x="1050" y="232.333"/>
      <point x="1041.5" y="191.667"/>
      <point x="1024.5" y="155" type="curve" smooth="yes"/>
      <point x="1007.5" y="118.333"/>
      <point x="982.5" y="86.8333"/>
      <point x="949.5" y="60.5" type="curve" smooth="yes"/>
      <point x="916.5" y="34.1667"/>
      <point x="875.833" y="13.8333"/>
      <point x="827.5" y="-0.5" type="curve" smooth="yes"/>
      <point x="779.167" y="-14.8333"/>
      <point x="724" y="-22"/>
      <point x="662" y="-22" type="curve" smooth="yes"/>
      <point x="589.333" y="-22"/>
      <point x="525.833" y="-12"/>
      <point x="471.5" y="8" type="curve" smooth="yes"/>
      <point x="417.167" y="28"/>
      <point x="369.667" y="58.3333"/>
      <point x="329" y="99" type="curve"/>
      <point x="329" y="43" type="line" smooth="yes"/>
      <point x="329" y="19.6667"/>
      <point x="323.5" y="3"/>
      <point x="312.5" y="-7" type="curve" smooth="yes"/>
      <point x="301.5" y="-17"/>
      <point x="282" y="-22"/>
      <point x="254" y="-22" type="curve" smooth="yes"/>
      <point x="226" y="-22"/>
      <point x="206.5" y="-17"/>
      <point x="195.5" y="-7" type="curve" smooth="yes"/>
      <point x="184.5" y="3"/>
      <point x="179" y="19.6667"/>
      <point x="179" y="43" type="curve" smooth="yes"/>
      <point x="179" y="283" type="line" smooth="yes"/>
      <point x="179" y="306.333"/>
      <point x="184.5" y="323"/>
      <point x="195.5" y="333" type="curve" smooth="yes"/>
      <point x="206.5" y="343"/>
      <point x="226" y="348"/>
      <point x="254" y="348" type="curve" smooth="yes"/>
      <point x="268.667" y="348"/>
      <point x="280" y="344.667"/>
      <point x="288" y="338" type="curve" smooth="yes"/>
      <point x="296" y="331.333"/>
      <point x="302.667" y="321"/>
      <point x="308" y="307" type="curve" smooth="yes"/>
      <point x="332.667" y="242.333"/>
      <point x="373" y="195.5"/>
      <point x="429" y="166.5" type="curve" smooth="yes"/>
      <point x="485" y="137.5"/>
      <point x="559.333" y="123"/>
      <point x="652" y="123" type="curve" smooth="yes"/>
      <point x="732" y="123"/>
      <point x="792" y="137.167"/>
      <point x="832" y="165.5" type="curve" smooth="yes"/>
      <point x="872" y="193.833"/>
      <point x="892" y="231"/>
      <point x="892" y="277" type="curve" smooth="yes"/>
      <point x="892" y="301"/>
      <point x="884.333" y="320.167"/>
      <point x="869" y="334.5" type="curve" smooth="yes"/>
      <point x="853.667" y="348.833"/>
      <point x="833" y="360.333"/>
      <point x="807" y="369" type="curve" smooth="yes"/>
      <point x="777.667" y="379"/>
      <point x="699.667" y="400.333"/>
      <point x="573" y="433" type="curve" smooth="yes"/>
      <point x="446.333" y="465.667"/>
      <point x="383" y="557.333"/>
    </contour>
  </outline>
</glyph>
<glyph name="uni01BF" format="1">
  <advance width="1228"/>
  <unicode hex="01BF"/>
  <outline>
    <contour>
      <point x="352" y="-157" type="curve"/>
      <point x="352" y="-257" type="line"/>
      <point x="574" y="-257" type="line" smooth="yes"/>
      <point x="596.667" y="-257"/>
      <point x="612.833" y="-262"/>
      <point x="622.5" y="-272" type="curve" smooth="yes"/>
      <point x="632.167" y="-282"/>
      <point x="637" y="-299.667"/>
      <point x="637" y="-325" type="curve" smooth="yes"/>
      <point x="637" y="-350.333"/>
      <point x="632.167" y="-368"/>
      <point x="622.5" y="-378" type="curve" smooth="yes"/>
      <point x="612.833" y="-388"/>
      <point x="596.667" y="-393"/>
      <point x="574" y="-393" type="curve" smooth="yes"/>
      <point x="90" y="-393" type="line" smooth="yes"/>
      <point x="67.3333" y="-393"/>
      <point x="51.1667" y="-388"/>
      <point x="41.5" y="-378" type="curve" smooth="yes"/>
      <point x="31.8333" y="-368"/>
      <point x="27" y="-350.333"/>
      <point x="27" y="-325" type="curve" smooth="yes"/>
      <point x="27" y="-299.667"/>
      <point x="31.8333" y="-282"/>
      <point x="41.5" y="-272" type="curve" smooth="yes"/>
      <point x="51.1667" y="-262"/>
      <point x="67.3333" y="-257"/>
      <point x="90" y="-257" type="curve" smooth="yes"/>
      <point x="202" y="-257" type="line"/>
      <point x="202" y="788" type="line"/>
      <point x="120" y="788" type="line" smooth="yes"/>
      <point x="97.3333" y="788"/>
      <point x="81.1667" y="793"/>
      <point x="71.5" y="803" type="curve" smooth="yes"/>
      <point x="61.8333" y="813"/>
      <point x="57" y="830.667"/>
      <point x="57" y="856" type="curve" smooth="yes"/>
      <point x="57" y="881.333"/>
      <point x="61.8333" y="899"/>
      <point x="71.5" y="909" type="curve" smooth="yes"/>
      <point x="81.1667" y="919"/>
      <point x="97.3333" y="924"/>
      <point x="120" y="924" type="curve" smooth="yes"/>
      <point x="279" y="924" type="line" smooth="yes"/>
      <point x="301.667" y="924"/>
      <point x="317.833" y="919"/>
      <point x="327.5" y="909" type="curve" smooth="yes"/>
      <point x="337.167" y="899"/>
      <point x="342" y="881.333"/>
      <point x="342" y="856" type="curve" smooth="yes"/>
      <point x="342" y="776" type="line"/>
      <point x="383.333" y="830"/>
      <point x="431.5" y="871.833"/>
      <point x="486.5" y="901.5" type="curve" smooth="yes"/>
      <point x="541.5" y="931.167"/>
      <point x="602.333" y="946"/>
      <point x="669" y="946" type="curve" smooth="yes"/>
      <point x="731" y="946"/>
      <point x="788.333" y="935.5"/>
      <point x="841" y="914.5" type="curve" smooth="yes"/>
      <point x="893.667" y="893.5"/>
      <point x="939.167" y="863.333"/>
      <point x="977.5" y="824" type="curve" smooth="yes"/>
      <point x="1015.83" y="784.667"/>
      <point x="1046" y="736.667"/>
      <point x="1068" y="680" type="curve" smooth="yes"/>
      <point x="1090" y="623.333"/>
      <point x="1101" y="559"/>
      <point x="1101" y="487" type="curve" smooth="yes"/>
      <point x="1101" y="415"/>
      <point x="1085.5" y="343.833"/>
      <point x="1054.5" y="273.5" type="curve" smooth="yes"/>
      <point x="1023.5" y="203.167"/>
      <point x="975.833" y="137.333"/>
      <point x="911.5" y="76" type="curve" smooth="yes"/>
      <point x="847.167" y="14.6667"/>
      <point x="761.667" y="-39.5"/>
      <point x="655" y="-86.5" type="curve" smooth="yes"/>
      <point x="548.333" y="-133.5"/>
      <point x="447.333" y="-157"/>
    </contour>
    <contour>
      <point x="352" y="-9" type="line"/>
      <point x="430.667" y="-9"/>
      <point x="511.833" y="8.33333"/>
      <point x="595.5" y="43" type="curve" smooth="yes"/>
      <point x="679.167" y="77.6667"/>
      <point x="750.5" y="126.5"/>
      <point x="809.5" y="189.5" type="curve" smooth="yes"/>
      <point x="868.5" y="252.5"/>
      <point x="905.5" y="306.5"/>
      <point x="920.5" y="351.5" type="curve" smooth="yes"/>
      <point x="935.5" y="396.5"/>
      <point x="943" y="441.667"/>
      <point x="943" y="487" type="curve" smooth="yes"/>
      <point x="943" y="532.333"/>
      <point x="936.667" y="574"/>
      <point x="924" y="612" type="curve" smooth="yes"/>
      <point x="911.333" y="650"/>
      <point x="893" y="682.833"/>
      <point x="869" y="710.5" type="curve" smooth="yes"/>
      <point x="845" y="738.167"/>
      <point x="815.333" y="759.667"/>
      <point x="780" y="775" type="curve" smooth="yes"/>
      <point x="744.667" y="790.333"/>
      <point x="704.333" y="798"/>
      <point x="659" y="798" type="curve" smooth="yes"/>
      <point x="615" y="798"/>
      <point x="574.167" y="791"/>
      <point x="536.5" y="777" type="curve" smooth="yes"/>
      <point x="498.833" y="763"/>
      <point x="466.333" y="742.833"/>
      <point x="439" y="716.5" type="curve" smooth="yes"/>
      <point x="411.667" y="690.167"/>
      <point x="390.333" y="657.667"/>
      <point x="375" y="619" type="curve" smooth="yes"/>
      <point x="359.667" y="580.333"/>
      <point x="352" y="536.333"/>
      <point x="352" y="487" type="curve" smooth="yes"/>
    </contour>
  </outline>
</glyph>
<glyph name="uni01C0" format="1">
  <advance width="1228"/>
  <unicode hex="01C0"/>
  <outline>
    <contour>
      <point x="539" y="1051" type="line"/>
      <point x="262" y="1051" type="line" smooth="yes"/>
      <point x="239.333" y="1051"/>
      <point x="223.167" y="1056"/>
      <point x="213.5" y="1066" type="curve" smooth="yes"/>
      <point x="203.833" y="1076"/>
      <point x="199" y="1093.67"/>
      <point x="199" y="1119" type="curve" smooth="yes"/>
      <point x="199" y="1144.33"/>
      <point x="203.833" y="1162"/>
      <point x="213.5" y="1172" type="curve" smooth="yes"/>
      <point x="223.167" y="1182"/>
      <point x="239.333" y="1187"/>
      <point x="262" y="1187" type="curve" smooth="yes"/>
      <point x="966" y="1187" type="line" smooth="yes"/>
      <point x="988.667" y="1187"/>
      <point x="1004.83" y="1182"/>
      <point x="1014.5" y="1172" type="curve" smooth="yes"/>
      <point x="1024.17" y="1162"/>
      <point x="1029" y="1144.33"/>
      <point x="1029" y="1119" type="curve" smooth="yes"/>
      <point x="1029" y="1093.67"/>
      <point x="1024.17" y="1076"/>
      <point x="1014.5" y="1066" type="curve" smooth="yes"/>
      <point x="1004.83" y="1056"/>
      <point x="988.667" y="1051"/>
      <point x="966" y="1051" type="curve" smooth="yes"/>
      <point x="689" y="1051" type="line"/>
      <point x="689" y="136" type="line"/>
      <point x="986" y="136" type="line" smooth="yes"/>
      <point x="1008.67" y="136"/>
      <point x="1024.83" y="131"/>
      <point x="1034.5" y="121" type="curve" smooth="yes"/>
      <point x="1044.17" y="111"/>
      <point x="1049" y="93.3333"/>
      <point x="1049" y="68" type="curve" smooth="yes"/>
      <point x="1049" y="42.6667"/>
      <point x="1044.17" y="25"/>
      <point x="1034.5" y="15" type="curve" smooth="yes"/>
      <point x="1024.83" y="5"/>
      <point x="1008.67" y="0"/>
      <point x="986" y="0" type="curve" smooth="yes"/>
      <point x="242" y="0" type="line" smooth="yes"/>
      <point x="219.333" y="0"/>
      <point x="203.167" y="5"/>
      <point x="193.5" y="15" type="curve" smooth="yes"/>
      <point x="183.833" y="25"/>
      <point x="179" y="42.6667"/>
      <point x="179" y="68" type="curve" smooth="yes"/>
      <point x="179" y="93.3333"/>
      <point x="183.833" y="111"/>
      <point x="193.5" y="121" type="curve" smooth="yes"/>
      <point x="203.167" y="131"/>
      <point x="219.333" y="136"/>
      <point x="242" y="136" type="curve" smooth="yes"/>
      <point x="539" y="136" type="line"/>
    </contour>
  </outline>
</glyph>
<glyph name="uni01C1" format="1">
  <advance width="1228"/>
  <unicode hex="01C1"/>
  <outline>
    <contour>
      <point x="302" y="136" type="line"/>
      <point x="302" y="1051" type="line"/>
      <point x="238" y="1051" type="line" smooth="yes"/>
      <point x="215.333" y="1051"/>
      <point x="199.167" y="1056"/>
      <point x="189.5" y="1066" type="curve" smooth="yes"/>
      <point x="179.833" y="1076"/>
      <point x="175" y="1093.67"/>
      <point x="175" y="1119" type="curve" smooth="yes"/>
      <point x="175" y="1144.33"/>
      <point x="179.833" y="1162"/>
      <point x="189.5" y="1172" type="curve" smooth="yes"/>
      <point x="199.167" y="1182"/>
      <point x="215.333" y="1187"/>
      <point x="238" y="1187" type="curve" smooth="yes"/>
      <point x="513" y="1187" type="line" smooth="yes"/>
      <point x="535.667" y="1187"/>
      <point x="551.833" y="1182"/>
      <point x="561.5" y="1172" type="curve" smooth="yes"/>
      <point x="571.167" y="1162"/>
      <point x="576" y="1144.33"/>
      <point x="576" y="1119" type="curve" smooth="yes"/>
      <point x="576" y="1093.67"/>
      <point x="571.167" y="1076"/>
      <point x="561.5" y="1066" type="curve" smooth="yes"/>
      <point x="551.833" y="1056"/>
      <point x="535.667" y="1051"/>
      <point x="513" y="1051" type="curve" smooth="yes"/>
      <point x="452" y="1051" type="line"/>
      <point x="452" y="136" type="line"/>
      <point x="518" y="136" type="line" smooth="yes"/>
      <point x="540.667" y="136"/>
      <point x="556.833" y="131"/>
      <point x="566.5" y="121" type="curve" smooth="yes"/>
      <point x="576.167" y="111"/>
      <point x="581" y="93.3333"/>
      <point x="581" y="68" type="curve" smooth="yes"/>
      <point x="581" y="42.6667"/>
      <point x="576.167" y="25"/>
      <point x="566.5" y="15" type="curve" smooth="yes"/>
      <point x="556.833" y="5"/>
      <point x="540.667" y="0"/>
      <point x="518" y="0" type="curve" smooth="yes"/>
      <point x="233" y="0" type="line" smooth="yes"/>
      <point x="210.333" y="0"/>
      <point x="194.167" y="5"/>
      <point x="184.5" y="15" type="curve" smooth="yes"/>
      <point x="174.833" y="25"/>
      <point x="170" y="42.6667"/>
      <point x="170" y="68" type="curve" smooth="yes"/>
      <point x="170" y="93.3333"/>
      <point x="174.833" y="111"/>
      <point x="184.5" y="121" type="curve" smooth="yes"/>
      <point x="194.167" y="131"/>
      <point x="210.333" y="136"/>
      <point x="233" y="136" type="curve" smooth="yes"/>
    </contour>
    <contour>
      <point x="776" y="136" type="line"/>
      <point x="776" y="1051" type="line"/>
      <point x="715" y="1051" type="line" smooth="yes"/>
      <point x="692.333" y="1051"/>
      <point x="676.167" y="1056"/>
      <point x="666.5" y="1066" type="curve" smooth="yes"/>
      <point x="656.833" y="1076"/>
      <point x="652" y="1093.67"/>
      <point x="652" y="1119" type="curve" smooth="yes"/>
      <point x="652" y="1144.33"/>
      <point x="656.833" y="1162"/>
      <point x="666.5" y="1172" type="curve" smooth="yes"/>
      <point x="676.167" y="1182"/>
      <point x="692.333" y="1187"/>
      <point x="715" y="1187" type="curve" smooth="yes"/>
      <point x="990" y="1187" type="line" smooth="yes"/>
      <point x="1012.67" y="1187"/>
      <point x="1028.83" y="1182"/>
      <point x="1038.5" y="1172" type="curve" smooth="yes"/>
      <point x="1048.17" y="1162"/>
      <point x="1053" y="1144.33"/>
      <point x="1053" y="1119" type="curve" smooth="yes"/>
      <point x="1053" y="1093.67"/>
      <point x="1048.17" y="1076"/>
      <point x="1038.5" y="1066" type="curve" smooth="yes"/>
      <point x="1028.83" y="1056"/>
      <point x="1012.67" y="1051"/>
      <point x="990" y="1051" type="curve" smooth="yes"/>
      <point x="926" y="1051" type="line"/>
      <point x="926" y="136" type="line"/>
      <point x="995" y="136" type="line" smooth="yes"/>
      <point x="1017.67" y="136"/>
      <point x="1033.83" y="131"/>
      <point x="1043.5" y="121" type="curve" smooth="yes"/>
      <point x="1053.17" y="111"/>
      <point x="1058" y="93.3333"/>
      <point x="1058" y="68" type="curve" smooth="yes"/>
      <point x="1058" y="42.6667"/>
      <point x="1053.17" y="25"/>
      <point x="1043.5" y="15" type="curve" smooth="yes"/>
      <point x="1033.83" y="5"/>
      <point x="1017.67" y="0"/>
      <point x="995" y="0" type="curve" smooth="yes"/>
      <point x="710" y="0" type="line" smooth="yes"/>
      <point x="687.333" y="0"/>
      <point x="671.167" y="5"/>
      <point x="661.5" y="15" type="curve" smooth="yes"/>
      <point x="651.833" y="25"/>
      <point x="647" y="42.6667"/>
      <point x="647" y="68" type="curve" smooth="yes"/>
      <point x="647" y="93.3333"/>
      <point x="651.833" y="111"/>
      <point x="661.5" y="121" type="curve" smooth="yes"/>
      <point x="671.167" y="131"/>
      <point x="687.333" y="136"/>
      <point x="710" y="136" type="curve" smooth="yes"/>
    </contour>
  </outline>
</glyph>
<glyph name="uni01C2" format="1">
  <advance width="1228"/>
  <unicode hex="01C2"/>
  <outline>
    <contour>
      <point x="539" y="1051" type="line"/>
      <point x="358" y="1051" type="line" smooth="yes"/>
      <point x="335.333" y="1051"/>
      <point x="319.167" y="1056"/>
      <point x="309.5" y="1066" type="curve" smooth="yes"/>
      <point x="299.833" y="1076"/>
      <point x="295" y="1093.67"/>
      <point x="295" y="1119" type="curve" smooth="yes"/>
      <point x="295" y="1144.33"/>
      <point x="299.833" y="1162"/>
      <point x="309.5" y="1172" type="curve" smooth="yes"/>
      <point x="319.167" y="1182"/>
      <point x="335.333" y="1187"/>
      <point x="358" y="1187" type="curve" smooth="yes"/>
      <point x="870" y="1187" type="line" smooth="yes"/>
      <point x="892.667" y="1187"/>
      <point x="908.833" y="1182"/>
      <point x="918.5" y="1172" type="curve" smooth="yes"/>
      <point x="928.167" y="1162"/>
      <point x="933" y="1144.33"/>
      <point x="933" y="1119" type="curve" smooth="yes"/>
      <point x="933" y="1093.67"/>
      <point x="928.167" y="1076"/>
      <point x="918.5" y="1066" type="curve" smooth="yes"/>
      <point x="908.833" y="1056"/>
      <point x="892.667" y="1051"/>
      <point x="870" y="1051" type="curve" smooth="yes"/>
      <point x="689" y="1051" type="line"/>
      <point x="689" y="820" type="line"/>
      <point x="1050" y="820" type="line" smooth="yes"/>
      <point x="1072.67" y="820"/>
      <point x="1088.83" y="815"/>
      <point x="1098.5" y="805" type="curve" smooth="yes"/>
      <point x="1108.17" y="795"/>
      <point x="1113" y="777.333"/>
      <point x="1113" y="752" type="curve" smooth="yes"/>
      <point x="1113" y="726.667"/>
      <point x="1108.17" y="709"/>
      <point x="1098.5" y="699" type="curve" smooth="yes"/>
      <point x="1088.83" y="689"/>
      <point x="1072.67" y="684"/>
      <point x="1050" y="684" type="curve" smooth="yes"/>
      <point x="689" y="684" type="line"/>
      <point x="689" y="510" type="line"/>
      <point x="1050" y="510" type="line" smooth="yes"/>
      <point x="1072.67" y="510"/>
      <point x="1088.83" y="505"/>
      <point x="1098.5" y="495" type="curve" smooth="yes"/>
      <point x="1108.17" y="485"/>
      <point x="1113" y="467.333"/>
      <point x="1113" y="442" type="curve" smooth="yes"/>
      <point x="1113" y="416.667"/>
      <point x="1108.17" y="399"/>
      <point x="1098.5" y="389" type="curve" smooth="yes"/>
      <point x="1088.83" y="379"/>
      <point x="1072.67" y="374"/>
      <point x="1050" y="374" type="curve" smooth="yes"/>
      <point x="689" y="374" type="line"/>
      <point x="689" y="136" type="line"/>
      <point x="890" y="136" type="line" smooth="yes"/>
      <point x="912.667" y="136"/>
      <point x="928.833" y="131"/>
      <point x="938.5" y="121" type="curve" smooth="yes"/>
      <point x="948.167" y="111"/>
      <point x="953" y="93.3333"/>
      <point x="953" y="68" type="curve" smooth="yes"/>
      <point x="953" y="42.6667"/>
      <point x="948.167" y="25"/>
      <point x="938.5" y="15" type="curve" smooth="yes"/>
      <point x="928.833" y="5"/>
      <point x="912.667" y="0"/>
      <point x="890" y="0" type="curve" smooth="yes"/>
      <point x="338" y="0" type="line" smooth="yes"/>
      <point x="315.333" y="0"/>
      <point x="299.167" y="5"/>
      <point x="289.5" y="15" type="curve" smooth="yes"/>
      <point x="279.833" y="25"/>
      <point x="275" y="42.6667"/>
      <point x="275" y="68" type="curve" smooth="yes"/>
      <point x="275" y="93.3333"/>
      <point x="279.833" y="111"/>
      <point x="289.5" y="121" type="curve" smooth="yes"/>
      <point x="299.167" y="131"/>
      <point x="315.333" y="136"/>
      <point x="338" y="136" type="curve" smooth="yes"/>
      <point x="539" y="136" type="line"/>
      <point x="539" y="374" type="line"/>
      <point x="178" y="374" type="line" smooth="yes"/>
      <point x="155.333" y="374"/>
      <point x="139.167" y="379"/>
      <point x="129.5" y="389" type="curve" smooth="yes"/>
      <point x="119.833" y="399"/>
      <point x="115" y="416.667"/>
      <point x="115" y="442" type="curve" smooth="yes"/>
      <point x="115" y="467.333"/>
      <point x="119.833" y="485"/>
      <point x="129.5" y="495" type="curve" smooth="yes"/>
      <point x="139.167" y="505"/>
      <point x="155.333" y="510"/>
      <point x="178" y="510" type="curve" smooth="yes"/>
      <point x="539" y="510" type="line"/>
      <point x="539" y="684" type="line"/>
      <point x="178" y="684" type="line" smooth="yes"/>
      <point x="155.333" y="684"/>
      <point x="139.167" y="689"/>
      <point x="129.5" y="699" type="curve" smooth="yes"/>
      <point x="119.833" y="709"/>
      <point x="115" y="726.667"/>
      <point x="115" y="752" type="curve" smooth="yes"/>
      <point x="115" y="777.333"/>
      <point x="119.833" y="795"/>
      <point x="129.5" y="805" type="curve" smooth="yes"/>
      <point x="139.167" y="815"/>
      <point x="155.333" y="820"/>
      <point x="178" y="820" type="curve" smooth="yes"/>
      <point x="539" y="820" type="line"/>
    </contour>
  </outline>
</glyph>
<glyph name="uni01C3" format="1">
  <advance width="1228"/>
  <unicode hex="01C3"/>
  <outline>
    <contour>
      <point x="539" y="1051" type="line"/>
      <point x="222" y="1051" type="line" smooth="yes"/>
      <point x="199.333" y="1051"/>
      <point x="183.167" y="1056"/>
      <point x="173.5" y="1066" type="curve" smooth="yes"/>
      <point x="163.833" y="1076"/>
      <point x="159" y="1093.67"/>
      <point x="159" y="1119" type="curve" smooth="yes"/>
      <point x="159" y="1144.33"/>
      <point x="163.833" y="1162"/>
      <point x="173.5" y="1172" type="curve" smooth="yes"/>
      <point x="183.167" y="1182"/>
      <point x="199.333" y="1187"/>
      <point x="222" y="1187" type="curve" smooth="yes"/>
      <point x="1006" y="1187" type="line" smooth="yes"/>
      <point x="1028.67" y="1187"/>
      <point x="1044.83" y="1182"/>
      <point x="1054.5" y="1172" type="curve" smooth="yes"/>
      <point x="1064.17" y="1162"/>
      <point x="1069" y="1144.33"/>
      <point x="1069" y="1119" type="curve" smooth="yes"/>
      <point x="1069" y="1093.67"/>
      <point x="1064.17" y="1076"/>
      <point x="1054.5" y="1066" type="curve" smooth="yes"/>
      <point x="1044.83" y="1056"/>
      <point x="1028.67" y="1051"/>
      <point x="1006" y="1051" type="curve" smooth="yes"/>
      <point x="689" y="1051" type="line"/>
      <point x="689" y="460" type="line" smooth="yes"/>
      <point x="689" y="436.667"/>
      <point x="683.5" y="420"/>
      <point x="672.5" y="410" type="curve" smooth="yes"/>
      <point x="661.5" y="400"/>
      <point x="642" y="395"/>
      <point x="614" y="395" type="curve" smooth="yes"/>
      <point x="586" y="395"/>
      <point x="566.5" y="400"/>
      <point x="555.5" y="410" type="curve" smooth="yes"/>
      <point x="544.5" y="420"/>
      <point x="539" y="436.667"/>
      <point x="539" y="460" type="curve" smooth="yes"/>
    </contour>
    <contour>
      <point x="519" y="173" type="line" smooth="yes"/>
      <point x="519" y="196.333"/>
      <point x="525.333" y="213"/>
      <point x="538" y="223" type="curve" smooth="yes"/>
      <point x="550.667" y="233"/>
      <point x="576" y="238"/>
      <point x="614" y="238" type="curve" smooth="yes"/>
      <point x="652" y="238"/>
      <point x="677.333" y="233"/>
      <point x="690" y="223" type="curve" smooth="yes"/>
      <point x="702.667" y="213"/>
      <point x="709" y="196.333"/>
      <point x="709" y="173" type="curve" smooth="yes"/>
      <point x="709" y="43" type="line" smooth="yes"/>
      <point x="709" y="19.6667"/>
      <point x="702.667" y="3"/>
      <point x="690" y="-7" type="curve" smooth="yes"/>
      <point x="677.333" y="-17"/>
      <point x="652" y="-22"/>
      <point x="614" y="-22" type="curve" smooth="yes"/>
      <point x="576" y="-22"/>
      <point x="550.667" y="-17"/>
      <point x="538" y="-7" type="curve" smooth="yes"/>
      <point x="525.333" y="3"/>
      <point x="519" y="19.6667"/>
      <point x="519" y="43" type="curve" smooth="yes"/>
    </contour>
  </outline>
</glyph>
<glyph name="uni01E4" format="1">
  <advance width="1228"/>
  <unicode hex="01E4"/>
  <outline>
    <contour>
      <point x="668" y="460" type="line" smooth="yes"/>
      <point x="645.333" y="460"/>
      <point x="629.167" y="465"/>
      <point x="619.5" y="475" type="curve" smooth="yes"/>
      <point x="609.833" y="485"/>
      <point x="605" y="502.667"/>
      <point x="605" y="528" type="curve" smooth="yes"/>
      <point x="605" y="553.333"/>
      <point x="609.833" y="571"/>
      <point x="619.5" y="581" type="curve" smooth="yes"/>
      <point x="629.167" y="591"/>
      <point x="645.333" y="596"/>
      <point x="668" y="596" type="curve" smooth="yes"/>
      <point x="1097" y="596" type="line" smooth="yes"/>
      <point x="1119.67" y="596"/>
      <point x="1135.83" y="591"/>
      <point x="1145.5" y="581" type="curve" smooth="yes"/>
      <point x="1155.17" y="571"/>
      <point x="1160" y="553.333"/>
      <point x="1160" y="528" type="curve" smooth="yes"/>
      <point x="1160" y="502.667"/>
      <point x="1155.17" y="485"/>
      <point x="1145.5" y="475" type="curve" smooth="yes"/>
      <point x="1135.83" y="465"/>
      <point x="1119.67" y="460"/>
      <point x="1097" y="460" type="curve" smooth="yes"/>
      <point x="1065" y="460" type="line"/>
      <point x="1065" y="143" type="line" smooth="yes"/>
      <point x="1065" y="110.333"/>
      <point x="1053" y="87.3333"/>
      <point x="1029" y="74" type="curve" smooth="yes"/>
      <point x="973.667" y="42"/>
      <point x="910.333" y="18"/>
      <point x="839" y="2" type="curve" smooth="yes"/>
      <point x="767.667" y="-14"/>
      <point x="693.333" y="-22"/>
      <point x="616" y="-22" type="curve" smooth="yes"/>
      <point x="537.333" y="-22"/>
      <point x="465.667" y="-7.33333"/>
      <point x="401" y="22" type="curve" smooth="yes"/>
      <point x="336.333" y="51.3333"/>
      <point x="281" y="92.8333"/>
      <point x="235" y="146.5" type="curve" smooth="yes"/>
      <point x="189" y="200.167"/>
      <point x="153.333" y="264.833"/>
      <point x="128" y="340.5" type="curve" smooth="yes"/>
      <point x="102.667" y="416.167"/>
      <point x="90" y="500.333"/>
      <point x="90" y="593" type="curve" smooth="yes"/>
      <point x="90" y="685.667"/>
      <point x="103.167" y="769.833"/>
      <point x="129.5" y="845.5" type="curve" smooth="yes"/>
      <point x="155.833" y="921.167"/>
      <point x="192.333" y="986"/>
      <point x="239" y="1040" type="curve" smooth="yes"/>
      <point x="285.667" y="1094"/>
      <point x="341.167" y="1135.67"/>
      <point x="405.5" y="1165" type="curve" smooth="yes"/>
      <point x="469.833" y="1194.33"/>
      <point x="540" y="1209"/>
      <point x="616" y="1209" type="curve" smooth="yes"/>
      <point x="680.667" y="1209"/>
      <point x="736.833" y="1199"/>
      <point x="784.5" y="1179" type="curve" smooth="yes"/>
      <point x="832.167" y="1159"/>
      <point x="872" y="1131"/>
      <point x="904" y="1095" type="curve"/>
      <point x="904" y="1144" type="line" smooth="yes"/>
      <point x="904" y="1167.33"/>
      <point x="909.5" y="1184"/>
      <point x="920.5" y="1194" type="curve" smooth="yes"/>
      <point x="931.5" y="1204"/>
      <point x="951" y="1209"/>
      <point x="979" y="1209" type="curve" smooth="yes"/>
      <point x="1007" y="1209"/>
      <point x="1026.5" y="1204"/>
      <point x="1037.5" y="1194" type="curve" smooth="yes"/>
      <point x="1048.5" y="1184"/>
      <point x="1054" y="1167.33"/>
      <point x="1054" y="1144" type="curve" smooth="yes"/>
      <point x="1054" y="854" type="line" smooth="yes"/>
      <point x="1054" y="830.667"/>
      <point x="1048.5" y="814"/>
      <point x="1037.5" y="804" type="curve" smooth="yes"/>
      <point x="1026.5" y="794"/>
      <point x="1007" y="789"/>
      <point x="979" y="789" type="curve" smooth="yes"/>
      <point x="951" y="789"/>
      <point x="931.5" y="794"/>
      <point x="920.5" y="804" type="curve" smooth="yes"/>
      <point x="909.5" y="814"/>
      <point x="904" y="830.667"/>
      <point x="904" y="854" type="curve" smooth="yes"/>
      <point x="904" y="884"/>
      <point x="897.833" y="911.667"/>
      <point x="885.5" y="937" type="curve" smooth="yes"/>
      <point x="873.167" y="962.333"/>
      <point x="855.333" y="984.167"/>
      <point x="832" y="1002.5" type="curve" smooth="yes"/>
      <point x="808.667" y="1020.83"/>
      <point x="779.667" y="1035.17"/>
      <point x="745" y="1045.5" type="curve" smooth="yes"/>
      <point x="710.333" y="1055.83"/>
      <point x="670.667" y="1061"/>
      <point x="626" y="1061" type="curve" smooth="yes"/>
      <point x="570.667" y="1061"/>
      <point x="519.833" y="1050.17"/>
      <point x="473.5" y="1028.5" type="curve" smooth="yes"/>
      <point x="427.167" y="1006.83"/>
      <point x="387.333" y="975.667"/>
      <point x="354" y="935" type="curve" smooth="yes"/>
      <point x="320.667" y="894.333"/>
      <point x="294.667" y="845.167"/>
      <point x="276" y="787.5" type="curve" smooth="yes"/>
      <point x="257.333" y="729.833"/>
      <point x="248" y="665"/>
      <point x="248" y="593" type="curve" smooth="yes"/>
      <point x="248" y="521"/>
      <point x="256.833" y="456.167"/>
      <point x="274.5" y="398.5" type="curve" smooth="yes"/>
      <point x="292.167" y="340.833"/>
      <point x="317" y="291.833"/>
      <point x="349" y="251.5" type="curve" smooth="yes"/>
      <point x="381" y="211.167"/>
      <point x="419.667" y="180.167"/>
      <point x="465" y="158.5" type="curve" smooth="yes"/>
      <point x="510.333" y="136.833"/>
      <point x="560.667" y="126"/>
      <point x="616" y="126" type="curve" smooth="yes"/>
      <point x="672.667" y="126"/>
      <point x="725.667" y="130.5"/>
      <point x="775" y="139.5" type="curve" smooth="yes"/>
      <point x="824.333" y="148.5"/>
      <point x="871" y="163"/>
      <point x="915" y="183" type="curve"/>
      <point x="915" y="460" type="line"/>
    </contour>
    <contour>
      <point x="1145" y="370" type="line" smooth="yes"/>
      <point x="1167.67" y="370"/>
      <point x="1183.83" y="365"/>
      <point x="1193.5" y="355" type="curve" smooth="yes"/>
      <point x="1203.17" y="345"/>
      <point x="1208" y="327.333"/>
      <point x="1208" y="302" type="curve" smooth="yes"/>
      <point x="1208" y="276.667"/>
      <point x="1203.17" y="259"/>
      <point x="1193.5" y="249" type="curve" smooth="yes"/>
      <point x="1183.83" y="239"/>
      <point x="1167.67" y="234"/>
      <point x="1145" y="234" type="curve" smooth="yes"/>
      <point x="583" y="234" type="line" smooth="yes"/>
      <point x="560.333" y="234"/>
      <point x="544.167" y="239"/>
      <point x="534.5" y="249" type="curve" smooth="yes"/>
      <point x="524.833" y="259"/>
      <point x="520" y="276.667"/>
      <point x="520" y="302" type="curve" smooth="yes"/>
      <point x="520" y="327.333"/>
      <point x="524.833" y="345"/>
      <point x="534.5" y="355" type="curve" smooth="yes"/>
      <point x="544.167" y="365"/>
      <point x="560.333" y="370"/>
      <point x="583" y="370" type="curve" smooth="yes"/>
    </contour>
  </outline>
</glyph>
<glyph name="uni01F6" format="1">
  <advance width="1228"/>
  <unicode hex="01F6"/>
  <outline>
    <contour>
      <point x="539" y="544" type="line"/>
      <point x="265" y="544" type="line"/>
      <point x="265" y="136" type="line"/>
      <point x="302" y="136" type="line" smooth="yes"/>
      <point x="324.667" y="136"/>
      <point x="340.833" y="131"/>
      <point x="350.5" y="121" type="curve" smooth="yes"/>
      <point x="360.167" y="111"/>
      <point x="365" y="93.3333"/>
      <point x="365" y="68" type="curve" smooth="yes"/>
      <point x="365" y="42.6667"/>
      <point x="360.167" y="25"/>
      <point x="350.5" y="15" type="curve" smooth="yes"/>
      <point x="340.833" y="5"/>
      <point x="324.667" y="0"/>
      <point x="302" y="0" type="curve" smooth="yes"/>
      <point x="68" y="0" type="line" smooth="yes"/>
      <point x="45.3333" y="0"/>
      <point x="29.1667" y="5"/>
      <point x="19.5" y="15" type="curve" smooth="yes"/>
      <point x="9.83333" y="25"/>
      <point x="5" y="42.6667"/>
      <point x="5" y="68" type="curve" smooth="yes"/>
      <point x="5" y="93.3333"/>
      <point x="9.83333" y="111"/>
      <point x="19.5" y="121" type="curve" smooth="yes"/>
      <point x="29.1667" y="131"/>
      <point x="45.3333" y="136"/>
      <point x="68" y="136" type="curve" smooth="yes"/>
      <point x="115" y="136" type="line"/>
      <point x="115" y="1051" type="line"/>
      <point x="68" y="1051" type="line" smooth="yes"/>
      <point x="45.3333" y="1051"/>
      <point x="29.1667" y="1056"/>
      <point x="19.5" y="1066" type="curve" smooth="yes"/>
      <point x="9.83333" y="1076"/>
      <point x="5" y="1093.67"/>
      <point x="5" y="1119" type="curve" smooth="yes"/>
      <point x="5" y="1144.33"/>
      <point x="9.83333" y="1162"/>
      <point x="19.5" y="1172" type="curve" smooth="yes"/>
      <point x="29.1667" y="1182"/>
      <point x="45.3333" y="1187"/>
      <point x="68" y="1187" type="curve" smooth="yes"/>
      <point x="297" y="1187" type="line" smooth="yes"/>
      <point x="319.667" y="1187"/>
      <point x="335.833" y="1182"/>
      <point x="345.5" y="1172" type="curve" smooth="yes"/>
      <point x="355.167" y="1162"/>
      <point x="360" y="1144.33"/>
      <point x="360" y="1119" type="curve" smooth="yes"/>
      <point x="360" y="1093.67"/>
      <point x="355.167" y="1076"/>
      <point x="345.5" y="1066" type="curve" smooth="yes"/>
      <point x="335.833" y="1056"/>
      <point x="319.667" y="1051"/>
      <point x="297" y="1051" type="curve" smooth="yes"/>
      <point x="265" y="1051" type="line"/>
      <point x="265" y="680" type="line"/>
      <point x="539" y="680" type="line"/>
      <point x="539" y="1051" type="line"/>
      <point x="507" y="1051" type="line" smooth="yes"/>
      <point x="484.333" y="1051"/>
      <point x="468.167" y="1056"/>
      <point x="458.5" y="1066" type="curve" smooth="yes"/>
      <point x="448.833" y="1076"/>
      <point x="444" y="1093.67"/>
      <point x="444" y="1119" type="curve" smooth="yes"/>
      <point x="444" y="1144.33"/>
      <point x="448.833" y="1162"/>
      <point x="458.5" y="1172" type="curve" smooth="yes"/>
      <point x="468.167" y="1182"/>
      <point x="484.333" y="1187"/>
      <point x="507" y="1187" type="curve" smooth="yes"/>
      <point x="721" y="1187" type="line" smooth="yes"/>
      <point x="743.667" y="1187"/>
      <point x="759.833" y="1182"/>
      <point x="769.5" y="1172" type="curve" smooth="yes"/>
      <point x="779.167" y="1162"/>
      <point x="784" y="1144.33"/>
      <point x="784" y="1119" type="curve" smooth="yes"/>
      <point x="784" y="1093.67"/>
      <point x="779.167" y="1076"/>
      <point x="769.5" y="1066" type="curve" smooth="yes"/>
      <point x="759.833" y="1056"/>
      <point x="743.667" y="1051"/>
      <point x="721" y="1051" type="curve" smooth="yes"/>
      <point x="689" y="1051" type="line"/>
      <point x="689" y="413" type="line" smooth="yes"/>
      <point x="689" y="361"/>
      <point x="691.833" y="316.833"/>
      <point x="697.5" y="280.5" type="curve" smooth="yes"/>
      <point x="703.167" y="244.167"/>
      <point x="711.833" y="214.5"/>
      <point x="723.5" y="191.5" type="curve" smooth="yes"/>
      <point x="735.167" y="168.5"/>
      <point x="749.667" y="151.833"/>
      <point x="767" y="141.5" type="curve" smooth="yes"/>
      <point x="784.333" y="131.167"/>
      <point x="804.667" y="126"/>
      <point x="828" y="126" type="curve" smooth="yes"/>
      <point x="852" y="126"/>
      <point x="872.667" y="131.167"/>
      <point x="890" y="141.5" type="curve" smooth="yes"/>
      <point x="907.333" y="151.833"/>
      <point x="921.833" y="168.5"/>
      <point x="933.5" y="191.5" type="curve" smooth="yes"/>
      <point x="945.167" y="214.5"/>
      <point x="953.833" y="244.167"/>
      <point x="959.5" y="280.5" type="curve" smooth="yes"/>
      <point x="965.167" y="316.833"/>
      <point x="968" y="361"/>
      <point x="968" y="413" type="curve" smooth="yes"/>
      <point x="968" y="1051" type="line"/>
      <point x="936" y="1051" type="line" smooth="yes"/>
      <point x="913.333" y="1051"/>
      <point x="897.167" y="1056"/>
      <point x="887.5" y="1066" type="curve" smooth="yes"/>
      <point x="877.833" y="1076"/>
      <point x="873" y="1093.67"/>
      <point x="873" y="1119" type="curve" smooth="yes"/>
      <point x="873" y="1144.33"/>
      <point x="877.833" y="1162"/>
      <point x="887.5" y="1172" type="curve" smooth="yes"/>
      <point x="897.167" y="1182"/>
      <point x="913.333" y="1187"/>
      <point x="936" y="1187" type="curve" smooth="yes"/>
      <point x="1165" y="1187" type="line" smooth="yes"/>
      <point x="1187.67" y="1187"/>
      <point x="1203.83" y="1182"/>
      <point x="1213.5" y="1172" type="curve" smooth="yes"/>
      <point x="1223.17" y="1162"/>
      <point x="1228" y="1144.33"/>
      <point x="1228" y="1119" type="curve" smooth="yes"/>
      <point x="1228" y="1093.67"/>
      <point x="1223.17" y="1076"/>
      <point x="1213.5" y="1066" type="curve" smooth="yes"/>
      <point x="1203.83" y="1056"/>
      <point x="1187.67" y="1051"/>
      <point x="1165" y="1051" type="curve" smooth="yes"/>
      <point x="1118" y="1051" type="line"/>
      <point x="1118" y="393" type="line" smooth="yes"/>
      <point x="1118" y="321.667"/>
      <point x="1111.33" y="260"/>
      <point x="1098" y="208" type="curve" smooth="yes"/>
      <point x="1084.67" y="156"/>
      <point x="1065.5" y="113"/>
      <point x="1040.5" y="79" type="curve" smooth="yes"/>
      <point x="1015.5" y="45"/>
      <point x="985.167" y="19.6667"/>
      <point x="949.5" y="3" type="curve" smooth="yes"/>
      <point x="913.833" y="-13.6667"/>
      <point x="873.333" y="-22"/>
      <point x="828" y="-22" type="curve" smooth="yes"/>
      <point x="783.333" y="-22"/>
      <point x="743.167" y="-13.6667"/>
      <point x="707.5" y="3" type="curve" smooth="yes"/>
      <point x="671.833" y="19.6667"/>
      <point x="641.5" y="45"/>
      <point x="616.5" y="79" type="curve" smooth="yes"/>
      <point x="591.5" y="113"/>
      <point x="572.333" y="156"/>
      <point x="559" y="208" type="curve" smooth="yes"/>
      <point x="545.667" y="260"/>
      <point x="539" y="321.667"/>
      <point x="539" y="393" type="curve" smooth="yes"/>
    </contour>
  </outline>
</glyph>
<glyph name="uni01F7" format="1">
  <advance width="1228"/>
  <unicode hex="01F7"/>
  <outline>
    <contour>
      <point x="202" y="1051" type="line"/>
      <point x="100" y="1051" type="line" smooth="yes"/>
      <point x="77.3333" y="1051"/>
      <point x="61.1667" y="1056"/>
      <point x="51.5" y="1066" type="curve" smooth="yes"/>
      <point x="41.8333" y="1076"/>
      <point x="37" y="1093.67"/>
      <point x="37" y="1119" type="curve" smooth="yes"/>
      <point x="37" y="1144.33"/>
      <point x="41.8333" y="1162"/>
      <point x="51.5" y="1172" type="curve" smooth="yes"/>
      <point x="61.1667" y="1182"/>
      <point x="77.3333" y="1187"/>
      <point x="100" y="1187" type="curve" smooth="yes"/>
      <point x="279" y="1187" type="line" smooth="yes"/>
      <point x="301.667" y="1187"/>
      <point x="317.833" y="1182"/>
      <point x="327.5" y="1172" type="curve" smooth="yes"/>
      <point x="337.167" y="1162"/>
      <point x="342" y="1144.33"/>
      <point x="342" y="1119" type="curve" smooth="yes"/>
      <point x="342" y="1094" type="line"/>
      <point x="342" y="1086" type="line"/>
      <point x="372.667" y="1124.67"/>
      <point x="410.833" y="1154.83"/>
      <point x="456.5" y="1176.5" type="curve" smooth="yes"/>
      <point x="502.167" y="1198.17"/>
      <point x="555.333" y="1209"/>
      <point x="616" y="1209" type="curve" smooth="yes"/>
      <point x="687.333" y="1209"/>
      <point x="752.833" y="1194.33"/>
      <point x="812.5" y="1165" type="curve" smooth="yes"/>
      <point x="872.167" y="1135.67"/>
      <point x="923.333" y="1094"/>
      <point x="966" y="1040" type="curve" smooth="yes"/>
      <point x="1008.67" y="986"/>
      <point x="1041.83" y="921.167"/>
      <point x="1065.5" y="845.5" type="curve" smooth="yes"/>
      <point x="1089.17" y="769.833"/>
      <point x="1101" y="685.667"/>
      <point x="1101" y="593" type="curve" smooth="yes"/>
      <point x="1101" y="500.333"/>
      <point x="1089.5" y="416.167"/>
      <point x="1066.5" y="340.5" type="curve" smooth="yes"/>
      <point x="1043.5" y="264.833"/>
      <point x="1001.17" y="188.333"/>
      <point x="939.5" y="111" type="curve" smooth="yes"/>
      <point x="877.833" y="33.6667"/>
      <point x="789.667" y="-30.3333"/>
      <point x="675" y="-81" type="curve" smooth="yes"/>
      <point x="560.333" y="-131.667"/>
      <point x="452.667" y="-157"/>
      <point x="352" y="-157" type="curve"/>
      <point x="352" y="-257" type="line"/>
      <point x="592" y="-257" type="line" smooth="yes"/>
      <point x="614.667" y="-257"/>
      <point x="630.833" y="-262"/>
      <point x="640.5" y="-272" type="curve" smooth="yes"/>
      <point x="650.167" y="-282"/>
      <point x="655" y="-299.667"/>
      <point x="655" y="-325" type="curve" smooth="yes"/>
      <point x="655" y="-350.333"/>
      <point x="650.167" y="-368"/>
      <point x="640.5" y="-378" type="curve" smooth="yes"/>
      <point x="630.833" y="-388"/>
      <point x="614.667" y="-393"/>
      <point x="592" y="-393" type="curve" smooth="yes"/>
      <point x="143" y="-393" type="line" smooth="yes"/>
      <point x="120.333" y="-393"/>
      <point x="104.167" y="-388"/>
      <point x="94.5" y="-378" type="curve" smooth="yes"/>
      <point x="84.8333" y="-368"/>
      <point x="80" y="-350.333"/>
      <point x="80" y="-325" type="curve" smooth="yes"/>
      <point x="80" y="-299.667"/>
      <point x="84.8333" y="-282"/>
      <point x="94.5" y="-272" type="curve" smooth="yes"/>
      <point x="104.167" y="-262"/>
      <point x="120.333" y="-257"/>
      <point x="143" y="-257" type="curve" smooth="yes"/>
      <point x="202" y="-257" type="line"/>
    </contour>
    <contour>
      <point x="352" y="814" type="curve" smooth="yes"/>
      <point x="352" y="-9" type="line"/>
      <point x="434.667" y="-9"/>
      <point x="522.333" y="10.6667"/>
      <point x="615" y="50" type="curve" smooth="yes"/>
      <point x="707.667" y="89.3333"/>
      <point x="777.667" y="142.833"/>
      <point x="825" y="210.5" type="curve" smooth="yes"/>
      <point x="872.333" y="278.167"/>
      <point x="903.833" y="340.833"/>
      <point x="919.5" y="398.5" type="curve" smooth="yes"/>
      <point x="935.167" y="456.167"/>
      <point x="943" y="521"/>
      <point x="943" y="593" type="curve" smooth="yes"/>
      <point x="943" y="665"/>
      <point x="934.833" y="729.833"/>
      <point x="918.5" y="787.5" type="curve" smooth="yes"/>
      <point x="902.167" y="845.167"/>
      <point x="879.167" y="894.333"/>
      <point x="849.5" y="935" type="curve" smooth="yes"/>
      <point x="819.833" y="975.667"/>
      <point x="784.333" y="1006.83"/>
      <point x="743" y="1028.5" type="curve" smooth="yes"/>
      <point x="701.667" y="1050.17"/>
      <point x="656.333" y="1061"/>
      <point x="607" y="1061" type="curve" smooth="yes"/>
      <point x="563.667" y="1061"/>
      <point x="525.833" y="1054.33"/>
      <point x="493.5" y="1041" type="curve" smooth="yes"/>
      <point x="461.167" y="1027.67"/>
      <point x="434.5" y="1009.67"/>
      <point x="413.5" y="987" type="curve" smooth="yes"/>
      <point x="392.5" y="964.333"/>
      <point x="377" y="938"/>
      <point x="367" y="908" type="curve" smooth="yes"/>
      <point x="357" y="878"/>
      <point x="352" y="846.667"/>
    </contour>
  </outline>
</glyph>
<glyph name="uni0220" format="1">
  <advance width="1228"/>
  <unicode hex="0220"/>
  <outline>
    <contour>
      <point x="210" y="1051" type="line"/>
      <point x="133" y="1051" type="line" smooth="yes"/>
      <point x="110.333" y="1051"/>
      <point x="94.1667" y="1056"/>
      <point x="84.5" y="1066" type="curve" smooth="yes"/>
      <point x="74.8333" y="1076"/>
      <point x="70" y="1093.67"/>
      <point x="70" y="1119" type="curve" smooth="yes"/>
      <point x="70" y="1144.33"/>
      <point x="74.8333" y="1162"/>
      <point x="84.5" y="1172" type="curve" smooth="yes"/>
      <point x="94.1667" y="1182"/>
      <point x="110.333" y="1187"/>
      <point x="133" y="1187" type="curve" smooth="yes"/>
      <point x="357" y="1187" type="line" smooth="yes"/>
      <point x="384.333" y="1187"/>
      <point x="403.333" y="1177.67"/>
      <point x="414" y="1159" type="curve" smooth="yes"/>
      <point x="888" y="311" type="line"/>
      <point x="888" y="1176" type="line"/>
      <point x="771" y="1176" type="line" smooth="yes"/>
      <point x="748.333" y="1176"/>
      <point x="732.167" y="1181"/>
      <point x="722.5" y="1191" type="curve" smooth="yes"/>
      <point x="712.833" y="1201"/>
      <point x="708" y="1218.67"/>
      <point x="708" y="1244" type="curve" smooth="yes"/>
      <point x="708" y="1269.33"/>
      <point x="712.833" y="1287"/>
      <point x="722.5" y="1297" type="curve" smooth="yes"/>
      <point x="732.167" y="1307"/>
      <point x="748.333" y="1312"/>
      <point x="771" y="1312" type="curve" smooth="yes"/>
      <point x="1095" y="1312" type="line" smooth="yes"/>
      <point x="1117.67" y="1312"/>
      <point x="1133.83" y="1307"/>
      <point x="1143.5" y="1297" type="curve" smooth="yes"/>
      <point x="1153.17" y="1287"/>
      <point x="1158" y="1269.33"/>
      <point x="1158" y="1244" type="curve" smooth="yes"/>
      <point x="1158" y="1218.67"/>
      <point x="1153.17" y="1201"/>
      <point x="1143.5" y="1191" type="curve" smooth="yes"/>
      <point x="1133.83" y="1181"/>
      <point x="1117.67" y="1176"/>
      <point x="1095" y="1176" type="curve" smooth="yes"/>
      <point x="1038" y="1176" type="line"/>
      <point x="1038" y="37" type="line" smooth="yes"/>
      <point x="1038" y="19.6667"/>
      <point x="1032" y="5.5"/>
      <point x="1020" y="-5.5" type="curve" smooth="yes"/>
      <point x="1008" y="-16.5"/>
      <point x="989" y="-22"/>
      <point x="963" y="-22" type="curve" smooth="yes"/>
      <point x="943.667" y="-22"/>
      <point x="927.333" y="-17.3333"/>
      <point x="914" y="-8" type="curve" smooth="yes"/>
      <point x="900" y="2"/>
      <point x="888.333" y="15.6667"/>
      <point x="879" y="33" type="curve" smooth="yes"/>
      <point x="360" y="960" type="line"/>
      <point x="360" y="136" type="line"/>
      <point x="497" y="136" type="line" smooth="yes"/>
      <point x="519.667" y="136"/>
      <point x="535.833" y="131"/>
      <point x="545.5" y="121" type="curve" smooth="yes"/>
      <point x="555.167" y="111"/>
      <point x="560" y="93.3333"/>
      <point x="560" y="68" type="curve" smooth="yes"/>
      <point x="560" y="42.6667"/>
      <point x="555.167" y="25"/>
      <point x="545.5" y="15" type="curve" smooth="yes"/>
      <point x="535.833" y="5"/>
      <point x="519.667" y="0"/>
      <point x="497" y="0" type="curve" smooth="yes"/>
      <point x="143" y="0" type="line" smooth="yes"/>
      <point x="120.333" y="0"/>
      <point x="104.167" y="5"/>
      <point x="94.5" y="15" type="curve" smooth="yes"/>
      <point x="84.8333" y="25"/>
      <point x="80" y="42.6667"/>
      <point x="80" y="68" type="curve" smooth="yes"/>
      <point x="80" y="93.3333"/>
      <point x="84.8333" y="111"/>
      <point x="94.5" y="121" type="curve" smooth="yes"/>
      <point x="104.167" y="131"/>
      <point x="120.333" y="136"/>
      <point x="143" y="136" type="curve" smooth="yes"/>
      <point x="210" y="136" type="line"/>
    </contour>
  </outline>
</glyph>
<glyph name="uni0224" format="1">
  <advance width="1228"/>
  <unicode hex="0224"/>
  <outline>
    <contour>
      <point x="230" y="0" type="line" smooth="yes"/>
      <point x="207.333" y="0"/>
      <point x="191.167" y="5"/>
      <point x="181.5" y="15" type="curve" smooth="yes"/>
      <point x="171.833" y="25"/>
      <point x="167" y="42.6667"/>
      <point x="167" y="68" type="curve" smooth="yes"/>
      <point x="167" y="77.3333"/>
      <point x="168.333" y="85.3333"/>
      <point x="171" y="92" type="curve" smooth="yes"/>
      <point x="173.667" y="98.6667"/>
      <point x="177" y="105"/>
      <point x="181" y="111" type="curve" smooth="yes"/>
      <point x="840" y="1051" type="line"/>
      <point x="338" y="1051" type="line"/>
      <point x="338" y="802" type="line" smooth="yes"/>
      <point x="338" y="778.667"/>
      <point x="332.5" y="762"/>
      <point x="321.5" y="752" type="curve" smooth="yes"/>
      <point x="310.5" y="742"/>
      <point x="291" y="737"/>
      <point x="263" y="737" type="curve" smooth="yes"/>
      <point x="235" y="737"/>
      <point x="215.5" y="742"/>
      <point x="204.5" y="752" type="curve" smooth="yes"/>
      <point x="193.5" y="762"/>
      <point x="188" y="778.667"/>
      <point x="188" y="802" type="curve" smooth="yes"/>
      <point x="188" y="1119" type="line" smooth="yes"/>
      <point x="188" y="1144.33"/>
      <point x="192.833" y="1162"/>
      <point x="202.5" y="1172" type="curve" smooth="yes"/>
      <point x="212.167" y="1182"/>
      <point x="228.333" y="1187"/>
      <point x="251" y="1187" type="curve" smooth="yes"/>
      <point x="987" y="1187" type="line" smooth="yes"/>
      <point x="1009.67" y="1187"/>
      <point x="1025.83" y="1182"/>
      <point x="1035.5" y="1172" type="curve" smooth="yes"/>
      <point x="1045.17" y="1162"/>
      <point x="1050" y="1144.33"/>
      <point x="1050" y="1119" type="curve" smooth="yes"/>
      <point x="1050" y="1102.33"/>
      <point x="1046.67" y="1089.33"/>
      <point x="1040" y="1080" type="curve" smooth="yes"/>
      <point x="377" y="136" type="line"/>
      <point x="996" y="136" type="line" smooth="yes"/>
      <point x="1018.67" y="136"/>
      <point x="1034.83" y="131"/>
      <point x="1044.5" y="121" type="curve" smooth="yes"/>
      <point x="1054.17" y="111"/>
      <point x="1059" y="93.3333"/>
      <point x="1059" y="68" type="curve" smooth="yes"/>
      <point x="1059" y="-269" type="line" smooth="yes"/>
      <point x="1059" y="-292.333"/>
      <point x="1053.5" y="-309"/>
      <point x="1042.5" y="-319" type="curve" smooth="yes"/>
      <point x="1031.5" y="-329"/>
      <point x="1012" y="-334"/>
      <point x="984" y="-334" type="curve" smooth="yes"/>
      <point x="956" y="-334"/>
      <point x="936.5" y="-329"/>
      <point x="925.5" y="-319" type="curve" smooth="yes"/>
      <point x="914.5" y="-309"/>
      <point x="909" y="-292.333"/>
      <point x="909" y="-269" type="curve" smooth="yes"/>
      <point x="909" y="0" type="line"/>
    </contour>
  </outline>
</glyph>
<glyph name="uni0241" format="1">
  <advance width="1228"/>
  <unicode hex="0241"/>
  <outline>
    <contour>
      <point x="495" y="605" type="line" smooth="yes"/>
      <point x="495" y="618.333"/>
      <point x="497" y="629"/>
      <point x="501" y="637" type="curve" smooth="yes"/>
      <point x="505.667" y="645"/>
      <point x="513.667" y="651.333"/>
      <point x="525" y="656" type="curve" smooth="yes"/>
      <point x="594" y="684" type="line" smooth="yes"/>
      <point x="632.667" y="700"/>
      <point x="665.5" y="715.167"/>
      <point x="692.5" y="729.5" type="curve" smooth="yes"/>
      <point x="719.5" y="743.833"/>
      <point x="742" y="759.167"/>
      <point x="760" y="775.5" type="curve" smooth="yes"/>
      <point x="778" y="791.833"/>
      <point x="791.167" y="809.667"/>
      <point x="799.5" y="829" type="curve" smooth="yes"/>
      <point x="807.833" y="848.333"/>
      <point x="812" y="870.667"/>
      <point x="812" y="896" type="curve" smooth="yes"/>
      <point x="812" y="944.667"/>
      <point x="795.5" y="984.333"/>
      <point x="762.5" y="1015" type="curve" smooth="yes"/>
      <point x="729.5" y="1045.67"/>
      <point x="681.667" y="1061"/>
      <point x="619" y="1061" type="curve" smooth="yes"/>
      <point x="578.333" y="1061"/>
      <point x="540.167" y="1058.17"/>
      <point x="504.5" y="1052.5" type="curve" smooth="yes"/>
      <point x="468.833" y="1046.83"/>
      <point x="435.333" y="1037.33"/>
      <point x="404" y="1024" type="curve"/>
      <point x="404" y="935" type="line" smooth="yes"/>
      <point x="404" y="911.667"/>
      <point x="398.5" y="895"/>
      <point x="387.5" y="885" type="curve" smooth="yes"/>
      <point x="376.5" y="875"/>
      <point x="357" y="870"/>
      <point x="329" y="870" type="curve" smooth="yes"/>
      <point x="301" y="870"/>
      <point x="281.5" y="875"/>
      <point x="270.5" y="885" type="curve" smooth="yes"/>
      <point x="259.5" y="895"/>
      <point x="254" y="911.667"/>
      <point x="254" y="935" type="curve" smooth="yes"/>
      <point x="254" y="1062" type="line" smooth="yes"/>
      <point x="254" y="1089.33"/>
      <point x="262.333" y="1108"/>
      <point x="279" y="1118" type="curve" smooth="yes"/>
      <point x="329.667" y="1148.67"/>
      <point x="383.5" y="1171.5"/>
      <point x="440.5" y="1186.5" type="curve" smooth="yes"/>
      <point x="497.5" y="1201.5"/>
      <point x="556.667" y="1209"/>
      <point x="618" y="1209" type="curve" smooth="yes"/>
      <point x="673.333" y="1209"/>
      <point x="722.833" y="1201.33"/>
      <point x="766.5" y="1186" type="curve" smooth="yes"/>
      <point x="810.167" y="1170.67"/>
      <point x="847" y="1149.33"/>
      <point x="877" y="1122" type="curve" smooth="yes"/>
      <point x="907" y="1094.67"/>
      <point x="930" y="1061.67"/>
      <point x="946" y="1023" type="curve" smooth="yes"/>
      <point x="962" y="984.333"/>
      <point x="970" y="942"/>
      <point x="970" y="896" type="curve" smooth="yes"/>
      <point x="970" y="851.333"/>
      <point x="963.167" y="812.167"/>
      <point x="949.5" y="778.5" type="curve" smooth="yes"/>
      <point x="935.833" y="744.833"/>
      <point x="915.667" y="714.667"/>
      <point x="889" y="688" type="curve" smooth="yes"/>
      <point x="862.333" y="661.333"/>
      <point x="829.167" y="637"/>
      <point x="789.5" y="615" type="curve" smooth="yes"/>
      <point x="749.833" y="593"/>
      <point x="704.333" y="571.667"/>
      <point x="653" y="551" type="curve"/>
      <point x="653" y="136" type="line"/>
      <point x="849" y="136" type="line" smooth="yes"/>
      <point x="871.667" y="136"/>
      <point x="887.833" y="131"/>
      <point x="897.5" y="121" type="curve" smooth="yes"/>
      <point x="907.167" y="111"/>
      <point x="912" y="93.3333"/>
      <point x="912" y="68" type="curve" smooth="yes"/>
      <point x="912" y="42.6667"/>
      <point x="907.167" y="25"/>
      <point x="897.5" y="15" type="curve" smooth="yes"/>
      <point x="887.833" y="5"/>
      <point x="871.667" y="0"/>
      <point x="849" y="0" type="curve" smooth="yes"/>
      <point x="337" y="0" type="line" smooth="yes"/>
      <point x="314.333" y="0"/>
      <point x="298.167" y="5"/>
      <point x="288.5" y="15" type="curve" smooth="yes"/>
      <point x="278.833" y="25"/>
      <point x="274" y="42.6667"/>
      <point x="274" y="68" type="curve" smooth="yes"/>
      <point x="274" y="93.3333"/>
      <point x="278.833" y="111"/>
      <point x="288.5" y="121" type="curve" smooth="yes"/>
      <point x="298.167" y="131"/>
      <point x="314.333" y="136"/>
      <point x="337" y="136" type="curve" smooth="yes"/>
      <point x="495" y="136" type="line"/>
    </contour>
  </outline>
</glyph>
<glyph name="uni0242" format="1">
  <advance width="1228"/>
  <unicode hex="0242"/>
  <outline>
    <contour>
      <point x="500" y="480" type="line" smooth="yes"/>
      <point x="500" y="489.333"/>
      <point x="502" y="497"/>
      <point x="506" y="503" type="curve" smooth="yes"/>
      <point x="510" y="509"/>
      <point x="517.667" y="513.667"/>
      <point x="529" y="517" type="curve" smooth="yes"/>
      <point x="594" y="537" type="line" smooth="yes"/>
      <point x="630" y="548.333"/>
      <point x="661.167" y="559.167"/>
      <point x="687.5" y="569.5" type="curve" smooth="yes"/>
      <point x="713.833" y="579.833"/>
      <point x="735.5" y="590.833"/>
      <point x="752.5" y="602.5" type="curve" smooth="yes"/>
      <point x="769.5" y="614.167"/>
      <point x="782" y="627"/>
      <point x="790" y="641" type="curve" smooth="yes"/>
      <point x="798" y="655"/>
      <point x="802" y="671"/>
      <point x="802" y="689" type="curve" smooth="yes"/>
      <point x="802" y="723.667"/>
      <point x="786.333" y="752.167"/>
      <point x="755" y="774.5" type="curve" smooth="yes"/>
      <point x="723.667" y="796.833"/>
      <point x="678" y="808"/>
      <point x="618" y="808" type="curve" smooth="yes"/>
      <point x="579.333" y="808"/>
      <point x="543.167" y="806"/>
      <point x="509.5" y="802" type="curve" smooth="yes"/>
      <point x="475.833" y="798"/>
      <point x="444" y="791"/>
      <point x="414" y="781" type="curve"/>
      <point x="414" y="717" type="line" smooth="yes"/>
      <point x="414" y="700.333"/>
      <point x="408.5" y="688.5"/>
      <point x="397.5" y="681.5" type="curve" smooth="yes"/>
      <point x="386.5" y="674.5"/>
      <point x="367" y="671"/>
      <point x="339" y="671" type="curve" smooth="yes"/>
      <point x="311" y="671"/>
      <point x="291.5" y="675.167"/>
      <point x="280.5" y="683.5" type="curve" smooth="yes"/>
      <point x="269.5" y="691.833"/>
      <point x="264" y="706"/>
      <point x="264" y="726" type="curve" smooth="yes"/>
      <point x="264" y="833" type="line" smooth="yes"/>
      <point x="264" y="856.333"/>
      <point x="272" y="872"/>
      <point x="288" y="880" type="curve" smooth="yes"/>
      <point x="337.333" y="906"/>
      <point x="389.667" y="925.333"/>
      <point x="445" y="938" type="curve" smooth="yes"/>
      <point x="500.333" y="950.667"/>
      <point x="558" y="957"/>
      <point x="618" y="957" type="curve" smooth="yes"/>
      <point x="672" y="957"/>
      <point x="720.167" y="951"/>
      <point x="762.5" y="939" type="curve" smooth="yes"/>
      <point x="804.833" y="927"/>
      <point x="840.5" y="910.333"/>
      <point x="869.5" y="889" type="curve" smooth="yes"/>
      <point x="898.5" y="867.667"/>
      <point x="920.833" y="841.833"/>
      <point x="936.5" y="811.5" type="curve" smooth="yes"/>
      <point x="952.167" y="781.167"/>
      <point x="960" y="748"/>
      <point x="960" y="712" type="curve" smooth="yes"/>
      <point x="960" y="677.333"/>
      <point x="953.5" y="646.667"/>
      <point x="940.5" y="620" type="curve" smooth="yes"/>
      <point x="927.5" y="593.333"/>
      <point x="908.333" y="569.5"/>
      <point x="883" y="548.5" type="curve" smooth="yes"/>
      <point x="857.667" y="527.5"/>
      <point x="826" y="508.5"/>
      <point x="788" y="491.5" type="curve" smooth="yes"/>
      <point x="750" y="474.5"/>
      <point x="706.667" y="457.667"/>
      <point x="658" y="441" type="curve"/>
      <point x="658" y="136" type="line"/>
      <point x="849" y="136" type="line" smooth="yes"/>
      <point x="871.667" y="136"/>
      <point x="887.833" y="131"/>
      <point x="897.5" y="121" type="curve" smooth="yes"/>
      <point x="907.167" y="111"/>
      <point x="912" y="93.3333"/>
      <point x="912" y="68" type="curve" smooth="yes"/>
      <point x="912" y="42.6667"/>
      <point x="907.167" y="25"/>
      <point x="897.5" y="15" type="curve" smooth="yes"/>
      <point x="887.833" y="5"/>
      <point x="871.667" y="0"/>
      <point x="849" y="0" type="curve" smooth="yes"/>
      <point x="337" y="0" type="line" smooth="yes"/>
      <point x="314.333" y="0"/>
      <point x="298.167" y="5"/>
      <point x="288.5" y="15" type="curve" smooth="yes"/>
      <point x="278.833" y="25"/>
      <point x="274" y="42.6667"/>
      <point x="274" y="68" type="curve" smooth="yes"/>
      <point x="274" y="93.3333"/>
      <point x="278.833" y="111"/>
      <point x="288.5" y="121" type="curve" smooth="yes"/>
      <point x="298.167" y="131"/>
      <point x="314.333" y="136"/>
      <point x="337" y="136" type="curve" smooth="yes"/>
      <point x="500" y="136" type="line"/>
    </contour>
  </outline>
</glyph>
<glyph name="uni024A" format="1">
  <advance width="1228"/>
  <unicode hex="024A"/>
  <outline>
    <contour>
      <point x="876" y="124.6" type="line"/>
      <point x="838.377" y="78.1999"/>
      <point x="791.924" y="42"/>
      <point x="736.642" y="16" type="curve" smooth="yes"/>
      <point x="681.359" y="-10"/>
      <point x="616.479" y="-23"/>
      <point x="542.001" y="-23" type="curve" smooth="yes"/>
      <point x="472.668" y="-23"/>
      <point x="409.001" y="-8.33333"/>
      <point x="351.001" y="21" type="curve" smooth="yes"/>
      <point x="293.001" y="50.3333"/>
      <point x="243.102" y="92"/>
      <point x="201.303" y="146" type="curve" smooth="yes"/>
      <point x="159.505" y="200"/>
      <point x="127.171" y="264.833"/>
      <point x="104.303" y="340.5" type="curve" smooth="yes"/>
      <point x="81.4349" y="416.167"/>
      <point x="70.001" y="500.333"/>
      <point x="70.001" y="593" type="curve" smooth="yes"/>
      <point x="70.001" y="685.667"/>
      <point x="81.4349" y="769.833"/>
      <point x="104.303" y="845.5" type="curve" smooth="yes"/>
      <point x="127.171" y="921.167"/>
      <point x="159.505" y="986"/>
      <point x="201.303" y="1040" type="curve" smooth="yes"/>
      <point x="243.102" y="1094"/>
      <point x="293.001" y="1135.67"/>
      <point x="351.001" y="1165" type="curve" smooth="yes"/>
      <point x="409.001" y="1194.33"/>
      <point x="472.668" y="1209"/>
      <point x="542.001" y="1209" type="curve" smooth="yes"/>
      <point x="616.479" y="1209"/>
      <point x="681.359" y="1196"/>
      <point x="736.642" y="1170" type="curve" smooth="yes"/>
      <point x="791.924" y="1144"/>
      <point x="838.377" y="1107.8"/>
      <point x="876" y="1061.4" type="curve"/>
      <point x="876" y="1144" type="line" smooth="yes"/>
      <point x="876" y="1167.33"/>
      <point x="881.5" y="1184"/>
      <point x="892.5" y="1194" type="curve" smooth="yes"/>
      <point x="903.5" y="1204"/>
      <point x="923" y="1209"/>
      <point x="951" y="1209" type="curve" smooth="yes"/>
      <point x="979" y="1209"/>
      <point x="998.5" y="1204"/>
      <point x="1009.5" y="1194" type="curve" smooth="yes"/>
      <point x="1020.5" y="1184"/>
      <point x="1026" y="1167.33"/>
      <point x="1026" y="1144" type="curve" smooth="yes"/>
      <point x="1026" y="-204" type="line" smooth="yes"/>
      <point x="1026" y="-228.667"/>
      <point x="1033.17" y="-247.333"/>
      <point x="1047.5" y="-260" type="curve" smooth="yes"/>
      <point x="1061.83" y="-272.667"/>
      <point x="1080.33" y="-279"/>
      <point x="1103" y="-279" type="curve" smooth="yes"/>
      <point x="1122.33" y="-279"/>
      <point x="1141.67" y="-278"/>
      <point x="1161" y="-276" type="curve" smooth="yes"/>
      <point x="1169" y="-275.333"/>
      <point x="1187.33" y="-273"/>
      <point x="1216" y="-269" type="curve" smooth="yes"/>
      <point x="1229.33" y="-267"/>
      <point x="1240.33" y="-269.833"/>
      <point x="1249" y="-277.5" type="curve" smooth="yes"/>
      <point x="1257.67" y="-285.167"/>
      <point x="1263.33" y="-298.333"/>
      <point x="1266" y="-317" type="curve" smooth="yes"/>
      <point x="1269.33" y="-337.667"/>
      <point x="1268.5" y="-353.5"/>
      <point x="1263.5" y="-364.5" type="curve" smooth="yes"/>
      <point x="1258.5" y="-375.5"/>
      <point x="1248.67" y="-383.667"/>
      <point x="1234" y="-389" type="curve" smooth="yes"/>
      <point x="1210.67" y="-397"/>
      <point x="1185.33" y="-403.333"/>
      <point x="1158" y="-408" type="curve" smooth="yes"/>
      <point x="1130.67" y="-412.667"/>
      <point x="1101.33" y="-415"/>
      <point x="1070" y="-415" type="curve" smooth="yes"/>
      <point x="1007.33" y="-415"/>
      <point x="959.333" y="-397.833"/>
      <point x="926" y="-363.5" type="curve" smooth="yes"/>
      <point x="892.667" y="-329.167"/>
      <point x="876" y="-282.667"/>
      <point x="876" y="-224" type="curve" smooth="yes"/>
    </contour>
    <contour>
      <point x="552" y="125" type="curve" smooth="yes"/>
      <point x="612.667" y="125"/>
      <point x="663.5" y="136.833"/>
      <point x="704.5" y="160.5" type="curve" smooth="yes"/>
      <point x="745.5" y="184.167"/>
      <point x="778.933" y="216.667"/>
      <point x="804.8" y="258" type="curve" smooth="yes"/>
      <point x="830.666" y="299.333"/>
      <point x="849" y="346.333"/>
      <point x="859.8" y="399" type="curve" smooth="yes"/>
      <point x="870.6" y="451.667"/>
      <point x="876" y="516.333"/>
      <point x="876" y="593" type="curve" smooth="yes"/>
      <point x="876" y="669.667"/>
      <point x="870.6" y="734.333"/>
      <point x="859.8" y="787" type="curve" smooth="yes"/>
      <point x="849" y="839.667"/>
      <point x="830.666" y="886.667"/>
      <point x="804.8" y="928" type="curve" smooth="yes"/>
      <point x="778.933" y="969.333"/>
      <point x="745.5" y="1001.83"/>
      <point x="704.5" y="1025.5" type="curve" smooth="yes"/>
      <point x="663.5" y="1049.17"/>
      <point x="612.667" y="1061"/>
      <point x="552" y="1061" type="curve" smooth="yes"/>
      <point x="504.667" y="1061"/>
      <point x="461" y="1050.17"/>
      <point x="421" y="1028.5" type="curve" smooth="yes"/>
      <point x="381" y="1006.83"/>
      <point x="346.833" y="975.667"/>
      <point x="318.5" y="935" type="curve" smooth="yes"/>
      <point x="290.167" y="894.333"/>
      <point x="268" y="845.167"/>
      <point x="252" y="787.5" type="curve" smooth="yes"/>
      <point x="236" y="729.833"/>
      <point x="228" y="665"/>
      <point x="228" y="593" type="curve" smooth="yes"/>
      <point x="228" y="521"/>
      <point x="236" y="456.167"/>
      <point x="252" y="398.5" type="curve" smooth="yes"/>
      <point x="268" y="340.833"/>
      <point x="290.167" y="291.667"/>
      <point x="318.5" y="251" type="curve" smooth="yes"/>
      <point x="346.833" y="210.333"/>
      <point x="381" y="179.167"/>
      <point x="421" y="157.5" type="curve" smooth="yes"/>
      <point x="461" y="135.833"/>
      <point x="504.667" y="125"/>
    </contour>
  </outline>
</glyph>
<glyph name="uni024B" format="1">
  <advance width="1228"/>
  <unicode hex="024B"/>
  <outline>
    <contour>
      <point x="876" y="184" type="line"/>
      <point x="836" y="134"/>
      <point x="789.833" y="95.5"/>
      <point x="737.5" y="68.5" type="curve" smooth="yes"/>
      <point x="685.167" y="41.5"/>
      <point x="625.667" y="28"/>
      <point x="559" y="28" type="curve" smooth="yes"/>
      <point x="497" y="28"/>
      <point x="439.667" y="38.5"/>
      <point x="387" y="59.5" type="curve" smooth="yes"/>
      <point x="334.333" y="80.5"/>
      <point x="288.833" y="110.667"/>
      <point x="250.5" y="150" type="curve" smooth="yes"/>
      <point x="212.167" y="189.333"/>
      <point x="182" y="237.333"/>
      <point x="160" y="294" type="curve" smooth="yes"/>
      <point x="138" y="350.667"/>
      <point x="127" y="415"/>
      <point x="127" y="487" type="curve" smooth="yes"/>
      <point x="127" y="559"/>
      <point x="138" y="623.333"/>
      <point x="160" y="680" type="curve" smooth="yes"/>
      <point x="182" y="736.667"/>
      <point x="212.167" y="784.667"/>
      <point x="250.5" y="824" type="curve" smooth="yes"/>
      <point x="288.833" y="863.333"/>
      <point x="334.333" y="893.5"/>
      <point x="387" y="914.5" type="curve" smooth="yes"/>
      <point x="439.667" y="935.5"/>
      <point x="497" y="946"/>
      <point x="559" y="946" type="curve" smooth="yes"/>
      <point x="625.667" y="946"/>
      <point x="686.5" y="931.167"/>
      <point x="741.5" y="901.5" type="curve" smooth="yes"/>
      <point x="796.5" y="871.833"/>
      <point x="844.667" y="830"/>
      <point x="886" y="776" type="curve"/>
      <point x="886" y="856" type="line" smooth="yes"/>
      <point x="886" y="881.333"/>
      <point x="890.833" y="899"/>
      <point x="900.5" y="909" type="curve" smooth="yes"/>
      <point x="910.167" y="919"/>
      <point x="926.333" y="924"/>
      <point x="949" y="924" type="curve" smooth="yes"/>
      <point x="1108" y="924" type="line" smooth="yes"/>
      <point x="1130.67" y="924"/>
      <point x="1146.83" y="919"/>
      <point x="1156.5" y="909" type="curve" smooth="yes"/>
      <point x="1166.17" y="899"/>
      <point x="1171" y="881.333"/>
      <point x="1171" y="856" type="curve" smooth="yes"/>
      <point x="1171" y="830.667"/>
      <point x="1166.17" y="813"/>
      <point x="1156.5" y="803" type="curve" smooth="yes"/>
      <point x="1146.83" y="793"/>
      <point x="1130.67" y="788"/>
      <point x="1108" y="788" type="curve" smooth="yes"/>
      <point x="1026" y="788" type="line"/>
      <point x="1026" y="-204" type="line" smooth="yes"/>
      <point x="1026" y="-228.667"/>
      <point x="1033.17" y="-247.333"/>
      <point x="1047.5" y="-260" type="curve" smooth="yes"/>
      <point x="1061.83" y="-272.667"/>
      <point x="1080.33" y="-279"/>
      <point x="1103" y="-279" type="curve" smooth="yes"/>
      <point x="1122.33" y="-279"/>
      <point x="1141.67" y="-278"/>
      <point x="1161" y="-276" type="curve" smooth="yes"/>
      <point x="1169" y="-275.333"/>
      <point x="1187.33" y="-273"/>
      <point x="1216" y="-269" type="curve" smooth="yes"/>
      <point x="1229.33" y="-267"/>
      <point x="1240.33" y="-269.833"/>
      <point x="1249" y="-277.5" type="curve" smooth="yes"/>
      <point x="1257.67" y="-285.167"/>
      <point x="1263.33" y="-298.333"/>
      <point x="1266" y="-317" type="curve" smooth="yes"/>
      <point x="1269.33" y="-337.667"/>
      <point x="1268.5" y="-353.5"/>
      <point x="1263.5" y="-364.5" type="curve" smooth="yes"/>
      <point x="1258.5" y="-375.5"/>
      <point x="1248.67" y="-383.667"/>
      <point x="1234" y="-389" type="curve" smooth="yes"/>
      <point x="1210.67" y="-397"/>
      <point x="1185.33" y="-403.333"/>
      <point x="1158" y="-408" type="curve" smooth="yes"/>
      <point x="1130.67" y="-412.667"/>
      <point x="1101.33" y="-415"/>
      <point x="1070" y="-415" type="curve" smooth="yes"/>
      <point x="1007.33" y="-415"/>
      <point x="959.333" y="-397.833"/>
      <point x="926" y="-363.5" type="curve" smooth="yes"/>
      <point x="892.667" y="-329.167"/>
      <point x="876" y="-282.667"/>
      <point x="876" y="-224" type="curve" smooth="yes"/>
    </contour>
    <contour>
      <point x="876" y="487" type="curve" smooth="yes"/>
      <point x="876" y="536.333"/>
      <point x="868.333" y="580.333"/>
      <point x="853" y="619" type="curve" smooth="yes"/>
      <point x="837.667" y="657.667"/>
      <point x="816.333" y="690.167"/>
      <point x="789" y="716.5" type="curve" smooth="yes"/>
      <point x="761.667" y="742.833"/>
      <point x="729.167" y="763"/>
      <point x="691.5" y="777" type="curve" smooth="yes"/>
      <point x="653.833" y="791"/>
      <point x="613" y="798"/>
      <point x="569" y="798" type="curve" smooth="yes"/>
      <point x="523.667" y="798"/>
      <point x="483.333" y="790.333"/>
      <point x="448" y="775" type="curve" smooth="yes"/>
      <point x="412.667" y="759.667"/>
      <point x="383" y="738.167"/>
      <point x="359" y="710.5" type="curve" smooth="yes"/>
      <point x="335" y="682.833"/>
      <point x="316.667" y="650"/>
      <point x="304" y="612" type="curve" smooth="yes"/>
      <point x="291.333" y="574"/>
      <point x="285" y="532.333"/>
      <point x="285" y="487" type="curve" smooth="yes"/>
      <point x="285" y="441.667"/>
      <point x="291.333" y="400"/>
      <point x="304" y="362" type="curve" smooth="yes"/>
      <point x="316.667" y="324"/>
      <point x="335" y="291.167"/>
      <point x="359" y="263.5" type="curve" smooth="yes"/>
      <point x="383" y="235.833"/>
      <point x="412.667" y="214.333"/>
      <point x="448" y="199" type="curve" smooth="yes"/>
      <point x="483.333" y="183.667"/>
      <point x="523.667" y="176"/>
      <point x="569" y="176" type="curve" smooth="yes"/>
      <point x="613" y="176"/>
      <point x="653.833" y="183"/>
      <point x="691.5" y="197" type="curve" smooth="yes"/>
      <point x="729.167" y="211"/>
      <point x="761.667" y="231.167"/>
      <point x="789" y="257.5" type="curve" smooth="yes"/>
      <point x="816.333" y="283.833"/>
      <point x="837.667" y="316.333"/>
      <point x="853" y="355" type="curve" smooth="yes"/>
      <point x="868.333" y="393.667"/>
      <point x="876" y="437.667"/>
    </contour>
  </outline>
</glyph>
<glyph name="uni0253" format="1">
  <advance width="1228"/>
  <unicode hex="0253"/>
  <outline>
    <contour>
      <point x="202" y="1148" type="line" smooth="yes"/>
      <point x="202" y="1206.67"/>
      <point x="218.667" y="1253.17"/>
      <point x="252" y="1287.5" type="curve" smooth="yes"/>
      <point x="285.333" y="1321.83"/>
      <point x="333.333" y="1339"/>
      <point x="396" y="1339" type="curve" smooth="yes"/>
      <point x="427.333" y="1339"/>
      <point x="456.667" y="1336.67"/>
      <point x="484" y="1332" type="curve" smooth="yes"/>
      <point x="511.333" y="1327.33"/>
      <point x="536.667" y="1321"/>
      <point x="560" y="1313" type="curve" smooth="yes"/>
      <point x="574.667" y="1307.67"/>
      <point x="584.5" y="1299.5"/>
      <point x="589.5" y="1288.5" type="curve" smooth="yes"/>
      <point x="594.5" y="1277.5"/>
      <point x="595.333" y="1261.67"/>
      <point x="592" y="1241" type="curve" smooth="yes"/>
      <point x="589.333" y="1222.33"/>
      <point x="583.667" y="1209.17"/>
      <point x="575" y="1201.5" type="curve" smooth="yes"/>
      <point x="566.333" y="1193.83"/>
      <point x="555.333" y="1191"/>
      <point x="542" y="1193" type="curve" smooth="yes"/>
      <point x="524.667" y="1196.33"/>
      <point x="506.333" y="1198.83"/>
      <point x="487" y="1200.5" type="curve" smooth="yes"/>
      <point x="467.667" y="1202.17"/>
      <point x="448.333" y="1203"/>
      <point x="429" y="1203" type="curve" smooth="yes"/>
      <point x="406.333" y="1203"/>
      <point x="387.833" y="1196.67"/>
      <point x="373.5" y="1184" type="curve" smooth="yes"/>
      <point x="359.167" y="1171.33"/>
      <point x="352" y="1152.67"/>
      <point x="352" y="1128" type="curve" smooth="yes"/>
      <point x="352" y="1128"/>
      <point x="352" y="1128"/>
      <point x="352" y="781" type="curve"/>
      <point x="392" y="832.333"/>
      <point x="438.167" y="872.667"/>
      <point x="490.5" y="902" type="curve" smooth="yes"/>
      <point x="542.833" y="931.333"/>
      <point x="602.333" y="946"/>
      <point x="669" y="946" type="curve" smooth="yes"/>
      <point x="731" y="946"/>
      <point x="788.333" y="935"/>
      <point x="841" y="913" type="curve" smooth="yes"/>
      <point x="893.667" y="891"/>
      <point x="939.167" y="859.167"/>
      <point x="977.5" y="817.5" type="curve" smooth="yes"/>
      <point x="1015.83" y="775.833"/>
      <point x="1046" y="725"/>
      <point x="1068" y="665" type="curve" smooth="yes"/>
      <point x="1090" y="605"/>
      <point x="1101" y="537.333"/>
      <point x="1101" y="462" type="curve" smooth="yes"/>
      <point x="1101" y="386.667"/>
      <point x="1090" y="319"/>
      <point x="1068" y="259" type="curve" smooth="yes"/>
      <point x="1046" y="199"/>
      <point x="1015.83" y="148.167"/>
      <point x="977.5" y="106.5" type="curve" smooth="yes"/>
      <point x="939.167" y="64.8333"/>
      <point x="893.667" y="33"/>
      <point x="841" y="11" type="curve" smooth="yes"/>
      <point x="788.333" y="-11"/>
      <point x="731" y="-22"/>
      <point x="669" y="-22" type="curve" smooth="yes"/>
      <point x="602.333" y="-22"/>
      <point x="541.5" y="-7.16667"/>
      <point x="486.5" y="22.5" type="curve" smooth="yes"/>
      <point x="431.5" y="52.1667"/>
      <point x="383.333" y="94"/>
      <point x="342" y="148" type="curve"/>
      <point x="342" y="68" type="line" smooth="yes"/>
      <point x="342" y="42.6667"/>
      <point x="337.167" y="25"/>
      <point x="327.5" y="15" type="curve" smooth="yes"/>
      <point x="317.833" y="5"/>
      <point x="301.667" y="0"/>
      <point x="279" y="0" type="curve" smooth="yes"/>
      <point x="120" y="0" type="line" smooth="yes"/>
      <point x="97.3333" y="0"/>
      <point x="81.1667" y="5"/>
      <point x="71.5" y="15" type="curve" smooth="yes"/>
      <point x="61.8333" y="25"/>
      <point x="57" y="42.6667"/>
      <point x="57" y="68" type="curve" smooth="yes"/>
      <point x="57" y="93.3333"/>
      <point x="61.8333" y="111"/>
      <point x="71.5" y="121" type="curve" smooth="yes"/>
      <point x="81.1667" y="131"/>
      <point x="97.3333" y="136"/>
      <point x="120" y="136" type="curve" smooth="yes"/>
      <point x="202" y="136" type="line"/>
    </contour>
    <contour>
      <point x="352" y="462" type="curve" smooth="yes"/>
      <point x="352" y="408.667"/>
      <point x="359.667" y="361.333"/>
      <point x="375" y="320" type="curve" smooth="yes"/>
      <point x="390.333" y="278.667"/>
      <point x="411.667" y="243.5"/>
      <point x="439" y="214.5" type="curve" smooth="yes"/>
      <point x="466.333" y="185.5"/>
      <point x="498.833" y="163.5"/>
      <point x="536.5" y="148.5" type="curve" smooth="yes"/>
      <point x="574.167" y="133.5"/>
      <point x="615" y="126"/>
      <point x="659" y="126" type="curve" smooth="yes"/>
      <point x="704.333" y="126"/>
      <point x="744.667" y="134.333"/>
      <point x="780" y="151" type="curve" smooth="yes"/>
      <point x="815.333" y="167.667"/>
      <point x="845" y="190.833"/>
      <point x="869" y="220.5" type="curve" smooth="yes"/>
      <point x="893" y="250.167"/>
      <point x="911.333" y="285.5"/>
      <point x="924" y="326.5" type="curve" smooth="yes"/>
      <point x="936.667" y="367.5"/>
      <point x="943" y="412.667"/>
      <point x="943" y="462" type="curve" smooth="yes"/>
      <point x="943" y="510.667"/>
      <point x="936.667" y="555.667"/>
      <point x="924" y="597" type="curve" smooth="yes"/>
      <point x="911.333" y="638.333"/>
      <point x="893" y="673.833"/>
      <point x="869" y="703.5" type="curve" smooth="yes"/>
      <point x="845" y="733.167"/>
      <point x="815.333" y="756.333"/>
      <point x="780" y="773" type="curve" smooth="yes"/>
      <point x="744.667" y="789.667"/>
      <point x="704.333" y="798"/>
      <point x="659" y="798" type="curve" smooth="yes"/>
      <point x="615" y="798"/>
      <point x="574.167" y="790.5"/>
      <point x="536.5" y="775.5" type="curve" smooth="yes"/>
      <point x="498.833" y="760.5"/>
      <point x="466.333" y="738.5"/>
      <point x="439" y="709.5" type="curve" smooth="yes"/>
      <point x="411.667" y="680.5"/>
      <point x="390.333" y="645.167"/>
      <point x="375" y="603.5" type="curve" smooth="yes"/>
      <point x="359.667" y="561.833"/>
      <point x="352" y="514.667"/>
    </contour>
  </outline>
</glyph>
<glyph name="uni0256" format="1">
  <advance width="1228"/>
  <unicode hex="0256"/>
  <outline>
    <contour>
      <point x="869" y="437" type="curve" smooth="yes"/>
      <point x="869" y="486.333"/>
      <point x="861.333" y="530.333"/>
      <point x="846" y="569" type="curve" smooth="yes"/>
      <point x="830.667" y="607.667"/>
      <point x="809.333" y="640.167"/>
      <point x="782" y="666.5" type="curve" smooth="yes"/>
      <point x="754.667" y="692.833"/>
      <point x="722.167" y="713"/>
      <point x="684.5" y="727" type="curve" smooth="yes"/>
      <point x="646.833" y="741"/>
      <point x="606" y="748"/>
      <point x="562" y="748" type="curve" smooth="yes"/>
      <point x="516.667" y="748"/>
      <point x="476.333" y="740.333"/>
      <point x="441" y="725" type="curve" smooth="yes"/>
      <point x="405.667" y="709.667"/>
      <point x="376" y="688.167"/>
      <point x="352" y="660.5" type="curve" smooth="yes"/>
      <point x="328" y="632.833"/>
      <point x="309.667" y="600"/>
      <point x="297" y="562" type="curve" smooth="yes"/>
      <point x="284.333" y="524"/>
      <point x="278" y="482.333"/>
      <point x="278" y="437" type="curve" smooth="yes"/>
      <point x="278" y="391.667"/>
      <point x="284.333" y="350"/>
      <point x="297" y="312" type="curve" smooth="yes"/>
      <point x="309.667" y="274"/>
      <point x="328" y="241.167"/>
      <point x="352" y="213.5" type="curve" smooth="yes"/>
      <point x="376" y="185.833"/>
      <point x="405.667" y="164.333"/>
      <point x="441" y="149" type="curve" smooth="yes"/>
      <point x="476.333" y="133.667"/>
      <point x="516.667" y="126"/>
      <point x="562" y="126" type="curve" smooth="yes"/>
      <point x="606" y="126"/>
      <point x="646.833" y="133"/>
      <point x="684.5" y="147" type="curve" smooth="yes"/>
      <point x="722.167" y="161"/>
      <point x="754.667" y="181.167"/>
      <point x="782" y="207.5" type="curve" smooth="yes"/>
      <point x="809.333" y="233.833"/>
      <point x="830.667" y="266.333"/>
      <point x="846" y="305" type="curve" smooth="yes"/>
      <point x="861.333" y="343.667"/>
      <point x="869" y="387.667"/>
    </contour>
    <contour>
      <point x="869" y="135" type="line"/>
      <point x="829.667" y="87"/>
      <point x="784.667" y="49.3333"/>
      <point x="734" y="22" type="curve" smooth="yes"/>
      <point x="679.333" y="-7.33333"/>
      <point x="618.667" y="-22"/>
      <point x="552" y="-22" type="curve" smooth="yes"/>
      <point x="490" y="-22"/>
      <point x="432.667" y="-11.5"/>
      <point x="380" y="9.5" type="curve" smooth="yes"/>
      <point x="327.333" y="30.5"/>
      <point x="281.833" y="60.6667"/>
      <point x="243.5" y="100" type="curve" smooth="yes"/>
      <point x="205.167" y="139.333"/>
      <point x="175" y="187.333"/>
      <point x="153" y="244" type="curve" smooth="yes"/>
      <point x="131" y="300.667"/>
      <point x="120" y="365"/>
      <point x="120" y="437" type="curve" smooth="yes"/>
      <point x="120" y="509"/>
      <point x="131" y="573.333"/>
      <point x="153" y="630" type="curve" smooth="yes"/>
      <point x="175" y="686.667"/>
      <point x="205.167" y="734.667"/>
      <point x="243.5" y="774" type="curve" smooth="yes"/>
      <point x="281.833" y="813.333"/>
      <point x="327.333" y="843.5"/>
      <point x="380" y="864.5" type="curve" smooth="yes"/>
      <point x="432.667" y="885.5"/>
      <point x="490" y="896"/>
      <point x="552" y="896" type="curve" smooth="yes"/>
      <point x="618.667" y="896"/>
      <point x="678.167" y="882.5"/>
      <point x="730.5" y="855.5" type="curve" smooth="yes"/>
      <point x="782.833" y="828.5"/>
      <point x="829" y="790"/>
      <point x="869" y="740" type="curve"/>
      <point x="869" y="1176" type="line"/>
      <point x="667" y="1176" type="line" smooth="yes"/>
      <point x="644.333" y="1176"/>
      <point x="628.167" y="1181"/>
      <point x="618.5" y="1191" type="curve" smooth="yes"/>
      <point x="608.833" y="1201"/>
      <point x="604" y="1218.67"/>
      <point x="604" y="1244" type="curve" smooth="yes"/>
      <point x="604" y="1269.33"/>
      <point x="608.833" y="1287"/>
      <point x="618.5" y="1297" type="curve" smooth="yes"/>
      <point x="628.167" y="1307"/>
      <point x="644.333" y="1312"/>
      <point x="667" y="1312" type="curve" smooth="yes"/>
      <point x="956" y="1312" type="line" smooth="yes"/>
      <point x="978.667" y="1312"/>
      <point x="994.833" y="1307"/>
      <point x="1004.5" y="1297" type="curve" smooth="yes"/>
      <point x="1014.17" y="1287"/>
      <point x="1019" y="1269.33"/>
      <point x="1019" y="1244" type="curve" smooth="yes"/>
      <point x="1019" y="-204" type="line" smooth="yes"/>
      <point x="1019" y="-228.667"/>
      <point x="1026.17" y="-247.333"/>
      <point x="1040.5" y="-260" type="curve" smooth="yes"/>
      <point x="1054.83" y="-272.667"/>
      <point x="1073.33" y="-279"/>
      <point x="1096" y="-279" type="curve" smooth="yes"/>
      <point x="1115.33" y="-279"/>
      <point x="1134.67" y="-278"/>
      <point x="1154" y="-276" type="curve" smooth="yes"/>
      <point x="1162" y="-275.333"/>
      <point x="1180.33" y="-273"/>
      <point x="1209" y="-269" type="curve" smooth="yes"/>
      <point x="1222.33" y="-267"/>
      <point x="1233.33" y="-269.833"/>
      <point x="1242" y="-277.5" type="curve" smooth="yes"/>
      <point x="1250.67" y="-285.167"/>
      <point x="1256.33" y="-298.333"/>
      <point x="1259" y="-317" type="curve" smooth="yes"/>
      <point x="1262.33" y="-337.667"/>
      <point x="1261.5" y="-353.5"/>
      <point x="1256.5" y="-364.5" type="curve" smooth="yes"/>
      <point x="1251.5" y="-375.5"/>
      <point x="1241.67" y="-383.667"/>
      <point x="1227" y="-389" type="curve" smooth="yes"/>
      <point x="1203.67" y="-397"/>
      <point x="1178.33" y="-403.333"/>
      <point x="1151" y="-408" type="curve" smooth="yes"/>
      <point x="1123.67" y="-412.667"/>
      <point x="1094.33" y="-415"/>
      <point x="1063" y="-415" type="curve" smooth="yes"/>
      <point x="1000.33" y="-415"/>
      <point x="952.333" y="-397.833"/>
      <point x="919" y="-363.5" type="curve" smooth="yes"/>
      <point x="885.667" y="-329.167"/>
      <point x="869" y="-282.667"/>
      <point x="869" y="-224" type="curve" smooth="yes"/>
    </contour>
  </outline>
</glyph>
